<svg id="Layer_1" data-name="Layer 1" xmlns="http://www.w3.org/2000/svg" viewBox="0 0 86.4 86.4"><path d="M43.2,0A43.2,43.2,0,1,0,86.4,43.2,43.2,43.2,0,0,0,43.2,0ZM4,53.9a40.58,40.58,0,0,1-1.07-5,43.66,43.66,0,0,1-.43-5L82.6,32a40.44,40.44,0,0,1,1.52,9.91Zm62.44-7.8a23.2,23.2,0,0,1-44,6.57Zm-46-6.37a23.12,23.12,0,0,1,10.46-16.4,23.56,23.56,0,0,1,32.35,7.9c.39.65.75,1.31,1.08,2ZM43.2,2.24a41,41,0,0,1,39,28.32L65.82,33a24.49,24.49,0,0,0-46.75,6.93L2.26,42.57A41,41,0,0,1,43.2,2.24Zm0,81.92A41,41,0,0,1,4.07,55.33c3.91-.62,16.84-2.47,16.84-2.47A24.14,24.14,0,0,0,43.08,67.54a23.61,23.61,0,0,0,3.56-.27,25,25,0,0,0,21.1-21.36s12-2,16.41-2.63A41,41,0,0,1,43.2,84.16Z"/><path d="M22.45,16.08A1.94,1.94,0,0,1,22.16,15a.94.94,0,0,1,.43-.73.8.8,0,0,1,.72-.08,1.44,1.44,0,0,1,.84,1.34.85.85,0,0,1-.39.61l-.34.22.39.64.38-.21a1.14,1.14,0,0,1,.9-.11,1.32,1.32,0,0,1,.78.61,1.2,1.2,0,0,1,.18.92,1.14,1.14,0,0,1-.55.72,1.21,1.21,0,0,1-1.08.12,2,2,0,0,1-1-.84l-.89.85a2.7,2.7,0,0,0,1,.9,2.36,2.36,0,0,0,1.22.28,2.94,2.94,0,0,0,1.29-.42,2.89,2.89,0,0,0,.95-.89,2,2,0,0,0,0-2.18,2,2,0,0,0-.89-.78A1.93,1.93,0,0,0,25,15.89a1.51,1.51,0,0,0,.27-.9,1.78,1.78,0,0,0-.29-1,2.09,2.09,0,0,0-.78-.78,1.74,1.74,0,0,0-1-.21,2.4,2.4,0,0,0-1.07.37,2.24,2.24,0,0,0-.84.86A2.06,2.06,0,0,0,21,15.37a2.54,2.54,0,0,0,.33,1.2Z"/><path d="M28.5,16.38a2.92,2.92,0,0,0,1.39.9,2.58,2.58,0,0,0,2.78-1,2.91,2.91,0,0,0,.47-1.56,5.41,5.41,0,0,0-.36-2,5.52,5.52,0,0,0-1-1.77,2.85,2.85,0,0,0-1.38-.9,2.39,2.39,0,0,0-1.56.08,2.33,2.33,0,0,0-1.23,1,2.88,2.88,0,0,0-.47,1.56,5.31,5.31,0,0,0,.37,2A5.55,5.55,0,0,0,28.5,16.38Zm-.14-4.18a1.27,1.27,0,0,1,1.4-1.14,1.18,1.18,0,0,1,.77.36,4,4,0,0,1,1.1,1.72,4.08,4.08,0,0,1,.29,2,1.33,1.33,0,0,1-.84,1.1,1.3,1.3,0,0,1-1.34-.28,4,4,0,0,1-1.1-1.72A3.88,3.88,0,0,1,28.36,12.2Z"/><path d="M39.66,15.2a3.51,3.51,0,0,0,2.57-1.12A3.63,3.63,0,0,0,43,11.34a3.73,3.73,0,0,0-1.1-2.59A3.54,3.54,0,0,0,39.16,8l-2.49.18.51,7.22ZM39.22,9a2.14,2.14,0,0,1,1.72.57,2.73,2.73,0,0,1,.78,1.87,2.76,2.76,0,0,1-.49,1.89,2.19,2.19,0,0,1-1.65.78l-1.23.09L38,9.13Z"/><path d="M45.17,13.59l2.74.35.29,1.62,1.29.17L48,8.28l-1.57-.19L43.2,14.93l1.28.16Zm1.92-4.32.66,3.66-2.22-.28Z"/><polygon points="51 16.26 52.22 16.63 52.98 14.14 56.47 10.4 55.16 10 52.73 12.82 52.7 12.81 52.18 9.1 50.9 8.71 51.76 13.77 51 16.26"/><path d="M30.5,70.35a2.61,2.61,0,0,0,.18-1.74,2.67,2.67,0,0,0-1-1.5,3,3,0,0,0-1.56-.71,2.87,2.87,0,0,0-1.63.25A4.35,4.35,0,0,0,25,67.83a4,4,0,0,0-.85,1.69,3,3,0,0,0,.11,1.7,3.43,3.43,0,0,0,1.06,1.44,3.13,3.13,0,0,0,1.56.73,2.74,2.74,0,0,0,1.62-.23A4,4,0,0,0,30,72c.07-.08.15-.21.27-.36L27.2,69.14l-.53.65,2.19,1.81a2.36,2.36,0,0,1-.91.61,1.69,1.69,0,0,1-1,.11,2.18,2.18,0,0,1-1.61-1.4,2.12,2.12,0,0,1,0-1.17,3.12,3.12,0,0,1,.62-1.18,3.19,3.19,0,0,1,1-.87,2,2,0,0,1,1.08-.24,1.75,1.75,0,0,1,1,.41,1.58,1.58,0,0,1,.53.89,1.81,1.81,0,0,1-.11,1.1Z"/><path d="M36.33,71.27l-1.81,3.9a1.57,1.57,0,0,1-.78.86A1.3,1.3,0,0,1,32.65,76a1.33,1.33,0,0,1-.78-.78A1.59,1.59,0,0,1,32,74l1.81-3.9-1.06-.49L30.9,73.6a2.67,2.67,0,0,0-.26,1.33,2.08,2.08,0,0,0,.44,1.17,3.22,3.22,0,0,0,2.48,1.14,2.16,2.16,0,0,0,1.18-.42,2.65,2.65,0,0,0,.83-1.07l1.83-4Z"/><path d="M39.78,72.38l-3.49,6.07,1.16.23.78-1.33,2.5.52.15,1.51,1.17.25-.84-7Zm-1.19,4.11,1.69-3,.34,3.42Z"/><path d="M48.68,76.06A1.74,1.74,0,0,0,49,74.94a1.88,1.88,0,0,0-.29-1,1.93,1.93,0,0,0-.84-.68,3.22,3.22,0,0,0-1.23-.21L44,73.13l.19,6.64h1.17l-.08-2.68,1.38,0,1.32,2.65H49.2l-1.52-3A1.85,1.85,0,0,0,48.68,76.06Zm-2,0H45.18L45.11,74h1.46a1.41,1.41,0,0,1,.93.27,1,1,0,0,1,.36.78,1,1,0,0,1-.33.79A1.33,1.33,0,0,1,46.64,76.09Z"/><path d="M51.42,72.38l-.39,7,1.15-.3.06-1.57,2.46-.67.78,1.29,1.16-.31L52.83,72Zm.8,4.2.16-3.42L54.21,76Z"/><polygon points="59.01 69.19 61.53 73.77 61.51 73.78 56.74 70.45 55.43 71.17 58.65 76.98 59.62 76.45 57.11 71.89 57.12 71.88 61.9 75.19 63.2 74.47 59.99 68.65 59.01 69.19"/><polygon points="64.8 65.81 64.12 65.05 60.48 68.28 61.15 69.04 62.53 67.82 66.28 72.02 67.16 71.24 63.42 67.04 64.8 65.81"/><polygon points="69.76 67.01 68.17 65.8 69.7 63.75 68.99 63.22 67.45 65.27 66 64.19 67.78 61.84 66.99 61.25 64.55 64.51 69.86 68.5 72.37 65.16 71.59 64.58 69.76 67.01"/><polygon points="74.33 59.19 73.02 61.93 71.23 61.06 72.33 58.75 71.53 58.37 70.42 60.68 68.79 59.9 70.06 57.24 69.18 56.82 67.42 60.5 73.41 63.38 75.22 59.61 74.33 59.19"/><path d="M26.61,44.89l-3.29.48.1.69,2.34-.35a1.85,1.85,0,0,1-.1.93,1.56,1.56,0,0,1-.5.69,1.7,1.7,0,0,1-.78.33,1.59,1.59,0,0,1-1-.12,1.68,1.68,0,0,1-.73-.64,2.53,2.53,0,0,1-.45-1.07,2.82,2.82,0,0,1,0-1.12,1.67,1.67,0,0,1,.46-.78,1.46,1.46,0,0,1,.78-.37,1.25,1.25,0,0,1,.85.16,1.51,1.51,0,0,1,.62.68l.86-.35a2.21,2.21,0,0,0-1-1.09,2.25,2.25,0,0,0-1.44-.25,2.46,2.46,0,0,0-2.09,1.71,3.57,3.57,0,0,0-.1,1.56,3.33,3.33,0,0,0,.6,1.5,2.49,2.49,0,0,0,1.14.88,3,3,0,0,0,2.81-.4,2.46,2.46,0,0,0,.79-1.14,3.44,3.44,0,0,0,.1-1.56Z"/><path d="M31.14,42a3.05,3.05,0,0,0-2.84.41,2.38,2.38,0,0,0-.78,1.16,3.43,3.43,0,0,0-.11,1.56A3.51,3.51,0,0,0,28,46.61a2.32,2.32,0,0,0,1.1.88,3,3,0,0,0,2.83-.41,2.38,2.38,0,0,0,.78-1.16,3.73,3.73,0,0,0-.44-3.05A2.5,2.5,0,0,0,31.14,42Zm.65,3.63a1.67,1.67,0,0,1-.5.78,1.55,1.55,0,0,1-.86.39,1.66,1.66,0,0,1-1-.13,1.6,1.6,0,0,1-.71-.63A2.64,2.64,0,0,1,28.39,45a2.86,2.86,0,0,1,.05-1.13,1.75,1.75,0,0,1,.51-.79,1.67,1.67,0,0,1,.87-.38,1.56,1.56,0,0,1,.95.12,1.66,1.66,0,0,1,.7.64A2.87,2.87,0,0,1,31.79,45.62Z"/><path d="M38.44,41.92a2.45,2.45,0,0,0-1.09-.87,3,3,0,0,0-2.84.41,2.38,2.38,0,0,0-.78,1.16,3.73,3.73,0,0,0,.44,3.05,2.46,2.46,0,0,0,1.08.94,3.07,3.07,0,0,0,2.84-.41A2.45,2.45,0,0,0,38.87,45,3.38,3.38,0,0,0,39,43.42,3.43,3.43,0,0,0,38.44,41.92ZM38,44.68a1.67,1.67,0,0,1-.5.78,1.79,1.79,0,0,1-1.82.27,1.69,1.69,0,0,1-.71-.64A2.66,2.66,0,0,1,34.56,44a2.82,2.82,0,0,1,.06-1.12A1.65,1.65,0,0,1,36,41.71a1.73,1.73,0,0,1,1,.13,1.77,1.77,0,0,1,.7.63A2.54,2.54,0,0,1,38,43.53,2.63,2.63,0,0,1,38,44.68Z"/><path d="M43.58,40.68a2.77,2.77,0,0,0-2.11-.42l-1.9.27L40.35,46l1.9-.27a2.78,2.78,0,0,0,1.9-1,3.28,3.28,0,0,0-.57-4Zm-.22,3.59a1.69,1.69,0,0,1-1.22.68l-.94.14-.56-3.91.93-.14a1.72,1.72,0,0,1,1.37.31A2.57,2.57,0,0,1,43.36,44.27Z"/><polygon points="48.67 43.95 47.99 39.31 47.03 39.45 47.83 44.93 50.95 44.47 50.83 43.64 48.67 43.95"/><path d="M55,38.29l-1,.14L54.53,42a1.3,1.3,0,0,1-.17,1,1.22,1.22,0,0,1-1.68.23,1.27,1.27,0,0,1-.44-.85l-.52-3.53-1,.14.53,3.59a2.17,2.17,0,0,0,.42,1,1.75,1.75,0,0,0,.84.6,2.67,2.67,0,0,0,2.25-.33,1.73,1.73,0,0,0,.63-.78,2.17,2.17,0,0,0,.1-1.13Z"/><path d="M60.18,42a1.44,1.44,0,0,1-1,.58,1.58,1.58,0,0,1-1.3-.37,2.39,2.39,0,0,1-.67-1.44,2.61,2.61,0,0,1,.18-1.56,1.32,1.32,0,0,1,1-.72,1.19,1.19,0,0,1,.91.23,1.86,1.86,0,0,1,.6.93l.87-.33a2.46,2.46,0,0,0-1-1.35,2.19,2.19,0,0,0-1.56-.32,2.4,2.4,0,0,0-1.25.55,2.28,2.28,0,0,0-.71,1.14,3.58,3.58,0,0,0-.08,1.56,3.48,3.48,0,0,0,.54,1.49,2.37,2.37,0,0,0,1.07.88,2.76,2.76,0,0,0,1.45.15A2.64,2.64,0,0,0,60.46,43a2.42,2.42,0,0,0,.78-.9,2.94,2.94,0,0,0,.28-1.27h-1A2,2,0,0,1,60.18,42Z"/><polygon points="64.39 39.14 65.87 36.7 64.72 36.87 63.21 39.45 63.2 39.46 62.86 37.15 61.9 37.29 62.69 42.76 63.66 42.62 63.38 40.72 63.85 39.96 65.63 42.33 66.75 42.17 64.39 39.14"/></svg>