<svg xmlns="http://www.w3.org/2000/svg" width="100" height="100" viewBox="0 0 100 100">
  <g id="_5-star-d" data-name="5-star-d" transform="translate(-1497 -1506)">
    <path id="Path_1029" data-name="Path 1029" d="M61.5,11.5a50,50,0,1,0,50,50A50.057,50.057,0,0,0,61.5,11.5Zm0,97.4a47.4,47.4,0,1,1,47.4-47.4A47.457,47.457,0,0,1,61.5,108.9Z" transform="translate(1485.5 1494.5)"/>
    <g id="Group_372" data-name="Group 372" transform="translate(1523.013 1544.074)">
      <g id="Group_276" data-name="Group 276">
        <g id="Group_240" data-name="Group 240">
          <g id="Union_1" data-name="Union 1" fill="none" stroke-linejoin="round">
            <path d="M10.446,20.028h-.433A10.014,10.014,0,0,1,10.013,0h27.86a10.014,10.014,0,1,1,0,20.028H18.427l-3.99,7.152Z" stroke="none"/>
            <path d="M 14.43690013885498 27.18000030517578 L 18.42733001708984 20.02770042419434 L 37.87379837036133 20.02770042419434 C 43.40430068969727 20.02770042419434 47.88809967041016 15.54390048980713 47.88809967041016 10.01340007781982 C 47.88809967041016 4.482900142669678 43.40430068969727 1.525878872143949e-07 37.87379837036133 1.525878872143949e-07 L 10.01340007781982 1.525878872143949e-07 C 4.48289966583252 1.525878872143949e-07 -1.647949261496251e-07 4.482900142669678 -1.647949261496251e-07 10.01340007781982 C -1.647949261496251e-07 15.54390048980713 4.48289966583252 20.02770042419434 10.01340007781982 20.02770042419434 L 10.44647026062012 20.02770042419434 L 14.43690013885498 27.18000030517578 M 14.43690013885498 29.18000030517578 C 13.71185970306396 29.18000030517578 13.04360008239746 28.78761100769043 12.69034004211426 28.15443992614746 L 9.259184837341309 22.00456428527832 C 6.333882331848145 21.82457160949707 3.608846187591553 20.5992546081543 1.518459796905518 18.50860977172852 C -0.7504501938819885 16.23941993713379 -2.000000238418579 13.22243022918701 -2.000000238418579 10.01340007781982 C -2.000000238418579 6.804379940032959 -0.7504201531410217 3.787520170211792 1.518549799919128 1.518550157546997 C 3.787519931793213 -0.7504198551177979 6.804379940032959 -1.99999988079071 10.01340007781982 -1.99999988079071 L 37.87379837036133 -1.99999988079071 C 41.08282852172852 -1.99999988079071 44.09981918334961 -0.7504498362541199 46.36901092529297 1.518460154533386 C 48.63832855224609 3.787500143051147 49.88809967041016 6.804389953613281 49.88809967041016 10.01340007781982 C 49.88809967041016 13.22241973876953 48.63835906982422 16.23944091796875 46.36909866333008 18.50869941711426 C 44.09983825683594 20.7779598236084 41.08282089233398 22.02770042419434 37.87379837036133 22.02770042419434 L 19.60170745849609 22.02770042419434 L 16.1834602355957 28.15443992614746 C 15.8302001953125 28.78761100769043 15.16193962097168 29.18000030517578 14.43690013885498 29.18000030517578 Z" stroke="none" fill="#000"/>
          </g>
        </g>
      </g>
      <g id="Group_371" data-name="Group 371" transform="translate(8.502 7.04)">
        <path id="Icon_metro-star-full" data-name="Icon metro-star-full" d="M8.236,4.741,6.279,4.457,5.4,2.683,4.528,4.457l-1.957.284L3.987,6.122l-.334,1.95L5.4,7.151l1.751.92L6.82,6.122Z" transform="translate(-2.571 -2.683)"/>
        <path id="Icon_metro-star-full-2" data-name="Icon metro-star-full" d="M8.236,4.741,6.279,4.457,5.4,2.683,4.528,4.457l-1.957.284L3.987,6.122l-.334,1.95L5.4,7.151l1.751.92L6.82,6.122Z" transform="translate(4.365 -2.683)"/>
        <path id="Icon_metro-star-full-3" data-name="Icon metro-star-full" d="M8.236,4.741,6.279,4.457,5.4,2.683,4.528,4.457l-1.957.284L3.987,6.122l-.334,1.95L5.4,7.151l1.751.92L6.82,6.122Z" transform="translate(11.301 -2.683)"/>
        <path id="Icon_metro-star-full-4" data-name="Icon metro-star-full" d="M8.236,4.741,6.279,4.457,5.4,2.683,4.528,4.457l-1.957.284L3.987,6.122l-.334,1.95L5.4,7.151l1.751.92L6.82,6.122Z" transform="translate(18.237 -2.683)"/>
        <path id="Icon_metro-star-full-5" data-name="Icon metro-star-full" d="M8.236,4.741,6.279,4.457,5.4,2.683,4.528,4.457l-1.957.284L3.987,6.122l-.334,1.95L5.4,7.151l1.751.92L6.82,6.122Z" transform="translate(25.172 -2.683)"/>
      </g>
    </g>
  </g>
</svg>
