<?xml version="1.0" encoding="UTF-8"?>
<svg width="134px" height="24px" viewBox="0 0 134 24" version="1.1" xmlns="http://www.w3.org/2000/svg" xmlns:xlink="http://www.w3.org/1999/xlink">
    <title>Group</title>
    <g id="Page-1" stroke="none" stroke-width="1" fill="none" fill-rule="evenodd">
        <g id="Group" transform="translate(0.357143, 0.000000)" fill="#000000">
            <polygon id="Star" points="12 18 4.94657697 21.7082039 6.2936609 13.854102 0.587321804 8.29179607 8.47328849 7.14589803 12 0 15.5267115 7.14589803 23.4126782 8.29179607 17.7063391 13.854102 19.053423 21.7082039"></polygon>
            <polygon id="Star-Copy" points="40.2285714 18 33.1751484 21.7082039 34.5222323 13.854102 28.8158932 8.29179607 36.7018599 7.14589803 40.2285714 0 43.7552829 7.14589803 51.6412496 8.29179607 45.9349105 13.854102 47.2819945 21.7082039"></polygon>
            <polygon id="Star-Copy-2" points="66.9714286 18 59.9180055 21.7082039 61.2650895 13.854102 55.5587504 8.29179607 63.4447171 7.14589803 66.9714286 0 70.4981401 7.14589803 78.3841068 8.29179607 72.6777677 13.854102 74.0248516 21.7082039"></polygon>
            <polygon id="Star-Copy-3" points="95.2 18 88.146577 21.7082039 89.4936609 13.854102 83.7873218 8.29179607 91.6732885 7.14589803 95.2 0 98.7267115 7.14589803 106.612678 8.29179607 100.906339 13.854102 102.253423 21.7082039"></polygon>
            <polygon id="Star-Copy-4" points="121.428571 18 114.375148 21.7082039 115.722232 13.854102 110.015893 8.29179607 117.90186 7.14589803 121.428571 0 124.955283 7.14589803 132.84125 8.29179607 127.134911 13.854102 128.481994 21.7082039"></polygon>
        </g>
    </g>
</svg>