<svg xmlns="http://www.w3.org/2000/svg" viewBox="0 0 86.4 86.4"><g id="Layer_2" data-name="Layer 2"><g id="Layer_1-2" data-name="Layer 1"><path d="M43.2,0A43.2,43.2,0,1,0,86.4,43.2,43.2,43.2,0,0,0,43.2,0ZM4,53.9a40.58,40.58,0,0,1-1.07-5,43.66,43.66,0,0,1-.43-5L82.6,32a40.44,40.44,0,0,1,1.52,9.91Zm62.44-7.8a23.2,23.2,0,0,1-44,6.57Zm-46-6.37a23.12,23.12,0,0,1,10.46-16.4,23.56,23.56,0,0,1,32.35,7.9c.39.65.75,1.31,1.08,2ZM43.2,2.24a41,41,0,0,1,39,28.32L65.82,33a24.49,24.49,0,0,0-46.75,6.93L2.26,42.57A41,41,0,0,1,43.2,2.24Zm0,81.92A41,41,0,0,1,4.07,55.33c3.91-.62,16.84-2.47,16.84-2.47A24.14,24.14,0,0,0,43.08,67.54a23.61,23.61,0,0,0,3.56-.27,25,25,0,0,0,21.1-21.36s12-2,16.41-2.63A41,41,0,0,1,43.2,84.16Z"/><path d="M43.2,0A43.2,43.2,0,1,0,86.4,43.2,43.2,43.2,0,0,0,43.2,0ZM4,53.9a40.58,40.58,0,0,1-1.07-5,43.66,43.66,0,0,1-.43-5L82.6,32a40.44,40.44,0,0,1,1.52,9.91Zm62.44-7.8a23.2,23.2,0,0,1-44,6.57Zm-46-6.37a23.12,23.12,0,0,1,10.46-16.4,23.56,23.56,0,0,1,32.35,7.9c.39.65.75,1.31,1.08,2ZM43.2,2.24a41,41,0,0,1,39,28.32L65.82,33a24.49,24.49,0,0,0-46.75,6.93L2.26,42.57A41,41,0,0,1,43.2,2.24Zm0,81.92A41,41,0,0,1,4.07,55.33c3.91-.62,16.84-2.47,16.84-2.47A24.14,24.14,0,0,0,43.08,67.54a23.61,23.61,0,0,0,3.56-.27,25,25,0,0,0,21.1-21.36s12-2,16.41-2.63A41,41,0,0,1,43.2,84.16Z"/><path d="M16.56,29.13a1.85,1.85,0,0,1-1.1.26A2.48,2.48,0,0,1,14.3,29L11,26.85l.58-.89,3.3,2.11a1.45,1.45,0,0,0,1,.25,1.21,1.21,0,0,0,.82-.58,1.18,1.18,0,0,0,.18-1,1.45,1.45,0,0,0-.67-.82l-3.29-2.11.58-.91,3.33,2.14a2.3,2.3,0,0,1,.85.88,2,2,0,0,1,.23,1.11,2.73,2.73,0,0,1-.43,1.19A2.57,2.57,0,0,1,16.56,29.13Z"/><path d="M19.15,25.46,14.7,21.39l1.6-1.75a2.52,2.52,0,0,1,.91-.65,1.69,1.69,0,0,1,1-.09,1.82,1.82,0,0,1,.91.47,1.89,1.89,0,0,1,.56.86,1.76,1.76,0,0,1,0,1,2.37,2.37,0,0,1-.56,1l-.91,1,1.66,1.52Zm-.78-3.74a1.19,1.19,0,0,0,.36-.82,1,1,0,0,0-1.11-1,1.21,1.21,0,0,0-.79.43l-.81.88,1.55,1.4Z"/><path d="M26.14,19.1l-.88.61-2.92-4.18-1.37,1-.53-.76,3.62-2.53.53.76-1.37,1Z"/><path d="M28.78,17.23a2.71,2.71,0,0,1-1.42-.57,3.66,3.66,0,0,1-1-1.37,3.67,3.67,0,0,1-.39-1.68,2.64,2.64,0,0,1,.47-1.45,3,3,0,0,1,1.25-1,3,3,0,0,1,1.58-.31,2.65,2.65,0,0,1,1.41.57,3.68,3.68,0,0,1,1.05,1.37,3.78,3.78,0,0,1,.38,1.68,2.67,2.67,0,0,1-.47,1.46,3.24,3.24,0,0,1-2.82,1.32Zm2-1.82a1.78,1.78,0,0,0,.26-1,2.8,2.8,0,0,0-.29-1.18,3,3,0,0,0-.72-1,1.81,1.81,0,0,0-.94-.44,1.93,1.93,0,0,0-1.81.85,1.71,1.71,0,0,0-.27,1,2.75,2.75,0,0,0,.3,1.19,2.75,2.75,0,0,0,.72,1,1.78,1.78,0,0,0,.94.44,1.89,1.89,0,0,0,1-.17A1.79,1.79,0,0,0,30.75,15.41Z"/><path d="M35.92,14.33A2.24,2.24,0,0,1,35,13l.92-.31a1.67,1.67,0,0,0,.55.86,1.16,1.16,0,0,0,.9.18,1,1,0,0,0,.81-.71,3.27,3.27,0,0,0,0-1.65,1.47,1.47,0,0,1-.47.58,1.89,1.89,0,0,1-.81.33,1.71,1.71,0,0,1-1.69-.64,2.2,2.2,0,0,1-.42-1,2.29,2.29,0,0,1,0-1.11,1.85,1.85,0,0,1,.58-.85,2.31,2.31,0,0,1,1-.46,1.91,1.91,0,0,1,1.67.38,3,3,0,0,1,.92,1.85,5.5,5.5,0,0,1,0,2.79,1.92,1.92,0,0,1-1.58,1.27A2.1,2.1,0,0,1,35.92,14.33ZM37.8,11a1.24,1.24,0,0,0,.13-.9,1.3,1.3,0,0,0-.45-.8,1,1,0,0,0-.83-.18,1,1,0,0,0-.67.47,1.29,1.29,0,0,0-.11.9,1.25,1.25,0,0,0,.43.79.89.89,0,0,0,.79.19A1,1,0,0,0,37.8,11Z"/><path d="M41.65,13.64a2.46,2.46,0,0,1-.84-1.09,4.53,4.53,0,0,1-.31-1.68,4.62,4.62,0,0,1,.26-1.69,2.56,2.56,0,0,1,.81-1.12,2.08,2.08,0,0,1,1.25-.41A2,2,0,0,1,44.06,8a2.44,2.44,0,0,1,.84,1.1,4.53,4.53,0,0,1,.31,1.68A4.56,4.56,0,0,1,45,12.49a2.56,2.56,0,0,1-.81,1.12A2.05,2.05,0,0,1,42.9,14,2.08,2.08,0,0,1,41.65,13.64Zm2.2-1.15a3.32,3.32,0,0,0,.34-1.67,3.37,3.37,0,0,0-.38-1.66,1.11,1.11,0,0,0-1-.6,1.1,1.1,0,0,0-1,.63,3.33,3.33,0,0,0-.33,1.67,3.37,3.37,0,0,0,.37,1.66,1.13,1.13,0,0,0,1,.6A1.09,1.09,0,0,0,43.85,12.49Z"/><path d="M48.06,14.09l1.37-5.87,2,.48a2.89,2.89,0,0,1,2,1.26,3.06,3.06,0,0,1,.24,2.35,3,3,0,0,1-1.25,2,3,3,0,0,1-2.33.27Zm2.22-.39a1.84,1.84,0,0,0,1.52-.21,2.3,2.3,0,0,0,.84-1.42,2.3,2.3,0,0,0-.13-1.65,1.79,1.79,0,0,0-1.26-.87l-1-.23-1,4.15Z"/><path d="M54,15.67l-1-.42,4.18-4.77,1.22.52-.52,6.32-1-.42.14-1.38-2.13-.9Zm3.45-4.1-2,2.37,1.75.74.3-3.1Z"/><path d="M60,18.67l-.9-.56,1.14-1.86L60.62,12l1,.59-.36,3.12h0l2.57-1.76,1,.6L61.15,16.8Z"/><path d="M62.59,20.39a2,2,0,0,1-.19-1.1,2.08,2.08,0,0,1,.43-1.06l.88.51a1.4,1.4,0,0,0,.22,2,1.26,1.26,0,0,0,.82.35.84.84,0,0,0,.67-.31.71.71,0,0,0,.17-.56,1.76,1.76,0,0,0-.33-.76l-.5-.73a2.43,2.43,0,0,1-.49-1.24,1.42,1.42,0,0,1,.39-1,1.72,1.72,0,0,1,.79-.56,1.62,1.62,0,0,1,1,0,2.53,2.53,0,0,1,1,.53,2.21,2.21,0,0,1,.63.82,1.67,1.67,0,0,1,.15.93,2,2,0,0,1-.36.91l-.88-.47a1.22,1.22,0,0,0,.28-.84,1,1,0,0,0-.38-.72,1,1,0,0,0-.7-.27.82.82,0,0,0-.61.3.68.68,0,0,0-.18.53,1.61,1.61,0,0,0,.31.71l.48.72a2.68,2.68,0,0,1,.55,1.29,1.45,1.45,0,0,1-.38,1.07,1.76,1.76,0,0,1-.84.58,1.8,1.8,0,0,1-1,0,2.76,2.76,0,0,1-1.06-.59A2.69,2.69,0,0,1,62.59,20.39Z"/><path d="M20.87,68.84A2.94,2.94,0,0,1,21,67.21a3.72,3.72,0,0,1,1-1.49,3.92,3.92,0,0,1,1.55-.94,2.79,2.79,0,0,1,1.59,0,2.94,2.94,0,0,1,1.38.87,2.61,2.61,0,0,1,.73,1.55,2.54,2.54,0,0,1-.39,1.64L26,68.2a1.71,1.71,0,0,0,.24-1,1.51,1.51,0,0,0-.4-.92,1.68,1.68,0,0,0-.89-.51,2,2,0,0,0-1.06.09,3,3,0,0,0-1.09.69A3,3,0,0,0,22,67.59a2,2,0,0,0-.13,1.11,2,2,0,0,0,.52,1,1.92,1.92,0,0,0,.85.55,1.81,1.81,0,0,0,1,0,2.18,2.18,0,0,0,.94-.51l-1.86-2,.58-.55L26.52,70l-.3.31a4,4,0,0,1-1.54.92,2.8,2.8,0,0,1-1.57,0,3.1,3.1,0,0,1-1.41-.9A3.34,3.34,0,0,1,20.87,68.84Z"/><path d="M26.37,74.11a2,2,0,0,1-.26-1.17,2.57,2.57,0,0,1,.45-1.23l2.3-3.49.94.62L27.51,72.3a1.52,1.52,0,0,0-.27,1.08,1.3,1.3,0,0,0,.6.88,1.24,1.24,0,0,0,1,.21,1.55,1.55,0,0,0,.89-.7L32,70.32,33,71l-2.31,3.49a2.67,2.67,0,0,1-.95.89,2.09,2.09,0,0,1-1.18.22,2.8,2.8,0,0,1-1.25-.47A2.76,2.76,0,0,1,26.37,74.11Z"/><path d="M31.63,77.29l-1.07-.41,4.29-5.18,1.3.51-.36,6.71-1.07-.42.1-1.45-2.28-.89Zm3.52-4.44-2.09,2.57,1.87.73.24-3.29Z"/><path d="M37.34,79.28l1-6.3,2.58.4A2.83,2.83,0,0,1,42,73.8a1.84,1.84,0,0,1,.68.79,1.79,1.79,0,0,1,.12,1,1.67,1.67,0,0,1-.53,1,1.82,1.82,0,0,1-1.07.45l.91,3-1.2-.18-.79-2.74-1.3-.2-.4,2.55Zm3-3a1.35,1.35,0,0,0,.91-.15.9.9,0,0,0,.44-.67.93.93,0,0,0-.21-.8,1.28,1.28,0,0,0-.82-.42L39.3,74l-.32,2Z"/><path d="M44.64,80.06l-1.14.07,1.73-6.5,1.4-.08L49.1,79.8,48,79.87l-.51-1.37L45,78.64ZM46,74.56l-.82,3.2,2-.12L46,74.55Z"/><path d="M51.7,79.2l-1,.3L48.9,73.37l1.37-.4L54,77.1h0l-1.39-4.81,1-.3,1.77,6.13-1.37.39-3.77-4.11h0Z"/><path d="M59.48,76.14l-1,.53L55.94,71.9l-1.56.84-.46-.87,4.13-2.2.46.87-1.57.83Z"/><path d="M65.39,72l-3.13,2.5-4-5L61.35,67l.58.74-2.21,1.76,1.08,1.35,1.93-1.53.53.67-1.93,1.53L62.52,73l2.29-1.81Z"/><path d="M69.14,67.86l-2.64,3-4.79-4.21,2.58-2.94.7.61-1.86,2.13,1.3,1.14,1.63-1.85.64.56-1.62,1.86,1.44,1.26,1.92-2.19Z"/><path d="M70.14,66.55l-5.55-3.16,1.09-1.92a3.15,3.15,0,0,1,1.87-1.62,3.3,3.3,0,0,1,2.46.46,3.24,3.24,0,0,1,1.65,1.87,3.13,3.13,0,0,1-.44,2.45Zm.27-2.38a2,2,0,0,0,.24-1.6,2.44,2.44,0,0,0-1.2-1.28,2.47,2.47,0,0,0-1.71-.37,1.93,1.93,0,0,0-1.26,1l-.53.94,3.92,2.23Z"/><path d="M21.48,48.49l-1.31.18L18,43.42l1-.14,1.72,4.34h0L21.08,43l1.28-.18,1.69,4.34h0l.39-4.65,1-.15L24.85,48l-1.31.19L21.89,43.9h0Z"/><path d="M28,47.35a2.57,2.57,0,0,1-1.12-.87,3.62,3.62,0,0,1-.44-3,2.52,2.52,0,0,1,.82-1.15,3.15,3.15,0,0,1,2.91-.42,2.49,2.49,0,0,1,1.11.87,3.26,3.26,0,0,1,.56,1.47,3.38,3.38,0,0,1-.12,1.57,2.36,2.36,0,0,1-.82,1.16,3.13,3.13,0,0,1-2.9.42Zm2.27-1.08a1.71,1.71,0,0,0,.51-.81,2.39,2.39,0,0,0,.07-1.11,2.57,2.57,0,0,0-.38-1.06,1.67,1.67,0,0,0-.72-.63,1.73,1.73,0,0,0-1-.12,1.68,1.68,0,0,0-.89.39,1.65,1.65,0,0,0-.52.81,2.81,2.81,0,0,0,.32,2.17,1.67,1.67,0,0,0,.72.63,1.76,1.76,0,0,0,1,.12A1.68,1.68,0,0,0,30.23,46.27Z"/><path d="M33.19,46.78l-.79-5.45L34.69,41a2.52,2.52,0,0,1,1.07,0,1.63,1.63,0,0,1,.78.47,1.58,1.58,0,0,1,.37.83,1.38,1.38,0,0,1-.2.95,1.49,1.49,0,0,1-.78.65l1.53,2.21-1.07.16L35,44.26l-1.16.17.32,2.21ZM35,43.53a1.2,1.2,0,0,0,.73-.35.85.85,0,0,0-.19-1.28,1.15,1.15,0,0,0-.8-.13L33.5,42l.26,1.76Z"/><path d="M38.47,46l-.8-5.46,2.3-.33a2.48,2.48,0,0,1,1.06.05,1.57,1.57,0,0,1,.78.48,1.55,1.55,0,0,1,.37.82,1.41,1.41,0,0,1-.19,1,1.53,1.53,0,0,1-.79.64l1.53,2.22-1.06.15-1.37-2-1.17.17.32,2.21Zm1.79-3.26a1.12,1.12,0,0,0,.73-.35.78.78,0,0,0,.2-.67.82.82,0,0,0-.38-.61A1.23,1.23,0,0,0,40,41l-1.24.18L39,42.94Z"/><path d="M45.86,45l-1,.14-.29-2L42.3,39.89l1-.15,1.6,2.4h0l.8-2.75,1.07-.16L45.57,43Z"/><path d="M50,41.77l-2.48.36-.09-.66,2.47-.36Z"/><path d="M52.46,44l-1,.14-.79-5.46L54,38.2l.12.84-2.28.33L52,41l1.82-.26.11.75-1.82.26Z"/><path d="M55.64,43.52l-.79-5.45,2.29-.33a2.52,2.52,0,0,1,1.07,0,1.63,1.63,0,0,1,.78.47,1.58,1.58,0,0,1,.37.83,1.38,1.38,0,0,1-.2.95,1.53,1.53,0,0,1-.78.65l1.53,2.21-1.07.16L57.47,41l-1.16.17.32,2.21Zm1.8-3.25a1.2,1.2,0,0,0,.73-.35A.85.85,0,0,0,58,38.64a1.16,1.16,0,0,0-.8-.13L56,38.69l.25,1.76Z"/><path d="M64.43,42.25l-3.52.51-.79-5.46,3.44-.5.12.8L61.19,38l.22,1.49,2.17-.32.1.74-2.16.31.23,1.64,2.57-.37Z"/><path d="M68.88,41.6l-3.52.51-.79-5.45,3.44-.5.12.8-2.49.36.22,1.48L68,38.49l.1.73L66,39.53l.23,1.64,2.57-.37Z"/></g></g></svg>