<svg id="_90day" data-name="90day" xmlns="http://www.w3.org/2000/svg" width="100" height="100" viewBox="0 0 100 100">
  <g id="Layer_1" data-name="Layer 1">
    <path id="Path_1311" data-name="Path 1311" d="M50,0a50,50,0,1,0,50,50A50,50,0,0,0,50,0ZM4.63,62.384A46.969,46.969,0,0,1,3.391,56.6a50.533,50.533,0,0,1-.5-5.787L95.6,37.037a46.806,46.806,0,0,1,1.759,11.47ZM76.9,53.356a26.852,26.852,0,0,1-50.926,7.6ZM23.657,45.984A26.759,26.759,0,0,1,35.764,27a27.269,27.269,0,0,1,37.442,9.144c.451.752.868,1.516,1.25,2.315ZM50,2.593A47.454,47.454,0,0,1,95.139,35.37L76.181,38.194a28.345,28.345,0,0,0-54.109,8.021L2.616,49.271A47.454,47.454,0,0,1,50,2.593Zm0,94.815A47.454,47.454,0,0,1,4.711,64.039C9.236,63.322,24.2,61.181,24.2,61.181a27.94,27.94,0,0,0,25.66,16.991,27.326,27.326,0,0,0,4.12-.312A28.935,28.935,0,0,0,78.4,53.137S92.292,50.822,97.4,50.093A47.454,47.454,0,0,1,50,97.407Z"/>
    <path id="Path_1312" data-name="Path 1312" d="M50,0a50,50,0,1,0,50,50A50,50,0,0,0,50,0ZM4.63,62.384A46.969,46.969,0,0,1,3.391,56.6a50.533,50.533,0,0,1-.5-5.787L95.6,37.037a46.806,46.806,0,0,1,1.759,11.47ZM76.9,53.356a26.852,26.852,0,0,1-50.926,7.6ZM23.657,45.984A26.759,26.759,0,0,1,35.764,27a27.269,27.269,0,0,1,37.442,9.144c.451.752.868,1.516,1.25,2.315ZM50,2.593A47.454,47.454,0,0,1,95.139,35.37L76.181,38.194a28.345,28.345,0,0,0-54.109,8.021L2.616,49.271A47.454,47.454,0,0,1,50,2.593Zm0,94.815A47.454,47.454,0,0,1,4.711,64.039C9.236,63.322,24.2,61.181,24.2,61.181a27.94,27.94,0,0,0,25.66,16.991,27.326,27.326,0,0,0,4.12-.312A28.935,28.935,0,0,0,78.4,53.137S92.292,50.822,97.4,50.093A47.454,47.454,0,0,1,50,97.407Z"/>
    <path id="Path_1313" data-name="Path 1313" d="M17.35,30.015a2.113,2.113,0,0,1-1.256.3,2.832,2.832,0,0,1-1.325-.445L11,27.411l.662-1.016,3.769,2.41a1.656,1.656,0,0,0,1.142.286,1.382,1.382,0,0,0,.937-.662,1.348,1.348,0,0,0,.206-1.142,1.656,1.656,0,0,0-.765-.937l-3.757-2.41.662-1.039,3.8,2.444a2.627,2.627,0,0,1,.971,1.005,2.284,2.284,0,0,1,.263,1.268,3.118,3.118,0,0,1-.491,1.359,2.935,2.935,0,0,1-1.051,1.039Z" transform="translate(1.563 3.633)"/>
    <path id="Path_1314" data-name="Path 1314" d="M19.782,26.4,14.7,21.749l1.827-2a2.878,2.878,0,0,1,1.039-.742,1.93,1.93,0,0,1,1.142-.1,2.079,2.079,0,0,1,1.039.537,2.159,2.159,0,0,1,.64.982,2.01,2.01,0,0,1,0,1.142,2.707,2.707,0,0,1-.64,1.142l-1.039,1.142,1.9,1.736Zm-.891-4.271a1.359,1.359,0,0,0,.411-.937,1.142,1.142,0,0,0-1.268-1.142,1.382,1.382,0,0,0-.9.491l-.925,1.005,1.77,1.6Z" transform="translate(2.328 2.993)"/>
    <path id="Path_1315" data-name="Path 1315" d="M26.95,19.933l-1.005.7L22.61,15.855,21.045,17l-.605-.868,4.134-2.889.605.868L23.615,15.25Z" transform="translate(3.24 2.1)"/>
    <path id="Path_1316" data-name="Path 1316" d="M29.179,18.138a3.1,3.1,0,0,1-1.622-.651,4.18,4.18,0,0,1-1.142-1.565A4.192,4.192,0,0,1,25.97,14a3.015,3.015,0,0,1,.537-1.656,3.849,3.849,0,0,1,3.232-1.5,3.027,3.027,0,0,1,1.61.651,4.2,4.2,0,0,1,1.2,1.565,4.317,4.317,0,0,1,.434,1.919,3.049,3.049,0,0,1-.537,1.667,3.7,3.7,0,0,1-3.221,1.508Zm2.284-2.079a2.033,2.033,0,0,0,.3-1.142,3.2,3.2,0,0,0-.331-1.348,3.426,3.426,0,0,0-.822-1.142,2.067,2.067,0,0,0-1.074-.5,2.2,2.2,0,0,0-2.067.971,1.953,1.953,0,0,0-.308,1.142A3.141,3.141,0,0,0,27.5,15.4a3.141,3.141,0,0,0,.822,1.142,2.033,2.033,0,0,0,1.074.5,2.159,2.159,0,0,0,1.142-.194,2.044,2.044,0,0,0,.891-.788Z" transform="translate(4.118 1.54)"/>
    <path id="Path_1317" data-name="Path 1317" d="M36.09,15.206a2.558,2.558,0,0,1-1.051-1.519l1.051-.354a1.907,1.907,0,0,0,.628.982,1.325,1.325,0,0,0,1.028.206,1.142,1.142,0,0,0,.925-.811,3.735,3.735,0,0,0,0-1.884,1.679,1.679,0,0,1-.537.662,2.159,2.159,0,0,1-.925.377,1.953,1.953,0,0,1-1.93-.731,2.513,2.513,0,0,1-.48-1.142,2.615,2.615,0,0,1,0-1.268,2.113,2.113,0,0,1,.662-.971A2.638,2.638,0,0,1,36.6,8.228a2.181,2.181,0,0,1,1.907.434,3.426,3.426,0,0,1,1.051,2.113,6.282,6.282,0,0,1,0,3.186,2.193,2.193,0,0,1-1.8,1.45,2.4,2.4,0,0,1-1.667-.206Zm2.147-3.8a1.416,1.416,0,0,0,.148-1.028,1.485,1.485,0,0,0-.514-.914,1.187,1.187,0,0,0-1.713.331,1.473,1.473,0,0,0-.126,1.028,1.428,1.428,0,0,0,.491.9,1.016,1.016,0,0,0,.9.217A1.142,1.142,0,0,0,38.237,11.4Z" transform="translate(5.494 1.16)"/>
    <path id="Path_1318" data-name="Path 1318" d="M41.814,14.492a2.81,2.81,0,0,1-.959-1.245,5.174,5.174,0,0,1-.354-1.919,5.276,5.276,0,0,1,.3-1.93,2.924,2.924,0,0,1,.925-1.279A2.376,2.376,0,0,1,43.15,7.65a2.284,2.284,0,0,1,1.416.4,2.787,2.787,0,0,1,.959,1.256,5.174,5.174,0,0,1,.354,1.919,5.208,5.208,0,0,1-.24,1.953,2.924,2.924,0,0,1-.925,1.279,2.341,2.341,0,0,1-1.473.445,2.376,2.376,0,0,1-1.428-.411Zm2.513-1.313a3.792,3.792,0,0,0,.388-1.907,3.849,3.849,0,0,0-.434-1.9A1.28,1.28,0,0,0,42,9.409a3.8,3.8,0,0,0-.377,1.907,3.849,3.849,0,0,0,.423,1.9,1.291,1.291,0,0,0,1.142.685,1.245,1.245,0,0,0,1.142-.72Z" transform="translate(6.41 1.087)"/>
    <path id="Path_1319" data-name="Path 1319" d="M48.06,14.924l1.565-6.7,2.284.548a3.3,3.3,0,0,1,2.284,1.439,3.5,3.5,0,0,1,.274,2.684,3.426,3.426,0,0,1-1.428,2.284,3.426,3.426,0,0,1-2.661.308Zm2.535-.445a2.1,2.1,0,0,0,1.736-.24,2.627,2.627,0,0,0,.959-1.622,2.627,2.627,0,0,0-.148-1.884A2.044,2.044,0,0,0,51.7,9.739l-1.142-.263-1.142,4.74Z" transform="translate(7.617 1.168)"/>
    <path id="Path_1320" data-name="Path 1320" d="M54.142,16.407,53,15.928l4.774-5.448,1.393.594-.594,7.218-1.142-.48.16-1.576-2.433-1.028Zm3.94-4.683L55.8,14.432l2,.845.343-3.54Z" transform="translate(8.397 1.489)"/>
    <path id="Path_1321" data-name="Path 1321" d="M60.128,19.618l-1.028-.64,1.3-2.124L60.836,12l1.142.674-.411,3.563h0l2.935-2.01,1.142.685-4.2,2.57Z" transform="translate(9.367 1.705)"/>
    <path id="Path_1322" data-name="Path 1322" d="M62.619,21.035a2.284,2.284,0,0,1-.217-1.256,2.376,2.376,0,0,1,.491-1.211l1.005.582a1.6,1.6,0,0,0,.251,2.284,1.439,1.439,0,0,0,.937.4.959.959,0,0,0,.765-.354.811.811,0,0,0,.194-.64,2.01,2.01,0,0,0-.377-.868l-.571-.834a2.775,2.775,0,0,1-.56-1.416,1.622,1.622,0,0,1,.445-1.142,1.964,1.964,0,0,1,.9-.64,1.85,1.85,0,0,1,1.142,0,2.89,2.89,0,0,1,1.142.605,2.524,2.524,0,0,1,.72.937,1.907,1.907,0,0,1,.171,1.062,2.284,2.284,0,0,1-.411,1.039l-1.005-.537a1.393,1.393,0,0,0,.32-.959,1.273,1.273,0,0,0-1.233-1.131.937.937,0,0,0-.7.343.777.777,0,0,0-.206.605,1.839,1.839,0,0,0,.354.811l.548.822a3.061,3.061,0,0,1,.628,1.473,1.656,1.656,0,0,1-.434,1.222,2.01,2.01,0,0,1-.959.662,2.056,2.056,0,0,1-1.142,0,3.152,3.152,0,0,1-1.211-.674,3.072,3.072,0,0,1-.994-1.188Z" transform="translate(9.89 2.514)"/>
    <path id="Path_1323" data-name="Path 1323" d="M20.879,69.433a3.358,3.358,0,0,1,.148-1.862,4.249,4.249,0,0,1,1.142-1.7,4.477,4.477,0,0,1,1.77-1.074,3.187,3.187,0,0,1,1.816,0,3.358,3.358,0,0,1,1.576.994,2.981,2.981,0,0,1,.834,1.77,2.9,2.9,0,0,1-.445,1.873l-.982-.731a1.953,1.953,0,0,0,.274-1.142,1.725,1.725,0,0,0-.457-1.051,1.919,1.919,0,0,0-1.016-.582,2.284,2.284,0,0,0-1.211.1,4.258,4.258,0,0,0-2.159,1.976,2.183,2.183,0,0,0,.445,2.41,2.193,2.193,0,0,0,.971.628,2.067,2.067,0,0,0,1.142,0,2.49,2.49,0,0,0,1.074-.582l-2.124-2.284.662-.628,2.992,3.209-.343.354a4.568,4.568,0,0,1-1.759,1.051,3.2,3.2,0,0,1-1.793,0,3.541,3.541,0,0,1-1.61-1.028,3.815,3.815,0,0,1-.948-1.7Z" transform="translate(3.301 10.262)"/>
    <path id="Path_1324" data-name="Path 1324" d="M26.408,74.947a2.284,2.284,0,0,1-.3-1.336,2.935,2.935,0,0,1,.514-1.4l2.627-3.986,1.074.708L27.71,72.88a1.736,1.736,0,0,0-.308,1.233,1.485,1.485,0,0,0,.685,1.005,1.416,1.416,0,0,0,1.142.24,1.77,1.77,0,0,0,1.016-.8l2.593-3.94,1.142.777-2.638,3.986A3.049,3.049,0,0,1,30.257,76.4a2.387,2.387,0,0,1-1.348.251,3.2,3.2,0,0,1-1.428-.537A3.152,3.152,0,0,1,26.408,74.947Z" transform="translate(4.143 11.017)"/>
    <path id="Path_1325" data-name="Path 1325" d="M31.782,78.084l-1.222-.468,4.9-5.916,1.485.582-.411,7.663-1.222-.48.114-1.656-2.6-1.016Zm4.02-5.071-2.387,2.935,2.136.834.274-3.757Z" transform="translate(4.843 11.511)"/>
    <path id="Path_1326" data-name="Path 1326" d="M37.34,80.175l1.142-7.2,2.947.457a3.232,3.232,0,0,1,1.233.48,2.1,2.1,0,0,1,.777.9,2.044,2.044,0,0,1,.137,1.142,1.907,1.907,0,0,1-.605,1.142,2.079,2.079,0,0,1-1.222.514l1.039,3.426-1.371-.206-.9-3.129L39.03,77.48l-.457,2.912Zm3.426-3.426a1.542,1.542,0,0,0,1.039-.171,1.028,1.028,0,0,0,.5-.765,1.062,1.062,0,0,0-.24-.914,1.462,1.462,0,0,0-.937-.48l-1.553-.274-.365,2.284Z" transform="translate(5.916 11.693)"/>
    <path id="Path_1327" data-name="Path 1327" d="M44.8,80.985l-1.3.08,1.976-7.424,1.6-.091L49.9,80.688l-1.256.08L48.057,79.2l-2.844.16ZM46.355,74.7l-.937,3.655,2.284-.137-1.348-3.529Z" transform="translate(6.893 11.774)"/>
    <path id="Path_1328" data-name="Path 1328" d="M52.1,80.224l-1.142.343-2.056-7,1.565-.457,4.26,4.717h0l-1.588-5.493,1.142-.343,2.022,7-1.565.445L50.43,74.742h0Z" transform="translate(7.758 11.552)"/>
    <path id="Path_1329" data-name="Path 1329" d="M60.27,77.059l-1.142.605-2.9-5.448-1.782.959-.525-.994,4.717-2.513.525.994-1.793.948Z" transform="translate(8.544 11.223)"/>
    <path id="Path_1330" data-name="Path 1330" d="M66.4,72.71l-3.575,2.855-4.568-5.71L61.789,67l.662.845-2.524,2.01L61.161,71.4l2.2-1.747.605.765-2.2,1.747,1.359,1.69,2.615-2.067Z" transform="translate(9.251 10.843)"/>
    <path id="Path_1331" data-name="Path 1331" d="M70.2,68.45l-3.015,3.426L61.71,67.068l2.947-3.358.8.7-2.124,2.433,1.485,1.3,1.862-2.113.731.64-1.85,2.124L67.2,70.231l2.193-2.5Z" transform="translate(9.803 10.116)"/>
    <path id="Path_1332" data-name="Path 1332" d="M70.929,67.512,64.59,63.9l1.245-2.193a3.6,3.6,0,0,1,2.136-1.85,3.769,3.769,0,0,1,2.81.525,3.7,3.7,0,0,1,1.884,2.136,3.575,3.575,0,0,1-.5,2.8Zm.308-2.718a2.284,2.284,0,0,0,.274-1.827A2.787,2.787,0,0,0,70.141,61.5a2.821,2.821,0,0,0-1.953-.423,2.2,2.2,0,0,0-1.439,1.142L66.143,63.3l4.477,2.547Z" transform="translate(10.256 9.488)"/>
    <path id="Path_1333" data-name="Path 1333" d="M21.974,49.361l-1.5.206-2.478-6,1.142-.16,1.964,4.957h0l.411-5.276,1.462-.206,1.93,4.957h0l.445-5.311L26.5,42.36,25.823,48.8l-1.5.217-1.884-4.9h0Z" transform="translate(2.859 6.719)"/>
    <path id="Path_1334" data-name="Path 1334" d="M28.243,48.149a2.935,2.935,0,0,1-1.279-.994,4.134,4.134,0,0,1-.5-3.426,2.878,2.878,0,0,1,.937-1.313,3.6,3.6,0,0,1,3.323-.48,2.844,2.844,0,0,1,1.268.994,3.723,3.723,0,0,1,.64,1.679,3.86,3.86,0,0,1-.137,1.793,2.7,2.7,0,0,1-.937,1.325,3.575,3.575,0,0,1-3.312.48Zm2.593-1.233a1.953,1.953,0,0,0,.582-.925,2.73,2.73,0,0,0,.08-1.268,2.935,2.935,0,0,0-.434-1.211,1.907,1.907,0,0,0-.822-.72,1.976,1.976,0,0,0-1.142-.137,1.919,1.919,0,0,0-1.016.445,1.884,1.884,0,0,0-.594.925,3.209,3.209,0,0,0,.365,2.478,1.907,1.907,0,0,0,.822.72,2.01,2.01,0,0,0,1.142.137,1.919,1.919,0,0,0,.971-.445Z" transform="translate(4.166 6.615)"/>
    <path id="Path_1335" data-name="Path 1335" d="M33.3,47.609l-.9-6.224,2.615-.377a2.878,2.878,0,0,1,1.222,0,1.862,1.862,0,0,1,.891.537,1.8,1.8,0,0,1,.423.948,1.576,1.576,0,0,1-.228,1.085,1.7,1.7,0,0,1-.891.742l1.747,2.524-1.222.183-1.588-2.3-1.325.194.365,2.524ZM35.369,43.9a1.371,1.371,0,0,0,.834-.4.971.971,0,0,0-.217-1.462,1.313,1.313,0,0,0-.914-.148l-1.416.263.3,2.01Z" transform="translate(5.131 6.49)"/>
    <path id="Path_1336" data-name="Path 1336" d="M38.584,46.828l-.914-6.236,2.627-.377a2.832,2.832,0,0,1,1.211.057,1.793,1.793,0,0,1,.891.548,1.77,1.77,0,0,1,.423.937A1.61,1.61,0,0,1,42.6,42.9a1.747,1.747,0,0,1-.9.731l1.747,2.535-1.211.171-1.565-2.284-1.336.194.365,2.524ZM40.628,43.1a1.279,1.279,0,0,0,.834-.4.891.891,0,0,0,.228-.765.937.937,0,0,0-.434-.7,1.4,1.4,0,0,0-.925-.126l-1.416.206.274,2.01Z" transform="translate(5.965 6.368)"/>
    <path id="Path_1337" data-name="Path 1337" d="M46.366,45.82l-1.142.16L44.893,43.7,42.3,39.984l1.142-.171,1.827,2.741h0l.914-3.141,1.222-.183-1.371,4.306Z" transform="translate(6.694 6.219)"/>
    <path id="Path_1338" data-name="Path 1338" d="M50.365,41.864l-2.832.411-.1-.754,2.821-.411Z" transform="translate(7.488 6.479)"/>
    <path id="Path_1339" data-name="Path 1339" d="M52.714,44.824l-1.142.16-.9-6.236,3.8-.548.137.959-2.6.377.183,1.862,2.079-.3.126.857-2.079.3Z" transform="translate(8.008 6.056)"/>
    <path id="Path_1340" data-name="Path 1340" d="M55.752,44.349l-.9-6.224,2.615-.377a2.878,2.878,0,0,1,1.222,0,1.862,1.862,0,0,1,.891.537,1.8,1.8,0,0,1,.423.948,1.576,1.576,0,0,1-.228,1.085,1.747,1.747,0,0,1-.891.742l1.747,2.524-1.222.183-1.565-2.3-1.325.194.365,2.524Zm2.056-3.712a1.371,1.371,0,0,0,.834-.4.971.971,0,0,0-.194-1.462,1.325,1.325,0,0,0-.914-.148l-1.371.206.286,2.01Z" transform="translate(8.686 5.973)"/>
    <path id="Path_1341" data-name="Path 1341" d="M65.042,43.024l-4.02.582-.9-6.236,3.929-.571.137.914-2.844.457.251,1.7,2.478-.365.114.845-2.467.354.263,1.873,2.935-.423Z" transform="translate(9.512 5.834)"/>
    <path id="Path_1342" data-name="Path 1342" d="M69.492,42.373l-4.02.582-.9-6.224L68.5,36.16l.137.914-2.844.411.251,1.69,2.444-.354.114.834-2.4.354.263,1.873,2.935-.423Z" transform="translate(10.216 5.733)"/>
  </g>
</svg>
