<?xml version="1.0" encoding="UTF-8"?>
<svg width="93px" height="92px" viewBox="0 0 93 92" version="1.1" xmlns="http://www.w3.org/2000/svg" xmlns:xlink="http://www.w3.org/1999/xlink">
    <title>ELEMENT / DESKTOP / MESSAGE / BRANDED FORTUNE / TWO LINES Copy 5</title>
    <g id="Page-1" stroke="none" stroke-width="1" fill="none" fill-rule="evenodd">
        <g id="ELEMENT-/-DESKTOP-/-MESSAGE-/-BRANDED-FORTUNE-/-TWO-LINES-Copy-5" transform="translate(0.501592, 0.000000)">
            <g id="SHAPE-/-SPARKLE-/-GREEN" fill="#FFFFFF">
                <path d="M47.0971189,0 L44.9467659,0 C33.7122687,19.7720841 19.7393627,33.7128107 0,44.9445507 L0,46.985086 C19.7656936,58.2344168 33.7473765,72.2015296 44.9818737,92 L47.0620111,92 C58.2965083,72.2015296 72.2343064,58.1904398 92,46.9499044 L92,44.9797323 C72.2606373,33.7479924 58.3316161,19.7632887 47.0971189,0" id="Path"></path>
            </g>
            <path d="M38.2315202,42.088 C38.8545602,42.088 39.3376802,41.95204 39.6808802,41.68012 C40.0240802,41.4082 40.1956802,41.02408 40.1956802,40.52776 C40.1956802,40.16872 40.1032802,39.87568 39.9184802,39.64864 C39.7336802,39.4216 39.4696802,39.27376 39.1264802,39.20512 L39.1264802,39.20512 C39.4168802,39.12592 39.6426002,38.98204 39.8036402,38.77348 C39.9646802,38.56492 40.0452002,38.30752 40.0452002,38.00128 C40.0452002,37.51552 39.8841602,37.13932 39.5620802,36.87268 C39.2400002,36.60604 38.7859202,36.47272 38.1998402,36.47272 L38.1998402,36.47272 L35.4912002,36.47272 L35.4912002,42.088 L38.2315202,42.088 Z M38.0572802,38.85664 L36.4732802,38.85664 L36.4732802,37.2568 L38.0572802,37.2568 C38.3740802,37.2568 38.6209202,37.32676 38.7978002,37.46668 C38.9746802,37.6066 39.0631202,37.80328 39.0631202,38.05672 C39.0631202,38.31016 38.9760002,38.50684 38.8017602,38.64676 C38.6275202,38.78668 38.3793602,38.85664 38.0572802,38.85664 L38.0572802,38.85664 Z M38.0731202,41.30392 L36.4732802,41.30392 L36.4732802,39.56944 L38.0731202,39.56944 C38.4321602,39.56944 38.7120002,39.646 38.9126402,39.79912 C39.1132802,39.95224 39.2136002,40.16608 39.2136002,40.44064 C39.2136002,40.7152 39.1146002,40.92772 38.9166002,41.0782 C38.7186002,41.22868 38.4374402,41.30392 38.0731202,41.30392 L38.0731202,41.30392 Z M45.6961201,42.088 L45.6961201,41.26432 L42.6786001,41.26432 L42.6786001,39.57736 L45.3001201,39.57736 L45.3001201,38.82496 L42.6786001,38.82496 L42.6786001,37.2964 L45.6169201,37.2964 L45.6169201,36.47272 L41.7282001,36.47272 L41.7282001,42.088 L45.6961201,42.088 Z M49.38288,42.286 C49.8264,42.286 50.21976,42.20944 50.56296,42.05632 C50.90616,41.9032 51.17148,41.68936 51.35892,41.4148 C51.54636,41.14024 51.64008,40.8208 51.64008,40.45648 C51.64008,40.03936 51.49752,39.70144 51.2124,39.44272 C50.92728,39.184 50.49168,38.99656 49.9056,38.8804 L49.9056,38.8804 L49.05024,38.70616 C48.72816,38.63752 48.4932,38.54116 48.34536,38.41708 C48.19752,38.293 48.1236,38.13064 48.1236,37.93 C48.1236,37.67656 48.2226,37.468 48.4206,37.30432 C48.6186,37.14064 48.88128,37.0588 49.20864,37.0588 C49.52544,37.0588 49.79208,37.15384 50.00856,37.34392 C50.22504,37.534 50.35176,37.78216 50.38872,38.0884 L50.38872,38.0884 L51.29952,37.88248 C51.252,37.56568 51.13188,37.28584 50.93916,37.04296 C50.74644,36.80008 50.50092,36.61132 50.2026,36.47668 C49.90428,36.34204 49.57296,36.27472 49.20864,36.27472 C48.80736,36.27472 48.45096,36.34864 48.13944,36.49648 C47.82792,36.64432 47.58504,36.85156 47.4108,37.1182 C47.23656,37.38484 47.14944,37.6924 47.14944,38.04088 C47.14944,38.44744 47.28012,38.77348 47.54148,39.019 C47.80284,39.26452 48.21072,39.44536 48.76512,39.56152 L48.76512,39.56152 L49.61256,39.74368 C49.98216,39.82288 50.25144,39.92848 50.4204,40.06048 C50.58936,40.19248 50.67384,40.36672 50.67384,40.5832 C50.67384,40.85248 50.559,41.07292 50.32932,41.24452 C50.09964,41.41612 49.79208,41.50192 49.40664,41.50192 C49.12152,41.50192 48.8628,41.44648 48.63048,41.3356 C48.39816,41.22472 48.21072,41.06896 48.06816,40.86832 C47.9256,40.66768 47.84376,40.44064 47.82264,40.1872 L47.82264,40.1872 L46.896,40.36144 C46.93824,40.74688 47.07156,41.0848 47.29596,41.3752 C47.52036,41.6656 47.8134,41.89 48.17508,42.0484 C48.53676,42.2068 48.93936,42.286 49.38288,42.286 Z M55.2317999,42.088 L55.2317999,37.336 L57.0137999,37.336 L57.0137999,36.47272 L52.4597999,36.47272 L52.4597999,37.336 L54.2497199,37.336 L54.2497199,42.088 L55.2317999,42.088 Z M32.6004002,53.374 C33.0439202,53.374 33.4372802,53.29744 33.7804802,53.14432 C34.1236802,52.9912 34.3890002,52.77736 34.5764402,52.5028 C34.7638802,52.22824 34.8576002,51.9088 34.8576002,51.54448 C34.8576002,51.12736 34.7150402,50.78944 34.4299202,50.53072 C34.1448002,50.272 33.7092002,50.08456 33.1231202,49.9684 L33.1231202,49.9684 L32.2677602,49.79416 C31.9456802,49.72552 31.7107202,49.62916 31.5628802,49.50508 C31.4150402,49.381 31.3411202,49.21864 31.3411202,49.018 C31.3411202,48.76456 31.4401202,48.556 31.6381202,48.39232 C31.8361202,48.22864 32.0988002,48.1468 32.4261602,48.1468 C32.7429602,48.1468 33.0096002,48.24184 33.2260802,48.43192 C33.4425602,48.622 33.5692802,48.87016 33.6062402,49.1764 L33.6062402,49.1764 L34.5170402,48.97048 C34.4695202,48.65368 34.3494002,48.37384 34.1566802,48.13096 C33.9639602,47.88808 33.7184402,47.69932 33.4201202,47.56468 C33.1218002,47.43004 32.7904802,47.36272 32.4261602,47.36272 C32.0248802,47.36272 31.6684802,47.43664 31.3569602,47.58448 C31.0454402,47.73232 30.8025602,47.93956 30.6283202,48.2062 C30.4540802,48.47284 30.3669602,48.7804 30.3669602,49.12888 C30.3669602,49.53544 30.4976402,49.86148 30.7590002,50.107 C31.0203602,50.35252 31.4282402,50.53336 31.9826402,50.64952 L31.9826402,50.64952 L32.8300802,50.83168 C33.1996802,50.91088 33.4689602,51.01648 33.6379202,51.14848 C33.8068802,51.28048 33.8913602,51.45472 33.8913602,51.6712 C33.8913602,51.94048 33.7765202,52.16092 33.5468402,52.33252 C33.3171602,52.50412 33.0096002,52.58992 32.6241602,52.58992 C32.3390402,52.58992 32.0803202,52.53448 31.8480002,52.4236 C31.6156802,52.31272 31.4282402,52.15696 31.2856802,51.95632 C31.1431202,51.75568 31.0612802,51.52864 31.0401602,51.2752 L31.0401602,51.2752 L30.1135202,51.44944 C30.1557602,51.83488 30.2890802,52.1728 30.5134802,52.4632 C30.7378802,52.7536 31.0309202,52.978 31.3926002,53.1364 C31.7542802,53.2948 32.1568802,53.374 32.6004002,53.374 Z M40.2788402,53.176 L40.2788402,52.35232 L37.2613202,52.35232 L37.2613202,50.66536 L39.8828402,50.66536 L39.8828402,49.91296 L37.2613202,49.91296 L37.2613202,48.3844 L40.1996402,48.3844 L40.1996402,47.56072 L36.3109202,47.56072 L36.3109202,53.176 L40.2788402,53.176 Z M45.3674401,53.176 L45.3674401,52.32064 L42.7538401,52.32064 L42.7538401,47.56072 L41.7717601,47.56072 L41.7717601,53.176 L45.3674401,53.176 Z M50.37684,53.176 L50.37684,52.32064 L47.76324,52.32064 L47.76324,47.56072 L46.78116,47.56072 L46.78116,53.176 L50.37684,53.176 Z M55.7584799,53.176 L55.7584799,52.35232 L52.7409599,52.35232 L52.7409599,50.66536 L55.3624799,50.66536 L55.3624799,49.91296 L52.7409599,49.91296 L52.7409599,48.3844 L55.6792799,48.3844 L55.6792799,47.56072 L51.7905599,47.56072 L51.7905599,53.176 L55.7584799,53.176 Z M58.2334798,53.176 L58.2334798,50.92672 L59.6115598,50.92672 L60.7995598,53.176 L61.8925198,53.176 L60.5619598,50.74456 C60.9896398,50.67064 61.3301998,50.4964 61.5836398,50.22184 C61.8370798,49.94728 61.9637998,49.61464 61.9637998,49.22392 C61.9637998,48.89656 61.8779998,48.60748 61.7063998,48.35668 C61.5347998,48.10588 61.2919198,47.91052 60.9777598,47.7706 C60.6635998,47.63068 60.3032398,47.56072 59.8966798,47.56072 L59.8966798,47.56072 L57.2513998,47.56072 L57.2513998,53.176 L58.2334798,53.176 Z M59.8095598,50.17432 L58.2334798,50.17432 L58.2334798,48.3448 L59.8095598,48.3448 C60.1580398,48.3448 60.4391998,48.4306 60.6530398,48.6022 C60.8668798,48.7738 60.9737998,48.99424 60.9737998,49.26352 C60.9737998,49.53808 60.8668798,49.75852 60.6530398,49.92484 C60.4391998,50.09116 60.1580398,50.17432 59.8095598,50.17432 L59.8095598,50.17432 Z" id="BESTSELLER" fill="#000000" fill-rule="nonzero"></path>
        </g>
    </g>
</svg>