<?xml version="1.0" encoding="UTF-8"?>
<svg width="93px" height="92px" viewBox="0 0 93 92" version="1.1" xmlns="http://www.w3.org/2000/svg" xmlns:xlink="http://www.w3.org/1999/xlink">
    <title>ELEMENT / DESKTOP / MESSAGE / BRANDED FORTUNE / TWO LINES Copy 7</title>
    <g id="Page-1" stroke="none" stroke-width="1" fill="none" fill-rule="evenodd">
        <g id="ELEMENT-/-DESKTOP-/-MESSAGE-/-BRANDED-FORTUNE-/-TWO-LINES-Copy-7" transform="translate(0.501592, 0.000000)">
            <g id="SHAPE-/-SPARKLE-/-GREEN" fill="#FFFFFF">
                <path d="M47.0971189,0 L44.9467659,0 C33.7122687,19.7720841 19.7393627,33.7128107 0,44.9445507 L0,46.985086 C19.7656936,58.2344168 33.7473765,72.2015296 44.9818737,92 L47.0620111,92 C58.2965083,72.2015296 72.2343064,58.1904398 92,46.9499044 L92,44.9797323 C72.2606373,33.7479924 58.3316161,19.7632887 47.0971189,0" id="Path"></path>
            </g>
            <path d="M25.6268403,42.088 L25.6268403,37.77952 L25.6426803,37.77952 L27.4484403,42.088 L28.3354803,42.088 L30.1333203,37.7716 L30.1491603,37.7716 L30.1491603,42.088 L31.0837203,42.088 L31.0837203,36.47272 L29.7531603,36.47272 L27.8998803,40.99504 L27.8919603,40.99504 L26.0307603,36.47272 L24.7002003,36.47272 L24.7002003,42.088 L25.6268403,42.088 Z M36.8217602,42.088 L36.8217602,41.26432 L33.8042402,41.26432 L33.8042402,39.57736 L36.4257602,39.57736 L36.4257602,38.82496 L33.8042402,38.82496 L33.8042402,37.2964 L36.7425602,37.2964 L36.7425602,36.47272 L32.8538402,36.47272 L32.8538402,42.088 L36.8217602,42.088 Z M39.2967602,42.088 L39.2967602,36.47272 L38.3146802,36.47272 L38.3146802,42.088 L39.2967602,42.088 Z M44.6625601,42.088 L44.6625601,41.23264 L42.0489601,41.23264 L42.0489601,36.47272 L41.0668801,36.47272 L41.0668801,42.088 L44.6625601,42.088 Z M49.67196,42.088 L49.67196,41.23264 L47.05836,41.23264 L47.05836,36.47272 L46.07628,36.47272 L46.07628,42.088 L49.67196,42.088 Z M55.0535999,42.088 L55.0535999,41.26432 L52.0360799,41.26432 L52.0360799,39.57736 L54.6575999,39.57736 L54.6575999,38.82496 L52.0360799,38.82496 L52.0360799,37.2964 L54.9743999,37.2964 L54.9743999,36.47272 L51.0856799,36.47272 L51.0856799,42.088 L55.0535999,42.088 Z M58.8670798,42.286 C59.3475598,42.286 59.7673198,42.18964 60.1263598,41.99692 C60.4853998,41.8042 60.7639198,41.53228 60.9619198,41.18116 C61.1599198,40.83004 61.2589198,40.42216 61.2589198,39.95752 L61.2589198,39.95752 L61.2589198,36.47272 L60.2689198,36.47272 L60.2689198,39.94168 C60.2689198,40.3852 60.1421998,40.74424 59.8887598,41.0188 C59.6353198,41.29336 59.2947598,41.43064 58.8670798,41.43064 C58.5872398,41.43064 58.3403998,41.36464 58.1265598,41.23264 C57.9127198,41.10064 57.7490398,40.92244 57.6355198,40.69804 C57.5219998,40.47364 57.4652398,40.22152 57.4652398,39.94168 L57.4652398,39.94168 L57.4652398,36.47272 L56.4752398,36.47272 L56.4752398,39.95752 C56.4752398,40.42216 56.5729198,40.83004 56.7682798,41.18116 C56.9636398,41.53228 57.2421598,41.8042 57.6038398,41.99692 C57.9655198,42.18964 58.3865998,42.286 58.8670798,42.286 Z M63.9398398,42.088 L63.9398398,39.83872 L65.3179198,39.83872 L66.5059198,42.088 L67.5988798,42.088 L66.2683198,39.65656 C66.6959998,39.58264 67.0365598,39.4084 67.2899998,39.13384 C67.5434398,38.85928 67.6701598,38.52664 67.6701598,38.13592 C67.6701598,37.80856 67.5843598,37.51948 67.4127598,37.26868 C67.2411598,37.01788 66.9982798,36.82252 66.6841198,36.6826 C66.3699598,36.54268 66.0095998,36.47272 65.6030398,36.47272 L65.6030398,36.47272 L62.9577598,36.47272 L62.9577598,42.088 L63.9398398,42.088 Z M65.5159198,39.08632 L63.9398398,39.08632 L63.9398398,37.2568 L65.5159198,37.2568 C65.8643998,37.2568 66.1455598,37.3426 66.3593998,37.5142 C66.5732398,37.6858 66.6801598,37.90624 66.6801598,38.17552 C66.6801598,38.45008 66.5732398,38.67052 66.3593998,38.83684 C66.1455598,39.00316 65.8643998,39.08632 65.5159198,39.08632 L65.5159198,39.08632 Z M28.2107403,53.176 L30.3174603,47.56072 L29.2799403,47.56072 L27.6563403,52.23352 L27.6405003,52.23352 L26.0010603,47.56072 L24.9714603,47.56072 L27.0702603,53.176 L28.2107403,53.176 Z M35.6595002,53.176 L35.6595002,52.35232 L32.6419802,52.35232 L32.6419802,50.66536 L35.2635002,50.66536 L35.2635002,49.91296 L32.6419802,49.91296 L32.6419802,48.3844 L35.5803002,48.3844 L35.5803002,47.56072 L31.6915802,47.56072 L31.6915802,53.176 L35.6595002,53.176 Z M38.1028201,53.176 L38.1028201,48.78832 L38.1186601,48.78832 L40.7164201,53.176 L41.9281801,53.176 L41.9281801,47.56072 L40.9698601,47.56072 L40.9698601,51.96424 L40.9540201,51.96424 L38.3641801,47.56072 L37.1524201,47.56072 L37.1524201,53.176 L38.1028201,53.176 Z M45.86046,53.176 C46.82142,53.176 47.5593,52.93312 48.0741,52.44736 C48.5889,51.9616 48.8463,51.26992 48.8463,50.37232 C48.8463,49.46944 48.5889,48.77512 48.0741,48.28936 C47.5593,47.8036 46.82142,47.56072 45.86046,47.56072 L45.86046,47.56072 L43.6983,47.56072 L43.6983,53.176 L45.86046,53.176 Z M45.86046,52.35232 L44.66454,52.35232 L44.66454,48.3844 L45.86046,48.3844 C46.50462,48.3844 46.9983,48.556 47.3415,48.8992 C47.6847,49.2424 47.8563,49.73344 47.8563,50.37232 C47.8563,51.0112 47.6847,51.50092 47.3415,51.84148 C46.9983,52.18204 46.50462,52.35232 45.86046,52.35232 L45.86046,52.35232 Z M54.38634,53.176 L54.38634,52.35232 L51.36882,52.35232 L51.36882,50.66536 L53.99034,50.66536 L53.99034,49.91296 L51.36882,49.91296 L51.36882,48.3844 L54.30714,48.3844 L54.30714,47.56072 L50.41842,47.56072 L50.41842,53.176 L54.38634,53.176 Z M58.1998199,53.374 C58.6802999,53.374 59.1000599,53.27764 59.4590999,53.08492 C59.8181399,52.8922 60.0966599,52.62028 60.2946599,52.26916 C60.4926599,51.91804 60.5916599,51.51016 60.5916599,51.04552 L60.5916599,51.04552 L60.5916599,47.56072 L59.6016599,47.56072 L59.6016599,51.02968 C59.6016599,51.4732 59.4749399,51.83224 59.2214999,52.1068 C58.9680599,52.38136 58.6274999,52.51864 58.1998199,52.51864 C57.9199799,52.51864 57.6731399,52.45264 57.4592999,52.32064 C57.2454599,52.18864 57.0817799,52.01044 56.9682599,51.78604 C56.8547399,51.56164 56.7979799,51.30952 56.7979799,51.02968 L56.7979799,51.02968 L56.7979799,47.56072 L55.8079799,47.56072 L55.8079799,51.04552 C55.8079799,51.51016 55.9056599,51.91804 56.1010199,52.26916 C56.2963799,52.62028 56.5748999,52.8922 56.9365799,53.08492 C57.2982599,53.27764 57.7193399,53.374 58.1998199,53.374 Z M63.2725798,53.176 L63.2725798,50.92672 L64.6506598,50.92672 L65.8386598,53.176 L66.9316198,53.176 L65.6010598,50.74456 C66.0287398,50.67064 66.3692998,50.4964 66.6227398,50.22184 C66.8761798,49.94728 67.0028998,49.61464 67.0028998,49.22392 C67.0028998,48.89656 66.9170998,48.60748 66.7454998,48.35668 C66.5738998,48.10588 66.3310198,47.91052 66.0168598,47.7706 C65.7026998,47.63068 65.3423398,47.56072 64.9357798,47.56072 L64.9357798,47.56072 L62.2904998,47.56072 L62.2904998,53.176 L63.2725798,53.176 Z M64.8486598,50.17432 L63.2725798,50.17432 L63.2725798,48.3448 L64.8486598,48.3448 C65.1971398,48.3448 65.4782998,48.4306 65.6921398,48.6022 C65.9059798,48.7738 66.0128998,48.99424 66.0128998,49.26352 C66.0128998,49.53808 65.9059798,49.75852 65.6921398,49.92484 C65.4782998,50.09116 65.1971398,50.17432 64.8486598,50.17432 L64.8486598,50.17432 Z" id="MEILLEURVENDEUR" fill="#000000" fill-rule="nonzero"></path>
        </g>
    </g>
</svg>