<?xml version="1.0" encoding="UTF-8"?>
<svg width="126px" height="24px" viewBox="0 0 126 24" version="1.1" xmlns="http://www.w3.org/2000/svg" xmlns:xlink="http://www.w3.org/1999/xlink">
    <title>buzzfeed-ar21</title>
    <g id="Page-1" stroke="none" stroke-width="1" fill="none" fill-rule="evenodd">
        <g id="Artboard" transform="translate(-70.000000, -489.000000)" fill="#000000" fill-rule="nonzero">
            <g id="buzzfeed-ar21" transform="translate(70.000000, 489.828741)">
                <path d="M0.125832597,0 L10.6957708,0 C13.3382553,0 15.603242,1.88686951 15.9807398,4.40269553 C16.4840702,7.29589545 14.9740791,9.68593016 12.7090923,10.3148867 C12.5832597,10.3148867 12.5832597,10.440678 12.5832597,10.440678 C14.7224139,11.0696345 16.1065724,12.4533388 16.4840702,14.7175822 C17.1132332,18.2397386 15.0999116,21.2587298 11.3249337,21.6361037 C10.4441056,21.761895 9.68910997,21.761895 8.8082818,21.761895 L0,21.761895 L0.125832597,0 Z M4.78163869,17.6107821 C4.78163869,17.6107821 4.90747129,17.6107821 4.90747129,17.6107821 L9.31161218,17.6107821 C10.8216033,17.4849908 11.7024315,16.6044517 11.8282641,15.2207474 C11.9540967,13.8370431 11.0732685,12.8307127 9.56327738,12.7049214 C8.5566166,12.5791301 7.67578842,12.5791301 6.66912765,12.5791301 L4.78163869,12.5791301 L4.78163869,17.6107821 Z M4.78163869,8.55380845 L8.8082818,8.55380845 C9.05994699,8.55380845 9.31161218,8.55380845 9.56327738,8.55380845 C10.4441056,8.42801715 11.1991011,7.92485195 11.4507663,6.91852154 C11.8282641,5.66060854 11.0732685,4.40269553 9.94077517,4.15111293 C9.68910997,4.02532163 9.56327738,4.02532163 9.31161218,4.02532163 C8.5566166,4.02532163 7.80162102,4.02532163 7.04662544,4.02532163 L4.90747129,4.02532163 C4.90747129,4.15111293 4.90747129,4.27690423 4.90747129,4.40269553 L4.78163869,8.55380845 L4.78163869,8.55380845 Z M84.5595052,22.2650602 L82.9236815,22.0134776 C78.6453732,21.0071472 76.506219,17.3591995 76.8837168,13.2080866 C77.135382,9.81172146 78.8970384,7.29589545 82.1686859,6.16377374 C86.6986594,4.52848683 91.9836285,6.66693894 92.8644566,12.8307127 C92.9902892,13.5854605 92.9902892,14.4659996 92.9902892,15.3465387 L81.1620251,15.3465387 C81.4136903,16.8560343 82.1686859,17.8623647 83.5528445,18.4913212 C85.6919986,19.3718603 87.7053202,18.9944864 89.5928091,17.7365734 C89.7186417,17.6107821 89.8444743,17.6107821 89.9703069,17.4849908 C89.9703069,17.4849908 90.0961395,17.4849908 90.0961395,17.4849908 L91.9836285,20.2523994 L89.9703069,21.1329385 C88.8378135,21.6361037 87.5794876,22.0134776 86.3211616,22.1392689 C86.195329,22.1392689 86.0694964,22.1392689 85.9436638,22.2650602 L84.5595052,22.2650602 Z M88.8378135,12.3275475 C88.9636461,10.3148867 87.0761572,8.80539106 84.6853378,8.93118236 C82.6720163,9.05697366 80.9103599,10.6922606 81.1620251,12.3275475 L88.8378135,12.3275475 Z M101.546906,22.2650602 L99.5335843,21.761895 C96.3877694,20.8813559 94.1227826,18.1139473 93.8711174,14.8433735 C93.6194522,11.698591 94.5002804,9.05697366 97.0169323,7.17010415 C100.79191,4.15111293 108.216033,4.90586073 109.726025,11.9501736 C109.851857,12.4533388 109.851857,12.956504 109.97769,13.4596692 C109.97769,13.9628344 109.97769,14.5917909 109.97769,15.2207474 L98.2752583,15.2207474 C98.4010909,16.1012865 98.6527561,16.8560343 99.2819191,17.3591995 C100.540245,18.7429038 102.176069,18.9944864 103.937725,18.6171125 C105.070219,18.4913212 106.076879,17.988156 106.957708,17.2334082 L108.845196,20.0008168 C108.341866,20.3781907 107.964368,20.6297733 107.461038,21.0071472 C106.202712,21.6361037 104.944386,22.0134776 103.560227,22.1392689 C103.434395,22.1392689 103.18273,22.1392689 103.056897,22.2650602 L101.546906,22.2650602 Z M98.1494257,12.3275475 L105.825214,12.3275475 C105.951047,10.440678 104.063558,8.93118236 101.798571,8.93118236 C99.7852495,9.05697366 98.0235931,10.5664693 98.1494257,12.3275475 L98.1494257,12.3275475 Z M23.9081934,22.2650602 L22.3982023,22.0134776 C19.2523874,21.2587298 17.490731,18.9944864 17.490731,15.7239126 L17.490731,6.03798244 L21.6432067,6.03798244 L21.6432067,15.2207474 C21.6432067,16.4786604 22.0207045,17.6107821 23.2790305,18.2397386 C24.663189,18.8686951 26.0473476,18.8686951 27.179841,17.988156 C28.0606691,17.3591995 28.3123343,16.3528691 28.3123343,15.3465387 C28.3123343,12.4533388 28.3123343,9.68593016 28.3123343,6.79273024 L28.3123343,6.03798244 L32.46481,6.03798244 L32.46481,15.5981213 C32.46481,19.246069 30.1998233,21.761895 26.550678,22.1392689 C26.4248454,22.1392689 26.1731802,22.2650602 26.0473476,22.2650602 L23.9081934,22.2650602 Z M63.2937963,21.761895 L63.2937963,0 L78.393708,0 L78.393708,3.52215642 C78.393708,4.02532163 78.2678754,4.02532163 77.764545,4.02532163 C74.7445627,4.02532163 71.7245803,4.02532163 68.8304306,4.02532163 L67.8237698,4.02532163 L67.8237698,8.55380845 L75.1220605,8.55380845 C75.6253908,8.55380845 75.6253908,8.67959975 75.6253908,9.18276496 L75.6253908,12.7049214 L67.6979372,12.7049214 L67.6979372,21.761895 L63.2937963,21.761895 Z M110.858518,21.761895 L110.858518,6.54114764 C110.858518,5.91219114 110.858518,5.91219114 111.487681,5.91219114 L118.408474,6.03798244 C121.680121,6.28956504 124.196773,7.79906065 125.455099,10.9438432 C126.713425,14.214417 125.706764,17.8623647 123.315945,20.0008168 C121.931787,21.1329385 120.17013,21.761895 118.282641,21.8876863 L111.236016,21.8876863 C111.110183,21.761895 110.984351,21.761895 110.858518,21.761895 L110.858518,21.761895 Z M114.885161,18.3655299 L117.150148,18.3655299 C119.792632,18.3655299 121.554289,16.8560343 121.805954,14.214417 C122.057619,12.3275475 120.925126,10.440678 119.289302,9.68593016 C117.779311,9.05697366 116.26932,9.43434756 114.759329,9.30855626 L114.885161,18.3655299 Z M40.895594,9.56013886 L33.8489686,9.56013886 L33.8489686,6.03798244 L46.5580609,6.03798244 L46.5580609,8.05064325 C46.5580609,8.67959975 46.4322283,9.18276496 46.0547305,9.68593016 L39.7631007,17.6107821 L39.3856029,18.1139473 L46.6838935,18.1139473 L46.6838935,21.761895 L33.8489686,21.761895 L33.8489686,18.7429038 C33.8489686,18.6171125 33.9748012,18.3655299 34.1006338,18.2397386 C36.239788,15.47233 38.3789421,12.7049214 40.5180963,10.0633041 C40.6439289,9.93751276 40.7697615,9.81172146 40.895594,9.56013886 L40.895594,9.56013886 Z M47.8163869,9.56013886 L47.8163869,6.41535634 C47.8163869,6.28956504 47.8163869,6.16377374 47.8163869,6.03798244 L60.5254792,6.03798244 L60.5254792,8.93118236 C60.5254792,9.05697366 60.3996466,9.18276496 60.273814,9.30855626 C58.1346598,12.0759649 55.8696731,14.8433735 53.730519,17.6107821 L53.3530212,18.1139473 L60.273814,18.1139473 C60.6513118,18.1139473 60.7771444,18.2397386 60.7771444,18.6171125 L60.7771444,21.761895 L47.8163869,21.761895 L47.8163869,18.7429038 C47.8163869,18.6171125 47.9422195,18.4913212 48.0680521,18.3655299 L54.3596819,10.3148867 L54.8630123,9.56013886 L47.8163869,9.56013886 Z" id="Shape"></path>
            </g>
        </g>
    </g>
</svg>