<?xml version="1.0" encoding="utf-8"?>
<!-- Generator: Adobe Illustrator 25.0.0, SVG Export Plug-In . SVG Version: 6.00 Build 0)  -->
<svg version="1.1" id="Layer_1" xmlns="http://www.w3.org/2000/svg" xmlns:xlink="http://www.w3.org/1999/xlink" x="0px" y="0px"
	 viewBox="0 0 28 29" style="enable-background:new 0 0 28 29;" xml:space="preserve">
<style type="text/css">
	.st0{fill:none;stroke:#000000;stroke-width:0.8;}
	.st1{fill:none;stroke:#1D1D1B;stroke-width:0.8;}
</style>
<g id="Page-1">
	<g id="Group-2-Copy">
		<g id="Group-9-Copy" transform="translate(0.000000, 3.000000)">
			<polyline id="Stroke-1" class="st0" points="24.4,18.5 7.8,18.5 4,0.4 0,0.4 			"/>
			<polyline id="Stroke-3" class="st1" points="4.6,3 27.3,3 24.6,16.3 7.5,16.3 			"/>
			<path id="Stroke-5" class="st1" d="M13.6,23.2c0,1.3-1,2.3-2.3,2.3c-1.3,0-2.3-1-2.3-2.3s1-2.3,2.3-2.3
				C12.6,20.9,13.6,21.9,13.6,23.2z"/>
			<path id="Stroke-7" class="st1" d="M22.8,23.2c0,1.3-1,2.3-2.3,2.3c-1.3,0-2.3-1-2.3-2.3s1-2.3,2.3-2.3
				C21.8,20.9,22.8,21.9,22.8,23.2z"/>
		</g>
	</g>
</g>
</svg>
