<?xml version="1.0" encoding="UTF-8"?>
<svg width="106px" height="51px" viewBox="0 0 106 51" version="1.1" xmlns="http://www.w3.org/2000/svg" xmlns:xlink="http://www.w3.org/1999/xlink">
    <title>CNN-01</title>
    <g id="Page-1" stroke="none" stroke-width="1" fill="none" fill-rule="evenodd">
        <g id="Artboard" transform="translate(-65.000000, -559.000000)" fill="#231F20" fill-rule="nonzero">
            <g id="Group" transform="translate(65.000000, 559.000000)">
                <g id="Shape" transform="translate(53.000000, 25.228342) scale(-1, 1) rotate(-180.000000) translate(-53.000000, -25.228342) translate(0.000000, 0.000000)">
                    <path d="M43.6613757,50.4316406 C39.2787936,50.1293935 35.5384864,46.4268672 35.5384864,41.2131057 L35.5384864,16.4288481 C35.5384864,15.522107 34.8584306,14.7664894 33.9139085,14.7664894 L26.168828,14.7664894 C9.3941171,14.7287085 10.9053523,36.1504677 25.1487443,36.1882486 L33.7250041,36.1882486 L33.7250041,42.4220939 L24.8464972,42.4220939 C19.1793651,42.4220939 14.9479065,40.3063646 12.1143405,37.1327706 C9.28077446,33.9591767 7.845101,29.7277181 7.845101,25.4584786 C7.845101,21.2270199 9.24299358,16.9955613 12.1521214,13.8219674 C15.0612492,10.6483734 19.4438313,8.5326441 25.4887722,8.5326441 L40.0721921,8.5326441 C41.054495,8.5326441 41.8478934,9.36382347 41.8478934,10.3083455 L41.8478934,40.5330499 C41.8478934,42.082066 42.7168537,43.2910542 43.8502801,43.668863 C44.9837065,44.0088909 46.3438182,43.5933012 47.1372167,42.4220939 L47.1749976,42.384313 C51.3308944,35.5837545 67.8033583,9.13713819 67.8411392,9.09935731 C68.2945098,8.45708234 68.8234421,8.3437397 69.2390318,8.45708234 C69.6168406,8.60820586 70.0324303,9.02379555 70.0324303,10.0816602 L70.0324303,40.5330499 C70.0324303,42.082066 70.9013905,43.2910542 72.034817,43.668863 C73.1682434,44.0088909 74.4905742,43.5933012 75.2839727,42.4220939 L75.2839727,42.384313 L75.3595344,42.384313 C79.5154313,35.5837545 95.9878952,9.13713819 96.0256761,9.09935731 C96.4790466,8.45708234 97.007979,8.3437397 97.4235686,8.45708234 C97.8391583,8.60820586 98.254748,8.98601467 98.254748,10.0438793 L98.254748,50.2427362 L91.9831219,50.2427362 L91.9831219,26.7808094 C91.9831219,26.7808094 88.2428147,33.1657782 81.8578459,44.1600144 C75.5862197,54.9275653 63.7608041,50.4694214 63.7608041,41.2131057 L63.7608041,26.8185903 C63.7608041,26.8185903 60.0960587,33.2035591 53.7110899,44.1977953 C50.9153048,48.8826245 47.0994358,50.6961067 43.6613757,50.4316406 L43.6613757,50.4316406 Z M25.9421428,50.280517 C-8.89182906,50.280517 -8.55180114,0.636440077 26.3955133,0.598659196 L40.0721921,0.598659196 C45.9660094,0.598659196 49.7063166,4.0745002 49.7063166,10.4972499 L49.7063166,23.0782831 C49.7063166,23.0782831 57.3758353,10.3839072 60.3983058,5.39683102 C65.4987246,-3.06608621 77.8908534,-1.40372747 77.8530726,9.17491907 L77.8530726,23.0782831 C77.8530726,23.0782831 85.5225913,10.3839072 88.5072809,5.39683102 C93.6076997,-3.06608621 106.037609,-1.40372747 105.999914,9.17491907 L105.999914,50.2427362 L99.7282024,50.2427362 L99.7282024,10.0438793 C99.7282024,8.49486322 98.9348039,7.3614368 97.8013775,6.983628 C96.667951,6.60581919 95.421182,7.05918976 94.6277835,8.19261618 L94.5900026,8.19261618 L94.5900026,8.26817794 C94.5900026,8.26817794 78.0797578,34.6392325 73.8860801,41.5153528 L73.8482992,41.5153528 L73.8482992,41.5531337 C73.4327095,42.1198469 72.8659963,42.2709704 72.4126258,42.1198469 C71.9592552,41.9687233 71.5058846,41.5531337 71.5058846,40.5330499 L71.5058846,10.0816602 C71.5058846,8.5326441 70.7124861,7.32365592 69.6168406,6.983628 C68.5211951,6.60581919 67.2366451,7.09697064 66.4810275,8.23039706 L66.4810275,8.26817794 L66.4432466,8.26817794 C66.4432466,8.26817794 49.9330019,34.6770134 45.7393241,41.5531337 C45.2859536,42.1954086 44.7192404,42.3465321 44.2658698,42.1954086 C43.8124992,42.0442851 43.3591287,41.6286954 43.3591287,40.6086116 L43.3591287,40.5708308 L43.3591287,10.3461264 C43.3591287,8.49486322 41.8478934,6.983628 40.0344112,6.983628 L25.4509913,6.983628 C19.0282416,6.983628 14.1922889,9.28826171 10.9809141,12.7641027 C7.76953924,16.2399437 6.18274226,20.8492111 6.18274226,25.4584786 C6.18274226,30.067746 7.76953924,34.7147943 10.9053523,38.1906353 C14.0411654,41.6664763 18.7259946,43.97111 24.8087163,43.97111 L33.6872233,43.97111 L33.6872233,50.280517 L25.9421428,50.280517 L25.9421428,50.280517 Z"></path>
                </g>
            </g>
        </g>
    </g>
</svg>