<svg xmlns="http://www.w3.org/2000/svg" width="90" height="90" viewBox="0 0 90 90">
  <g id="Group_730" data-name="Group 730" transform="translate(-654 -1780)">
    <path id="Icon_awesome-phone-alt" data-name="Icon awesome-phone-alt" d="M34.973,25.439,27.1,22.064a1.687,1.687,0,0,0-1.969.485L21.641,26.81A26.062,26.062,0,0,1,9.183,14.351l4.261-3.488A1.683,1.683,0,0,0,13.929,8.9L10.554,1.02A1.7,1.7,0,0,0,8.62.043L1.308,1.73A1.688,1.688,0,0,0,0,3.375,32.621,32.621,0,0,0,32.625,36a1.687,1.687,0,0,0,1.645-1.308l1.687-7.313a1.708,1.708,0,0,0-.985-1.941Z" transform="translate(681.5 1807.5)" fill="none" stroke="#000" stroke-width="3"/>
    <g id="Ellipse_1" data-name="Ellipse 1" transform="translate(654 1780)" fill="none" stroke="#000" stroke-width="2">
      <circle cx="45" cy="45" r="45" stroke="none"/>
      <circle cx="45" cy="45" r="44" fill="none"/>
    </g>
  </g>
</svg>
