<?xml version="1.0" encoding="UTF-8"?>
<svg width="126px" height="37px" viewBox="0 0 126 37" version="1.1" xmlns="http://www.w3.org/2000/svg" xmlns:xlink="http://www.w3.org/1999/xlink">
    <title>elle-1-logo-svg-vector</title>
    <g id="Page-1" stroke="none" stroke-width="1" fill="none" fill-rule="evenodd">
        <g id="Artboard" transform="translate(-67.000000, -656.000000)" fill="#231F20">
            <g id="elle-1-logo-svg-vector" transform="translate(67.000000, 656.000000)">
                <path d="M2.81306837,36.4243853 L0.00606264736,36.4243853 L0.00606264736,36.9578983 L15.5628158,36.9578983 L15.5628158,27.1364096 L15.0899293,27.1364096 C15.0899293,27.1364096 15.0717413,32.7989222 13.2105086,34.6601549 C11.6281576,36.2425059 9.95486696,36.3940721 7.220613,36.3940721 L7.220613,18.3213203 C7.220613,18.3213203 9.11215898,18.1879421 10.0215561,19.0973392 C11.4644662,20.5402492 11.6099697,22.3893567 11.6099697,24.9417312 L12.1071068,24.9417312 L12.1071068,11.0946447 L11.6099697,11.0946447 C11.6099697,13.6470192 11.4705288,15.4961266 10.0215561,16.9390367 C9.10609633,17.8544965 7.220613,17.7211182 7.220613,17.7211182 L7.220613,0.563826204 C9.95486696,0.563826204 11.2583361,0.715392388 12.8406871,2.29774335 C14.7019198,4.15897609 14.7201078,9.82148872 14.7201078,9.82148872 L15.1929943,9.82148872 L15.1929943,0 L0,0 L0,0.533512967 L2.80700573,0.533512967 L2.81306837,36.4243853 L2.81306837,36.4243853 L2.81306837,36.4243853 Z M44.2088245,0.551700909 L44.2088245,36.4001347 C46.9430785,36.4001347 48.6163691,36.2485685 50.1987201,34.6662176 C52.0599528,32.8049848 52.0781408,27.1424722 52.0781408,27.1424722 L52.5510273,27.1424722 L52.5510273,36.9639609 L36.9942742,36.9639609 L36.9942742,36.430448 L39.8012799,36.430448 L39.8012799,0.533512967 L36.9942742,0.533512967 L36.9942742,1.42108547e-14 L46.7733244,1.42108547e-14 L46.7733244,0.551700909 L44.2088245,0.551700909 L44.2088245,0.551700909 Z M80.8939037,0.551700909 L80.8939037,36.4001347 C83.6281576,36.4001347 85.3014483,36.2485685 86.8837993,34.6662176 C88.745032,32.8049848 88.7632199,27.1424722 88.7632199,27.1424722 L89.2361064,27.1424722 L89.2361064,36.9639609 L73.6793533,36.9639609 L73.6793533,36.430448 L76.486359,36.430448 L76.486359,0.533512967 L73.6793533,0.533512967 L73.6793533,1.42108547e-14 L83.4584035,1.42108547e-14 L83.4584035,0.551700909 L80.8939037,0.551700909 L80.8939037,0.551700909 Z M113.250253,36.4243853 L110.443247,36.4243853 L110.443247,36.9578983 L126,36.9578983 L126,27.1364096 L125.527114,27.1364096 C125.527114,27.1364096 125.508926,32.7989222 123.647693,34.6601549 C122.065342,36.2425059 120.392051,36.3940721 117.657797,36.3940721 L117.657797,18.3213203 C117.657797,18.3213203 119.549343,18.1879421 120.45874,19.0973392 C121.907713,20.5402492 122.047154,22.3893567 122.047154,24.9417312 L122.544291,24.9417312 L122.544291,11.0946447 L122.047154,11.0946447 C122.047154,13.6470192 121.907713,15.4961266 120.45874,16.9390367 C119.549343,17.8544965 117.657797,17.7211182 117.657797,17.7211182 L117.657797,0.563826204 C120.392051,0.563826204 121.69552,0.715392388 123.277871,2.29774335 C125.139104,4.15897609 125.163355,9.82148872 125.163355,9.82148872 L125.636241,9.82148872 L125.636241,0 L110.44931,0 L110.44931,0.533512967 L113.256315,0.533512967 L113.256315,36.4243853 L113.250253,36.4243853 L113.250253,36.4243853 Z" id="Shape"></path>
                <path d="M123.805322,35.4119232 C123.805322,34.9208488 124.205456,34.5267767 124.696531,34.5267767 C125.187605,34.5267767 125.581677,34.9269114 125.581677,35.4179859 C125.581677,35.9090603 125.181543,36.3031324 124.696531,36.3031324 C124.205456,36.3031324 123.805322,35.9090603 123.805322,35.4119232 Z M125.47255,35.4119232 C125.47255,34.9875379 125.126979,34.6359043 124.702593,34.6359043 L124.696531,34.6359043 C124.272146,34.6298417 123.920512,34.9754126 123.914449,35.4058606 L123.914449,35.4119232 C123.914449,35.8484338 124.26002,36.1940047 124.696531,36.1940047 C125.120916,36.1940047 125.466487,35.8484338 125.47255,35.4240485 C125.47255,35.4240485 125.47255,35.4179859 125.47255,35.4119232 Z M125.133041,35.9211856 L124.987538,35.9211856 L124.708656,35.4725497 L124.484338,35.4725497 L124.484338,35.9211856 L124.375211,35.9211856 L124.375211,34.951162 L124.799596,34.951162 C125.06029,34.951162 125.145167,35.0481644 125.145167,35.2057932 C125.145167,35.3937353 125.011788,35.466487 124.842034,35.4725497 L125.133041,35.9211856 L125.133041,35.9211856 Z M124.678343,35.363422 C124.817784,35.363422 125.036039,35.3876726 125.036039,35.2057932 C125.036039,35.0784776 124.890536,35.0602897 124.775345,35.0602897 L124.490401,35.0602897 L124.490401,35.363422 L124.678343,35.363422 L124.678343,35.363422 Z" id="Shape"></path>
            </g>
        </g>
    </g>
</svg>