<?xml version="1.0" encoding="UTF-8"?>
<svg width="126px" height="30px" viewBox="0 0 126 30" version="1.1" xmlns="http://www.w3.org/2000/svg" xmlns:xlink="http://www.w3.org/1999/xlink">
    <title>instyle-logo-vector</title>
    <g id="Page-1" stroke="none" stroke-width="1" fill="none" fill-rule="evenodd">
        <g id="Artboard" transform="translate(-70.000000, -388.000000)" fill="#000000" fill-rule="nonzero">
            <g id="Shape" transform="translate(70.000000, 388.167358)">
                <path d="M114.156,10.878 C117.579,10.878 120.624,12.327 121.128,14.889 L107.205,14.889 C107.751,12.285 110.691,10.878 114.156,10.878 M44.142,26.271 C51.618,26.271 56.574,23.457 56.574,18.438 C56.574,11.592 47.607,11.55 42.735,11.319 C41.097,11.235 34.629,11.235 34.629,8.715 C34.629,6.216 39.501,5.334 42.777,5.334 C47.607,5.334 51.471,6.825 53.655,8.484 L55.923,5.334 C53.151,3.423 49.014,1.785 42.714,1.785 C35.826,1.743 30.177,3.969 30.177,9.03 C30.177,14.994 38.514,15.099 42.756,15.33 C44.898,15.477 52.269,15.183 52.269,18.564 C52.269,21.441 48.405,22.659 44.163,22.659 C36.813,22.659 32.718,20.013 31.647,19.152 L29.337,22.659 C33.516,25.599 37.947,26.271 44.142,26.271 M65.373,26.229 C67.557,26.229 70.749,25.41 70.749,25.41 L69.741,21.777 C69.741,21.777 67.977,22.47 66.192,22.47 C64.47,22.47 63.882,22.05 63.882,20.601 L63.84,11.172 L69.657,11.172 L69.657,7.623 L63.84,7.623 L63.84,3.171 L59.598,3.171 L59.598,7.623 L56.553,7.623 L56.553,11.172 L59.598,11.172 L59.598,20.685 C59.598,24.696 61.467,26.208 65.373,26.25 L65.373,26.229 L65.373,26.229 Z M82.761,29.757 L95.088,7.644 L90.405,7.644 L83.076,21.126 L76.02,7.644 L70.959,7.644 L80.661,25.368 L78.12,29.757 L82.761,29.757 L82.761,29.757 Z M96.411,25.599 L100.737,25.599 L100.737,-5.32907052e-15 L96.411,-5.32907052e-15 L96.411,25.599 Z M107.184,18.354 L126,18.354 C125.958,10.605 120.708,7.182 114.156,7.14 C107.184,7.098 102.501,11.004 102.501,16.695 C102.501,22.386 106.701,26.229 114.156,26.229 C119.7,26.187 122.766,24.99 125.307,22.953 L123.081,20.034 C121.716,21.21 119.385,22.449 114.156,22.449 C111.195,22.491 107.709,21.273 107.184,18.354 M0,25.557 L4.347,25.557 L4.347,-5.32907052e-15 L0,-5.32907052e-15 L0,25.557 L0,25.557 Z M23.415,25.557 L28.413,25.557 L28.413,14.679 C28.371,9.177 25.641,6.846 18.606,6.846 C14.973,6.846 12.6,7.98 11.445,8.61 L11.445,7.329 L6.72,7.329 L6.72,25.557 L11.592,25.557 L11.592,13.125 C12.012,12.726 14.721,11.088 18.417,11.088 C22.617,11.088 23.478,12.264 23.478,16.107 L23.415,25.557 Z"></path>
            </g>
        </g>
    </g>
</svg>