<svg width="43" height="43" xmlns="http://www.w3.org/2000/svg"><g transform="translate(0 .5)" stroke="#000" stroke-width=".75" fill="none" fill-rule="evenodd"><circle fill="#FFF" cx="21.25" cy="21.25" r="20.875"/><g stroke-linejoin="round"><path d="M11.669 23.777h-.823C8.722 23.777 7 22.064 7 19.95v-6.123C7 11.713 8.722 10 10.846 10h12.308C25.278 10 27 11.713 27 13.827v6.123c0 2.114-1.722 3.827-3.846 3.827h-7.495L11.669 28v-4.223zM20 27.186c0 1.527 1.205 2.764 2.692 2.764h5.247L30.732 33v-3.05h.576c1.487 0 2.692-1.237 2.692-2.764v-4.422C34 21.237 32.795 20 31.308 20h-.774"/></g></g></svg>