<svg xmlns="http://www.w3.org/2000/svg" width="36" height="36" viewBox="0 0 36 36">
  <g id="play-desktop" transform="translate(-8 -960.4)">
    <path id="Path_1295" data-name="Path 1295" d="M26,960.4a18,18,0,1,0,18,18A18,18,0,0,0,26,960.4Zm0,.857A17.143,17.143,0,1,1,8.857,978.4,17.138,17.138,0,0,1,26,961.257Zm-3.943,9.857a.417.417,0,0,0-.343.429v13.714a.429.429,0,0,0,.429.429.327.327,0,0,0,.214-.086L33.5,978.743a.421.421,0,0,0,.129-.6l-.129-.129-11.143-6.857A.352.352,0,0,0,22.057,971.114Zm.514,1.157,9.9,6.086-9.9,6.086Z" fill="#fff"/>
  </g>
</svg>
