<?xml version="1.0" encoding="utf-8"?>
<!-- Generator: Adobe Illustrator 25.4.1, SVG Export Plug-In . SVG Version: 6.00 Build 0)  -->
<svg version="1.1"
	 id="Layer_1" xmlns:cc="http://creativecommons.org/ns#" xmlns:dc="http://purl.org/dc/elements/1.1/" xmlns:inkscape="http://www.inkscape.org/namespaces/inkscape" xmlns:rdf="http://www.w3.org/1999/02/22-rdf-syntax-ns#" xmlns:sodipodi="http://sodipodi.sourceforge.net/DTD/sodipodi-0.dtd" xmlns:svg="http://www.w3.org/2000/svg"
	 xmlns="http://www.w3.org/2000/svg" xmlns:xlink="http://www.w3.org/1999/xlink" x="0px" y="0px" viewBox="0 0 100 100"
	 style="enable-background:new 0 0 100 100;" xml:space="preserve">
<style type="text/css">
	.st0{fill:#FFFFFF;}
</style>
<g transform="translate(0,-952.36218)">
	<path class="st0" d="M50,960.4c-23.2,0-42,18.8-42,42c0,23.2,18.8,42,42,42s42-18.8,42-42C92,979.2,73.2,960.4,50,960.4z M50,962.4
		c22.1,0,40,17.9,40,40c0,22.1-17.9,40-40,40s-40-17.9-40-40C10,980.3,27.9,962.4,50,962.4z M40.8,985.4c-0.5,0.1-0.8,0.5-0.8,1v32
		c0,0.6,0.5,1,1,1c0.2,0,0.4-0.1,0.5-0.2l26-16c0.5-0.3,0.6-0.9,0.3-1.4c-0.1-0.1-0.2-0.2-0.3-0.3l-26-16
		C41.3,985.4,41.1,985.3,40.8,985.4z M42,988.1l23.1,14.2L42,1016.5V988.1z"/>
</g>
</svg>
