<?xml version="1.0" encoding="utf-8"?>
<!-- Generator: Adobe Illustrator 25.4.1, SVG Export Plug-In . SVG Version: 6.00 Build 0)  -->
<svg version="1.1" id="Layer_1" xmlns="http://www.w3.org/2000/svg" xmlns:xlink="http://www.w3.org/1999/xlink" x="0px" y="0px"
	 viewBox="0 0 100 103" style="enable-background:new 0 0 100 103;" xml:space="preserve">
<path d="M97.5,30.6h-31c3-1.8,5.8-3.9,7.9-6.4c3.5-4.2,5.1-8.3,4.8-12.2c-0.3-3.1-1.8-5.8-4.4-7.9C72,1.9,64.6-2.2,55.5,8.7
	c-2.2,2.6-4.1,6.1-5.5,9.6c-1.4-3.6-3.3-7-5.5-9.6C35.4-2.2,28,1.9,25.3,4.2c-2.6,2.1-4.1,4.9-4.4,7.9c-0.4,3.9,1.2,8,4.8,12.2l0,0
	c2.1,2.4,4.9,4.6,7.9,6.4h-31c-1.4,0-2.5,1.1-2.5,2.5V55c0,1.4,1.1,2.5,2.5,2.5H5V99c0,1.4,1.1,2.5,2.5,2.5h85
	c1.4,0,2.5-1.1,2.5-2.5V57.5h2.5c1.4,0,2.5-1.1,2.5-2.5V33.1C100,31.7,98.9,30.6,97.5,30.6z M59.3,11.9c3.6-4.3,6.4-5.5,8.4-5.5
	c1.9,0,3.2,1,3.8,1.6c1.6,1.3,2.4,2.8,2.6,4.5c0.2,2.5-1,5.4-3.6,8.5c-4.8,5.7-14.6,9.4-17.9,9.6h-0.1
	C52.2,27.7,54.1,18.1,59.3,11.9z M29.5,21L29.5,21c-2.6-3.1-3.9-6-3.6-8.5c0.2-1.7,1-3.2,2.6-4.5c1.3-1.1,5.3-4.4,12.3,3.9
	c5.2,6.2,7.1,15.8,6.8,18.7h-0.1C44.1,30.4,34.3,26.7,29.5,21z M5,35.6h42.5v16.9h-40H5V35.6z M10,57.5h37.5v39H10V57.5z M90,96.5
	H52.5v-39H90V96.5z M95,52.5h-2.5h-40V35.6H95V52.5z"/>
</svg>
