<svg xmlns="http://www.w3.org/2000/svg" viewBox="0 0 92 92"><defs><style>.cls-1{fill:#fff;fill-rule:evenodd;}</style></defs><g id="Layer_2" data-name="Layer 2"><g id="Layer_1-2" data-name="Layer 1"><g id="Page-1"><g id="ELEMENT-_-DESKTOP-_-MESSAGE-_-BRANDED-FORTUNE-_-TWO-LINES-Copy-7" data-name="ELEMENT-/-DESKTOP-/-MESSAGE-/-BRANDED-FORTUNE-/-TWO-LINES-Copy-7"><g id="SHAPE-_-SPARKLE-_-GREEN" data-name="SHAPE-/-SPARKLE-/-GREEN"><path id="Path" class="cls-1" d="M47.1,0H45C33.71,19.77,19.74,33.71,0,44.94V47C19.77,58.23,33.75,72.2,45,92h2.08C58.3,72.2,72.23,58.19,92,47V45C72.26,33.75,58.33,19.76,47.1,0"/></g></g></g><path d="M35.89,42.43V36.75h2.23a2.26,2.26,0,0,1,1,.23,1.71,1.71,0,0,1,.7.63,1.85,1.85,0,0,1,0,1.86,1.54,1.54,0,0,1-.69.62,2.25,2.25,0,0,1-1,.22H36.87v2.12ZM38,39.51a1.2,1.2,0,0,0,.8-.26.92.92,0,0,0,.31-.71.94.94,0,0,0-.31-.72,1.16,1.16,0,0,0-.8-.27H36.87v2Z"/><path d="M44.88,42.43H41.65V36.75h1v4.81h2.23Z"/><path d="M47.18,42.34a1.83,1.83,0,0,1-.77-.74,2.25,2.25,0,0,1-.27-1.13V36.75h1v3.69a1.29,1.29,0,0,0,.33.93,1.11,1.11,0,0,0,.87.36,1.12,1.12,0,0,0,.87-.35,1.36,1.36,0,0,0,.32-1V36.75h1v3.72a2.25,2.25,0,0,1-.27,1.13,1.83,1.83,0,0,1-.77.74,2.37,2.37,0,0,1-1.16.26A2.39,2.39,0,0,1,47.18,42.34Z"/><path d="M53.16,42.36a1.9,1.9,0,0,1-.8-.68,1.94,1.94,0,0,1-.34-1l.95-.17a1.29,1.29,0,0,0,.41.95,1.33,1.33,0,0,0,1,.36,1.21,1.21,0,0,0,.8-.24.77.77,0,0,0,.3-.63.67.67,0,0,0-.22-.51,1.81,1.81,0,0,0-.7-.35l-.8-.22a2.31,2.31,0,0,1-1.11-.58,1.41,1.41,0,0,1-.35-1,1.64,1.64,0,0,1,.24-.88,1.48,1.48,0,0,1,.66-.6,2.25,2.25,0,0,1,1-.21,2.07,2.07,0,0,1,.95.2,1.75,1.75,0,0,1,.68.58,1.91,1.91,0,0,1,.29.87l-.91.2a1.21,1.21,0,0,0-.32-.77.91.91,0,0,0-.71-.29,1,1,0,0,0-.67.23.78.78,0,0,0-.25.58.67.67,0,0,0,.2.5,1.52,1.52,0,0,0,.64.32l.79.22a2.46,2.46,0,0,1,1.18.6,1.37,1.37,0,0,1,.38,1,1.65,1.65,0,0,1-.26.92,1.73,1.73,0,0,1-.73.63,2.6,2.6,0,0,1-1.12.22A2.66,2.66,0,0,1,53.16,42.36Z"/><path d="M22.2,53.23V47.55h2.23a2.23,2.23,0,0,1,1,.23,1.71,1.71,0,0,1,.7.63,1.68,1.68,0,0,1,.25.93,1.71,1.71,0,0,1-.25.93,1.54,1.54,0,0,1-.69.62,2.25,2.25,0,0,1-1,.22H23.18v2.12Zm2.1-2.92a1.18,1.18,0,0,0,.8-.26.89.89,0,0,0,.31-.71.91.91,0,0,0-.31-.72,1.14,1.14,0,0,0-.8-.27H23.18v2Z"/><path d="M29.09,53a2.52,2.52,0,0,1-1-1.06,3.84,3.84,0,0,1,0-3.16,2.55,2.55,0,0,1,1-1.05,3.11,3.11,0,0,1,2.94,0,2.55,2.55,0,0,1,1,1.05A3.84,3.84,0,0,1,33,52,2.52,2.52,0,0,1,32,53a3.11,3.11,0,0,1-2.94,0Zm2.41-.76a1.7,1.7,0,0,0,.62-.75,3,3,0,0,0,0-2.26,1.7,1.7,0,0,0-.62-.75,1.83,1.83,0,0,0-1.88,0,1.66,1.66,0,0,0-.63.75,3,3,0,0,0,0,2.26,1.66,1.66,0,0,0,.63.75,1.83,1.83,0,0,0,1.88,0Z"/><path d="M35,53.23V47.55h2.23a2.23,2.23,0,0,1,1,.23,1.71,1.71,0,0,1,.7.63,1.68,1.68,0,0,1,.25.93,1.71,1.71,0,0,1-.25.93,1.54,1.54,0,0,1-.69.62,2.25,2.25,0,0,1-1,.22H36v2.12Zm2.1-2.92a1.18,1.18,0,0,0,.8-.26.89.89,0,0,0,.31-.71.91.91,0,0,0-.31-.72,1.14,1.14,0,0,0-.8-.27H36v2Z"/><path d="M41.73,53.14A1.83,1.83,0,0,1,41,52.4a2.25,2.25,0,0,1-.26-1.13V47.55h1v3.69a1.28,1.28,0,0,0,.32.93,1.13,1.13,0,0,0,.88.36,1.11,1.11,0,0,0,.86-.35,1.36,1.36,0,0,0,.32-1V47.55h1v3.72a2.25,2.25,0,0,1-.27,1.13,1.81,1.81,0,0,1-.76.74,2.74,2.74,0,0,1-2.33,0Z"/><path d="M50.1,53.23H46.86V47.55h1v4.81H50.1Z"/><path d="M52.24,53.23h-1l1.88-5.68h1.24l1.88,5.68h-1L54.81,52H52.63Zm1.48-4.82-.9,2.8h1.79l-.87-2.8Z"/><path d="M58.68,53.23h-1V47.55h1Z"/><path d="M60.52,53.23V47.55h2.32a2.38,2.38,0,0,1,1,.22,1.59,1.59,0,0,1,.7.6,1.55,1.55,0,0,1,.25.89,1.44,1.44,0,0,1-.33.94,1.6,1.6,0,0,1-.87.55l1.2,2.48H63.76l-1.06-2.3H61.52v2.3Zm2.25-3a1.17,1.17,0,0,0,.77-.25.89.89,0,0,0,0-1.33,1.12,1.12,0,0,0-.77-.25H61.52v1.83Z"/><path d="M70.06,53.23H66.5V47.55H70v.84H67.46v1.54h2.2v.76h-2.2v1.7h2.6Z"/></g></g></svg>