<svg width="31" height="28" xmlns="http://www.w3.org/2000/svg" xmlns:xlink="http://www.w3.org/1999/xlink"><defs><path id="a" d="M.906 0h29v12h-29z"/></defs><g fill="none" fill-rule="evenodd"><path d="M16.714 13.82v-1.512c.69 0 1.292-.128 1.806-.385a2.84 2.84 0 001.183-1.057 2.83 2.83 0 00.413-1.512c0-.672-.206-1.227-.616-1.666-.411-.439-1.041-.78-1.89-1.022l-.896-.28v-3.5c.494.075.896.301 1.204.679.308.378.48.852.518 1.421l1.106-.266c-.066-.812-.353-1.48-.861-2.002-.51-.523-1.165-.817-1.967-.882V.52h-.532v1.302c-.878.047-1.57.334-2.08.861-.508.527-.762 1.188-.762 1.981 0 .653.184 1.188.553 1.603.368.415.95.744 1.743.987l.546.168v3.78c-.635-.112-1.15-.399-1.547-.861-.397-.462-.605-1.034-.623-1.715l-1.162.238c.046.933.373 1.71.98 2.331.606.62 1.39.982 2.352 1.085v1.54h.532zm-.532-7.588l-.084-.028c-.56-.168-.966-.383-1.218-.644s-.378-.597-.378-1.008c0-.457.151-.842.455-1.155.303-.313.711-.488 1.225-.525v3.36zm.56 5.026h-.028V7.576l.448.14c.625.196 1.078.432 1.358.707.28.275.42.618.42 1.029 0 .523-.201.954-.602 1.295-.402.34-.934.511-1.596.511z" fill="#000" fill-rule="nonzero"/><g transform="translate(.094 15)"><mask id="b" fill="#fff"><use xlink:href="#a"/></mask><path d="M20.115 5.031l-2.314 1.513-2.292-1.413 4.606-.1zm9.077-3.008c-.03.327-.2.624-.47.815L17.46 10.946a1.852 1.852 0 01-1.66.258L6.873 8.289a5.521 5.521 0 00-1.712-.272h-.004a5.63 5.63 0 00-2.702.693.3.3 0 00-.05.035l-.79.682V3.463l5.23-1.913a6.886 6.886 0 013.093-.367L20.003 2.33a1.078 1.078 0 01.201.044l.007.002a1.059 1.059 0 01.737 1.099c-.048.541-.496.96-1.043.973l-5.407.119-2.68.057a.294.294 0 00-.288.3v.007a.288.288 0 00.3.279l2.601-.056 3.22 1.984c.097.06.222.058.317-.004L27.414.958a1.181 1.181 0 011.473.174c.226.24.337.565.305.89zM24.161.81c.556-.227 1.2-.08 1.602.364l.093.103-4.506 2.947.107-.323a1.622 1.622 0 00.081-.51c0-.427-.161-.83-.455-1.138l-.12-.126L24.16.81zm5.245-.156A1.905 1.905 0 0027.027.37l-.656.429A2.146 2.146 0 0023.89.16l-3.641 1.499a1.803 1.803 0 00-.168-.027L10.017.483A7.574 7.574 0 006.6.89L1.177 2.873a.412.412 0 00-.271.386v6.81a.416.416 0 00.686.31l1.242-1.073a4.883 4.883 0 013.817-.348l8.928 2.915a2.562 2.562 0 002.299-.356l11.26-8.108a1.838 1.838 0 00.268-2.755z" fill="#000" mask="url(#b)"/></g></g></svg>