<svg xmlns="http://www.w3.org/2000/svg" viewBox="0 0 55.35 9.18">
  <path
    d="M4.83 7.62l-3 1.57.56-3.33L0 3.55l3.34-.48 1.49-3 1.49 3 3.34.48-2.42 2.31.57 3.33zM16.67 7.62l-3 1.57.57-3.33-2.39-2.31 3.33-.48 1.49-3 1.5 3 3.33.48-2.41 2.31.57 3.33zM28.52 7.62l-3 1.57.57-3.33-2.4-2.31L27 3.03l1.49-3 1.49 3 3.37.52-2.42 2.31.57 3.33zM39.52 7.62l-3 1.57.57-3.33-2.4-2.31L38 3.03l1.49-3 1.49 3 3.37.52-2.42 2.31.57 3.33zM50.52 2.26l.6 1.21.23.47.52.08 1.33.19-1 .94-.34.4.09.52.23 1.33L51 6.73l-.47-.24-.46.24-1.19.63.22-1.33.08-.48-.38-.4-1-.94 1.33-.19.52-.08.23-.47.6-1.21m0-2.26L49 3.03l-3.31.52 2.42 2.35-.57 3.33 3-1.57 3 1.57-.57-3.33 2.38-2.35L52 3.03l-1.49-3z" />
  <path d="M50.52 7.62l-3 1.57.57-3.33-2.4-2.31L49 3.03l1.49-3z" />
</svg>