<?xml version="1.0" encoding="UTF-8"?>
<svg width="25px" height="27px" viewBox="0 0 25 27" version="1.1" xmlns="http://www.w3.org/2000/svg" xmlns:xlink="http://www.w3.org/1999/xlink">
    <title>Group 2</title>
    <g id="Page-1" stroke="none" stroke-width="1" fill="none" fill-rule="evenodd">
        <g id="Group-2" transform="translate(1.000000, 0.970000)" stroke-width="0.8">
            <g id="Group" transform="translate(0.000000, 5.030000)" stroke="#000000">
                <polygon id="Stroke-10" points="0 19.22264 22.57772 19.22264 22.57772 0.57148 0 0.57148"></polygon>
            </g>
            <line x1="11.5" y1="24.53" x2="11.5" y2="5.53" id="Path-2-Copy-9" stroke="#0D0D0D"></line>
            <line x1="-1.26079702e-13" y1="12.53" x2="23" y2="12.53" id="Path-2-Copy-10" stroke="#0D0D0D"></line>
            <path d="M16.1113023,0.4 C16.4840356,0.4 16.7919903,0.472376012 17.0334918,0.609371979 C17.270166,0.743629517 17.437615,0.940054701 17.5385665,1.17572048 C17.7847702,1.75047009 17.6561051,2.52471628 17.241605,3.25169163 C16.8653048,3.91166961 16.2459006,4.53707224 15.4032042,4.97575599 C14.665067,5.36000917 13.756934,5.6 12.6902775,5.6 L12.6902775,5.6 L11.5604006,5.6 C12.0142857,3.92010164 12.6055879,2.63689134 13.3476747,1.75806571 C14.1080009,0.857639882 15.0270288,0.4 16.1113023,0.4 Z" id="Path" stroke="#000000"></path>
            <path d="M11.5513023,0.4 C11.9240356,0.4 12.2319903,0.472376012 12.4734918,0.609371979 C12.710166,0.743629517 12.877615,0.940054701 12.9785665,1.17572048 C13.2247702,1.75047009 13.0961051,2.52471628 12.681605,3.25169163 C12.3053048,3.91166961 11.6859006,4.53707224 10.8432042,4.97575599 C10.105067,5.36000917 9.19693402,5.6 8.13027753,5.6 L8.13027753,5.6 L7.00040058,5.6 C7.4542857,3.92010164 8.04558792,2.63689134 8.78767473,1.75806571 C9.5480009,0.857639882 10.4670288,0.4 11.5513023,0.4 Z" id="Path-Copy" stroke="#000000" transform="translate(9.202165, 3.000000) scale(-1, 1) translate(-9.202165, -3.000000) "></path>
        </g>
    </g>
</svg>