<?xml version="1.0" encoding="UTF-8"?>
<svg width="93px" height="92px" viewBox="0 0 93 92" version="1.1" xmlns="http://www.w3.org/2000/svg" xmlns:xlink="http://www.w3.org/1999/xlink">
    <title>ELEMENT / DESKTOP / MESSAGE / BRANDED FORTUNE / TWO LINES Copy 3</title>
    <g id="Page-1" stroke="none" stroke-width="1" fill="none" fill-rule="evenodd">
        <g id="ELEMENT-/-DESKTOP-/-MESSAGE-/-BRANDED-FORTUNE-/-TWO-LINES-Copy-3" transform="translate(0.501592, 0.000000)">
            <g id="SHAPE-/-SPARKLE-/-GREEN" fill="#DDFF98">
                <path d="M47.0971189,0 L44.9467659,0 C33.7122687,19.7720841 19.7393627,33.7128107 0,44.9445507 L0,46.985086 C19.7656936,58.2344168 33.7473765,72.2015296 44.9818737,92 L47.0620111,92 C58.2965083,72.2015296 72.2343064,58.1904398 92,46.9499044 L92,44.9797323 C72.2606373,33.7479924 58.3316161,19.7632887 47.0971189,0" id="Path"></path>
            </g>
            <path d="M33.8656202,42.088 L34.3091402,40.8604 L36.7564202,40.8604 L37.1920202,42.088 L38.2295402,42.088 L36.1386602,36.47272 L34.9348202,36.47272 L32.8281002,42.088 L33.8656202,42.088 Z M36.5346602,40.09216 L34.5229802,40.09216 L35.5288202,37.32808 L35.5446602,37.32808 L36.5346602,40.09216 Z M43.1993401,42.088 L43.1993401,41.23264 L40.5857401,41.23264 L40.5857401,36.47272 L39.6036601,36.47272 L39.6036601,42.088 L43.1993401,42.088 Z M48.20874,42.088 L48.20874,41.23264 L45.59514,41.23264 L45.59514,36.47272 L44.61306,36.47272 L44.61306,42.088 L48.20874,42.088 Z M53.59038,42.088 L53.59038,41.26432 L50.57286,41.26432 L50.57286,39.57736 L53.19438,39.57736 L53.19438,38.82496 L50.57286,38.82496 L50.57286,37.2964 L53.51118,37.2964 L53.51118,36.47272 L49.62246,36.47272 L49.62246,42.088 L53.59038,42.088 Z M59.2412999,42.088 L59.2412999,41.296 L55.8594599,41.296 L59.1620999,37.3756 L59.1620999,36.47272 L54.8377799,36.47272 L54.8377799,37.27264 L58.0770599,37.27264 L54.7585799,41.20096 L54.7585799,42.088 L59.2412999,42.088 Z M24.2071803,53.176 L24.2071803,51.1168 L25.6882203,51.1168 C26.1000603,51.1168 26.4657003,51.04288 26.7851403,50.89504 C27.1045803,50.7472 27.3527403,50.53864 27.5296203,50.26936 C27.7065003,50.00008 27.7949403,49.6912 27.7949403,49.34272 C27.7949403,48.99424 27.7065003,48.68536 27.5296203,48.41608 C27.3527403,48.1468 27.1059003,47.93692 26.7891003,47.78644 C26.4723003,47.63596 26.1079803,47.56072 25.6961403,47.56072 L25.6961403,47.56072 L23.2330203,47.56072 L23.2330203,53.176 L24.2071803,53.176 Z M25.5931803,50.33272 L24.2071803,50.33272 L24.2071803,48.3448 L25.5931803,48.3448 C25.9575003,48.3448 26.2518603,48.4372 26.4762603,48.622 C26.7006603,48.8068 26.8128603,49.04704 26.8128603,49.34272 C26.8128603,49.63312 26.6993403,49.87072 26.4723003,50.05552 C26.2452603,50.24032 25.9522203,50.33272 25.5931803,50.33272 L25.5931803,50.33272 Z M32.8597803,53.176 L32.8597803,52.32064 L30.2461803,52.32064 L30.2461803,47.56072 L29.2641003,47.56072 L29.2641003,53.176 L32.8597803,53.176 Z M36.3960602,53.374 C36.8765402,53.374 37.2963002,53.27764 37.6553402,53.08492 C38.0143802,52.8922 38.2929002,52.62028 38.4909002,52.26916 C38.6889002,51.91804 38.7879002,51.51016 38.7879002,51.04552 L38.7879002,51.04552 L38.7879002,47.56072 L37.7979002,47.56072 L37.7979002,51.02968 C37.7979002,51.4732 37.6711802,51.83224 37.4177402,52.1068 C37.1643002,52.38136 36.8237402,52.51864 36.3960602,52.51864 C36.1162202,52.51864 35.8693802,52.45264 35.6555402,52.32064 C35.4417002,52.18864 35.2780202,52.01044 35.1645002,51.78604 C35.0509802,51.56164 34.9942202,51.30952 34.9942202,51.02968 L34.9942202,51.02968 L34.9942202,47.56072 L34.0042202,47.56072 L34.0042202,51.04552 C34.0042202,51.51016 34.1019002,51.91804 34.2972602,52.26916 C34.4926202,52.62028 34.7711402,52.8922 35.1328202,53.08492 C35.4945002,53.27764 35.9155802,53.374 36.3960602,53.374 Z M42.6805801,53.374 C43.1241001,53.374 43.5174601,53.29744 43.8606601,53.14432 C44.2038601,52.9912 44.4691801,52.77736 44.6566201,52.5028 C44.8440601,52.22824 44.9377801,51.9088 44.9377801,51.54448 C44.9377801,51.12736 44.7952201,50.78944 44.5101001,50.53072 C44.2249801,50.272 43.7893801,50.08456 43.2033001,49.9684 L43.2033001,49.9684 L42.3479401,49.79416 C42.0258601,49.72552 41.7909001,49.62916 41.6430601,49.50508 C41.4952201,49.381 41.4213001,49.21864 41.4213001,49.018 C41.4213001,48.76456 41.5203001,48.556 41.7183001,48.39232 C41.9163001,48.22864 42.1789801,48.1468 42.5063401,48.1468 C42.8231401,48.1468 43.0897801,48.24184 43.3062601,48.43192 C43.5227401,48.622 43.6494601,48.87016 43.6864201,49.1764 L43.6864201,49.1764 L44.5972201,48.97048 C44.5497001,48.65368 44.4295801,48.37384 44.2368601,48.13096 C44.0441401,47.88808 43.7986201,47.69932 43.5003001,47.56468 C43.2019801,47.43004 42.8706601,47.36272 42.5063401,47.36272 C42.1050601,47.36272 41.7486601,47.43664 41.4371401,47.58448 C41.1256201,47.73232 40.8827401,47.93956 40.7085001,48.2062 C40.5342601,48.47284 40.4471401,48.7804 40.4471401,49.12888 C40.4471401,49.53544 40.5778201,49.86148 40.8391801,50.107 C41.1005401,50.35252 41.5084201,50.53336 42.0628201,50.64952 L42.0628201,50.64952 L42.9102601,50.83168 C43.2798601,50.91088 43.5491401,51.01648 43.7181001,51.14848 C43.8870601,51.28048 43.9715401,51.45472 43.9715401,51.6712 C43.9715401,51.94048 43.8567001,52.16092 43.6270201,52.33252 C43.3973401,52.50412 43.0897801,52.58992 42.7043401,52.58992 C42.4192201,52.58992 42.1605001,52.53448 41.9281801,52.4236 C41.6958601,52.31272 41.5084201,52.15696 41.3658601,51.95632 C41.2233001,51.75568 41.1414601,51.52864 41.1203401,51.2752 L41.1203401,51.2752 L40.1937001,51.44944 C40.2359401,51.83488 40.3692601,52.1728 40.5936601,52.4632 C40.8180601,52.7536 41.1111001,52.978 41.4727801,53.1364 C41.8344601,53.2948 42.2370601,53.374 42.6805801,53.374 Z M52.80234,53.176 L52.80234,52.32064 L50.18874,52.32064 L50.18874,47.56072 L49.20666,47.56072 L49.20666,53.176 L52.80234,53.176 Z M56.7504599,53.374 C57.3629399,53.374 57.9001799,53.24992 58.3621799,53.00176 C58.8241799,52.7536 59.1818999,52.40248 59.4353399,51.9484 C59.6887799,51.49432 59.8154999,50.96896 59.8154999,50.37232 C59.8154999,49.77568 59.6887799,49.249 59.4353399,48.79228 C59.1818999,48.33556 58.8241799,47.98312 58.3621799,47.73496 C57.9001799,47.4868 57.3629399,47.36272 56.7504599,47.36272 C56.1379799,47.36272 55.6007399,47.4868 55.1387399,47.73496 C54.6767399,47.98312 54.3203399,48.33424 54.0695399,48.78832 C53.8187399,49.2424 53.6933399,49.7704 53.6933399,50.37232 C53.6933399,50.96896 53.8187399,51.49432 54.0695399,51.9484 C54.3203399,52.40248 54.6767399,52.7536 55.1387399,53.00176 C55.6007399,53.24992 56.1379799,53.374 56.7504599,53.374 Z M56.7504599,52.51864 C56.3386199,52.51864 55.9756199,52.4302 55.6614599,52.25332 C55.3472999,52.07644 55.1044199,51.82564 54.9328199,51.50092 C54.7612199,51.1762 54.6754199,50.8 54.6754199,50.37232 C54.6754199,49.94464 54.7612199,49.56844 54.9328199,49.24372 C55.1044199,48.919 55.3472999,48.6682 55.6614599,48.49132 C55.9756199,48.31444 56.3386199,48.226 56.7504599,48.226 C57.1622999,48.226 57.5252999,48.31444 57.8394599,48.49132 C58.1536199,48.6682 58.3964999,48.919 58.5680999,49.24372 C58.7396999,49.56844 58.8254999,49.94464 58.8254999,50.37232 C58.8254999,50.8 58.7396999,51.1762 58.5680999,51.50092 C58.3964999,51.82564 58.1536199,52.07644 57.8394599,52.25332 C57.5252999,52.4302 57.1622999,52.51864 56.7504599,52.51864 Z M62.3696998,53.176 L62.3696998,47.56072 L61.3876198,47.56072 L61.3876198,53.176 L62.3696998,53.176 Z M65.0902197,53.176 L65.0902197,48.78832 L65.1060597,48.78832 L67.7038197,53.176 L68.9155797,53.176 L68.9155797,47.56072 L67.9572597,47.56072 L67.9572597,51.96424 L67.9414197,51.96424 L65.3515797,47.56072 L64.1398197,47.56072 L64.1398197,53.176 L65.0902197,53.176 Z" id="ALLEZPLUSLOIN" fill="#000000" fill-rule="nonzero"></path>
        </g>
    </g>
</svg>