<svg xmlns="http://www.w3.org/2000/svg" width="260" height="62.266" viewBox="0 0 260 62.266">
  <g id="Group_459" data-name="Group 459" transform="translate(-140 -176.469)">
    <g id="Group_309" data-name="Group 309" transform="translate(-95.055 -330.13)">
      <g id="PRODUCT-LANDING-PAGE" transform="translate(377.819 506.599)">
        <g id="Artboard">
          <g id="Group-26">
            <g id="Combined-Shape">
              <path id="Path_1309" data-name="Path 1309" d="M342.378,507.275c7.751,2.821,10.924,13.656,7.088,24.2s-13.233,16.8-20.984,13.98-10.926-13.655-7.088-24.2S334.626,504.454,342.378,507.275Zm-19.425,14.548c-3.554,9.768-.672,19.607,6.1,22.071s15.3-3.221,18.855-12.989.672-19.607-6.1-22.069S326.509,512.056,322.953,521.823Zm21.9-5.08,1.313,1.016-15.549,20.074-6.062-8.039,1.325-1,4.754,6.3Z" transform="translate(-319.765 -506.599)"/>
            </g>
          </g>
        </g>
      </g>
      <g id="Group_308" data-name="Group 308" transform="translate(235.055 507.031)">
        <g id="Group_297" data-name="Group 297" transform="translate(185.819)">
          <path id="Path_1310" data-name="Path 1310" d="M345.312,539.79c2.182-.935,2.585-1.471,2.585-2.808V511.356c0-1.2-.49-1.648-2.273-3.03v-.179a44.9,44.9,0,0,0,5.838-1.293v30.127c0,1.336.4,1.872,2.585,2.808v.268h-8.735Z" transform="translate(-345.312 -506.855)"/>
          <path id="Path_1311" data-name="Path 1311" d="M351.9,530.749c0-3.965,3.7-6.1,11.541-8.912v-3.3c0-1.471-.089-4.545-2.986-4.545-2.139,0-3.03,1.827-3.7,3.564-.713,1.827-1.291,2.941-2.538,2.941a1.439,1.439,0,0,1-1.517-1.47c0-2.675,5.169-5.749,8.914-5.749,3.163,0,5.481,2.049,5.391,6.418l-.177,12.345c-.044,1.827.624,2.317,1.07,2.317.578,0,1.2-.667,1.247-2.808l.534.044c-.445,3.566-2.005,4.369-3.209,4.369-2.006,0-3.12-1.561-3.12-4.947H363.3c-1.158,2.627-3.253,4.947-6.194,4.947A5.076,5.076,0,0,1,351.9,530.749Zm11.406-.711.135-7.665c-4.813,2-8.022,4.233-8.022,7.977,0,2.584,1.694,4.011,3.253,4.011C360.852,534.361,362.279,532.222,363.3,530.038Z" transform="translate(-340.8 -502.451)"/>
          <path id="Path_1312" data-name="Path 1312" d="M365.711,511.49c0-1.114-.445-1.781-2.9-3.163v-.179a53.332,53.332,0,0,0,6.462-1.293v15.107c1.694-2.808,3.789-4.277,6.106-4.277,4.325,0,7.265,4.813,7.265,10.473,0,7.041-4.458,12.257-8.6,12.257-2.943,0-4.011-2.317-5.75-2.317a2.683,2.683,0,0,0-2.452,2.182h-.133Zm13.237,18.185c0-6.2-2.093-9.805-5.393-9.805-1.471,0-2.985.846-4.279,2.808V535.2c1.294,3.61,3.121,4.591,4.682,4.591C377.254,539.79,378.948,535.244,378.948,529.674Z" transform="translate(-333.317 -506.855)"/>
        </g>
        <g id="Group_307" data-name="Group 307" transform="translate(0 0.824)">
          <g id="Group_298" data-name="Group 298" transform="translate(110.943 10.906)">
            <path id="Path_1313" data-name="Path 1313" d="M310.623,534.9l0,.3h9.5v-.322a7.609,7.609,0,0,1-1.574-1.178,18.061,18.061,0,0,1-1.379-2.074l-5.063-9.192c.313-.635.664-1.319,1.133-2.176,1.771-3.238,6.258-2.914,6.524-2.892l.052-3.544c-2.509-.056-4.178.329-6.047,3.87-.618,1.171-1.547,3.012-2.056,4.026l-1.261-2.287-.209-.4c-.072-.147-.116-.238-.13-.26a5.953,5.953,0,0,1-.993-3.153c.147-.619.431-.858,1.264-1.4v-.3h-9.5v.322a7.56,7.56,0,0,1,1.574,1.178,5.567,5.567,0,0,1,.834,1.084l5.474,9.9c-.349.711-.731,1.468-1.266,2.445-1.771,3.238-6.079,2.916-6.345,2.894l-.052,3.544c2.508.056,4-.33,5.868-3.871.678-1.286,1.727-3.372,2.191-4.3l.612,1.106v0l.991,1.861c.072.147.116.239.128.261a5.958,5.958,0,0,1,.994,3.153C311.739,534.116,311.456,534.356,310.623,534.9Z" transform="translate(-300.884 -513.815)"/>
          </g>
          <g id="Group_299" data-name="Group 299" transform="translate(70.162 10.338)">
            <path id="Path_1314" data-name="Path 1314" d="M285.913,515a11.058,11.058,0,0,0-2.147,3.583l-.086-.042.216-5.061a54.639,54.639,0,0,1-7.21,1.459v.253a3.414,3.414,0,0,1,2.145,3.047v13.778a3.344,3.344,0,0,1-2.1,3.045v.258h9.913v-.258l-.017-.007v0a3.407,3.407,0,0,1-2.732-3.239c0-.052,0-12.085,0-12.085a4.326,4.326,0,0,1,.9-1.567c1.37-1.345,4.476-.891,4.746-.866v-3.6C287.524,513.716,286.682,514.189,285.913,515Z" transform="translate(-276.686 -513.478)"/>
          </g>
          <g id="Group_300" data-name="Group 300" transform="translate(35.501 10.476)">
            <path id="Path_1315" data-name="Path 1315" d="M269.552,530.963a4.75,4.75,0,0,1-5.878-.108,7.256,7.256,0,0,1-2.125-3.133,13.6,13.6,0,0,1-.794-4.893c0-.2,0-.393.007-.585l11.452-.145v-.214a9.8,9.8,0,0,0-.9-4.2,7.071,7.071,0,0,0-2.6-3.027,6.931,6.931,0,0,0-3.841-1.094,7.637,7.637,0,0,0-4.529,1.416,9.337,9.337,0,0,0-3.111,3.927,13.625,13.625,0,0,0-1.116,5.6,13.378,13.378,0,0,0,1.18,5.686,9.908,9.908,0,0,0,3.177,3.993,7.286,7.286,0,0,0,4.355,1.438,5.863,5.863,0,0,0,3.455-1.01,7.93,7.93,0,0,0,2.361-2.639,25.156,25.156,0,0,0,1.781-4.119l-.233-.093A11.577,11.577,0,0,1,269.552,530.963Zm-8.326-12.554a8.618,8.618,0,0,1,1.31-3.067,2.373,2.373,0,0,1,1.909-1.138,2.046,2.046,0,0,1,1.738,1.094,8.566,8.566,0,0,1,1.052,2.489,11.235,11.235,0,0,1,.361,2c.079.9-.512,1.753-1.918,1.753l-4.892.037A16.666,16.666,0,0,1,261.227,518.409Z" transform="translate(-256.12 -513.56)"/>
          </g>
          <g id="Group_301" data-name="Group 301" transform="translate(53.283 10.476)">
            <path id="Path_1316" data-name="Path 1316" d="M280.1,530.963a4.752,4.752,0,0,1-5.88-.108,7.268,7.268,0,0,1-2.124-3.133,13.558,13.558,0,0,1-.794-4.893c0-.2,0-.393.007-.585l11.452-.145v-.214a9.823,9.823,0,0,0-.9-4.2,7.074,7.074,0,0,0-2.6-3.027,6.927,6.927,0,0,0-3.841-1.094,7.628,7.628,0,0,0-4.527,1.416,9.324,9.324,0,0,0-3.111,3.927,13.626,13.626,0,0,0-1.117,5.6,13.353,13.353,0,0,0,1.181,5.686,9.9,9.9,0,0,0,3.175,3.993,7.3,7.3,0,0,0,4.357,1.438,5.863,5.863,0,0,0,3.455-1.01,7.925,7.925,0,0,0,2.359-2.639,25.154,25.154,0,0,0,1.781-4.119l-.233-.093A11.576,11.576,0,0,1,280.1,530.963Zm-8.326-12.554a8.587,8.587,0,0,1,1.308-3.067A2.376,2.376,0,0,1,275,514.2a2.048,2.048,0,0,1,1.738,1.094,8.66,8.66,0,0,1,1.052,2.489,11.38,11.38,0,0,1,.359,2c.079.9-.511,1.753-1.916,1.753l-4.894.037A16.525,16.525,0,0,1,271.779,518.409Z" transform="translate(-266.671 -513.56)"/>
          </g>
          <g id="Group_302" data-name="Group 302" transform="translate(95.307 10.476)">
            <path id="Path_1317" data-name="Path 1317" d="M307.682,527.759a11.576,11.576,0,0,1-2.643,3.2,4.752,4.752,0,0,1-5.88-.108,7.268,7.268,0,0,1-2.124-3.133,13.558,13.558,0,0,1-.794-4.893c0-.2,0-.393.007-.585L307.7,522.1v-.214a9.823,9.823,0,0,0-.9-4.2,7.074,7.074,0,0,0-2.6-3.027,6.927,6.927,0,0,0-3.841-1.094,7.628,7.628,0,0,0-4.527,1.416,9.341,9.341,0,0,0-3.113,3.927,13.653,13.653,0,0,0-1.116,5.6,13.353,13.353,0,0,0,1.181,5.686,9.9,9.9,0,0,0,3.175,3.993,7.3,7.3,0,0,0,4.357,1.438,5.863,5.863,0,0,0,3.455-1.01,7.926,7.926,0,0,0,2.359-2.639,25.159,25.159,0,0,0,1.781-4.119Zm-10.968-9.35a8.587,8.587,0,0,1,1.308-3.067,2.373,2.373,0,0,1,1.911-1.138,2.048,2.048,0,0,1,1.738,1.094,8.66,8.66,0,0,1,1.052,2.489,11.386,11.386,0,0,1,.359,2c.079.9-.512,1.753-1.916,1.753l-4.894.037A16.52,16.52,0,0,1,296.714,518.409Z" transform="translate(-291.606 -513.56)"/>
          </g>
          <g id="Group_303" data-name="Group 303" transform="translate(0 10.248)">
            <path id="Path_1318" data-name="Path 1318" d="M244.425,522.752l-2.4-1.321c.126.076.266.163.249.155a10.45,10.45,0,0,1-2.531-1.9,3.707,3.707,0,0,1-.8-2.418,3.375,3.375,0,0,1,.755-2.4,2.439,2.439,0,0,1,1.835-.8,3.734,3.734,0,0,1,2.786,1.426c.927.986,1.658,2.72,2.638,5.31h.536l-.389-7.384h-5.786a6.8,6.8,0,0,0-2.958.691,5.978,5.978,0,0,0-2.375,2.029,5.613,5.613,0,0,0-.929,3.283,5.914,5.914,0,0,0,1.23,3.928,10.692,10.692,0,0,0,3,2.462l2.72,1.468a6.661,6.661,0,0,1,2.051,1.727,4.162,4.162,0,0,1,.755,2.59,3.53,3.53,0,0,1-.777,2.5,2.467,2.467,0,0,1-1.857.821,3.924,3.924,0,0,1-2.029-.561,7.507,7.507,0,0,1-2.095-2.225,38.678,38.678,0,0,1-2.378-4.987h-.536l.431,8.162c.546-.46,4.031-.052,5.206.153a8.9,8.9,0,0,0,1.444.148,6.872,6.872,0,0,0,3.217-.8,6.6,6.6,0,0,0,2.483-2.224,5.7,5.7,0,0,0,.951-3.238,6.193,6.193,0,0,0-1.3-3.886A10.23,10.23,0,0,0,244.425,522.752Z" transform="translate(-235.055 -513.425)"/>
          </g>
          <g id="Group_304" data-name="Group 304" transform="translate(6.778 18.151)">
            <path id="Path_1319" data-name="Path 1319" d="M239.266,518.217a1.444,1.444,0,0,0-.189-.1Z" transform="translate(-239.077 -518.114)"/>
          </g>
          <g id="Group_305" data-name="Group 305" transform="translate(14.172)">
            <path id="Path_1320" data-name="Path 1320" d="M262.36,536.178V523.911a6.091,6.091,0,0,0-1.615-4.626,5.21,5.21,0,0,0-3.679-1.529,5.7,5.7,0,0,0-3.617,1.293,8.9,8.9,0,0,0-2.582,3.357V507.344c-1.694.431-7.144,1.436-7.4,1.465v.255a3.6,3.6,0,0,1,2.368,3.185l-.007,23.765a3.722,3.722,0,0,1-2.1,3.221v.258h9.252v-.258a3.648,3.648,0,0,1-2.108-3.056V523.309a6.288,6.288,0,0,1,1.721-2.174,3.274,3.274,0,0,1,1.98-.753,2.342,2.342,0,0,1,2.066,1.1,6.187,6.187,0,0,1,.731,3.377l-.086,11.32a3.479,3.479,0,0,1-2.108,3.056v.258h9.3v-.258A3.58,3.58,0,0,1,262.36,536.178Z" transform="translate(-243.464 -507.344)"/>
          </g>
          <g id="Group_306" data-name="Group 306" transform="translate(84.371 4.775)">
            <path id="Path_1321" data-name="Path 1321" d="M294.651,534.926a1.663,1.663,0,0,1-1.1.474,1.287,1.287,0,0,1-1.271-.861,7.6,7.6,0,0,1-.366-2.756v-14.5h3.615l.216-.947h-3.917v-6.155h-.3a12.98,12.98,0,0,1-2.646,4.326,13.151,13.151,0,0,1-3.767,2.474v.3a2.9,2.9,0,0,1,1.722,2.606v12.458a5.978,5.978,0,0,0,1.247,4.132,3.967,3.967,0,0,0,3.057,1.377,3.86,3.86,0,0,0,2.754-1.011,10.492,10.492,0,0,0,2.108-3.293l-.221-.131A6.223,6.223,0,0,1,294.651,534.926Z" transform="translate(-285.117 -510.177)"/>
          </g>
        </g>
      </g>
    </g>
    <line id="Line_37" data-name="Line 37" x2="260" transform="translate(140 238.234)" fill="none" stroke="#000" stroke-width="1"/>
  </g>
</svg>
