<?xml version="1.0" encoding="UTF-8"?>
<svg width="93px" height="92px" viewBox="0 0 93 92" version="1.1" xmlns="http://www.w3.org/2000/svg" xmlns:xlink="http://www.w3.org/1999/xlink">
    <title>ELEMENT / DESKTOP / MESSAGE / BRANDED FORTUNE / TWO LINES Copy 2</title>
    <g id="Page-1" stroke="none" stroke-width="1" fill="none" fill-rule="evenodd">
        <g id="ELEMENT-/-DESKTOP-/-MESSAGE-/-BRANDED-FORTUNE-/-TWO-LINES-Copy-2" transform="translate(0.501592, 0.000000)">
            <g id="SHAPE-/-SPARKLE-/-GREEN" fill="#FFFFFF">
                <path d="M47.0971189,0 L44.9467659,0 C33.7122687,19.7720841 19.7393627,33.7128107 0,44.9445507 L0,46.985086 C19.7656936,58.2344168 33.7473765,72.2015296 44.9818737,92 L47.0620111,92 C58.2965083,72.2015296 72.2343064,58.1904398 92,46.9499044 L92,44.9797323 C72.2606373,33.7479924 58.3316161,19.7632887 47.0971189,0" id="Path"></path>
            </g>
            <path d="M26.8762203,42.088 L26.8762203,41.26432 L23.8587003,41.26432 L23.8587003,39.57736 L26.4802203,39.57736 L26.4802203,38.82496 L23.8587003,38.82496 L23.8587003,37.2964 L26.7970203,37.2964 L26.7970203,36.47272 L22.9083003,36.47272 L22.9083003,42.088 L26.8762203,42.088 Z M30.5629803,42.286 C31.0065003,42.286 31.3998603,42.20944 31.7430603,42.05632 C32.0862603,41.9032 32.3515803,41.68936 32.5390203,41.4148 C32.7264603,41.14024 32.8201803,40.8208 32.8201803,40.45648 C32.8201803,40.03936 32.6776203,39.70144 32.3925003,39.44272 C32.1073803,39.184 31.6717803,38.99656 31.0857003,38.8804 L31.0857003,38.8804 L30.2303403,38.70616 C29.9082603,38.63752 29.6733003,38.54116 29.5254603,38.41708 C29.3776203,38.293 29.3037003,38.13064 29.3037003,37.93 C29.3037003,37.67656 29.4027003,37.468 29.6007003,37.30432 C29.7987003,37.14064 30.0613803,37.0588 30.3887403,37.0588 C30.7055403,37.0588 30.9721803,37.15384 31.1886603,37.34392 C31.4051403,37.534 31.5318603,37.78216 31.5688203,38.0884 L31.5688203,38.0884 L32.4796203,37.88248 C32.4321003,37.56568 32.3119803,37.28584 32.1192603,37.04296 C31.9265403,36.80008 31.6810203,36.61132 31.3827003,36.47668 C31.0843803,36.34204 30.7530603,36.27472 30.3887403,36.27472 C29.9874603,36.27472 29.6310603,36.34864 29.3195403,36.49648 C29.0080203,36.64432 28.7651403,36.85156 28.5909003,37.1182 C28.4166603,37.38484 28.3295403,37.6924 28.3295403,38.04088 C28.3295403,38.44744 28.4602203,38.77348 28.7215803,39.019 C28.9829403,39.26452 29.3908203,39.44536 29.9452203,39.56152 L29.9452203,39.56152 L30.7926603,39.74368 C31.1622603,39.82288 31.4315403,39.92848 31.6005003,40.06048 C31.7694603,40.19248 31.8539403,40.36672 31.8539403,40.5832 C31.8539403,40.85248 31.7391003,41.07292 31.5094203,41.24452 C31.2797403,41.41612 30.9721803,41.50192 30.5867403,41.50192 C30.3016203,41.50192 30.0429003,41.44648 29.8105803,41.3356 C29.5782603,41.22472 29.3908203,41.06896 29.2482603,40.86832 C29.1057003,40.66768 29.0238603,40.44064 29.0027403,40.1872 L29.0027403,40.1872 L28.0761003,40.36144 C28.1183403,40.74688 28.2516603,41.0848 28.4760603,41.3752 C28.7004603,41.6656 28.9935003,41.89 29.3551803,42.0484 C29.7168603,42.2068 30.1194603,42.286 30.5629803,42.286 Z M36.4673402,42.286 C36.9108602,42.286 37.3042202,42.20944 37.6474202,42.05632 C37.9906202,41.9032 38.2559402,41.68936 38.4433802,41.4148 C38.6308202,41.14024 38.7245402,40.8208 38.7245402,40.45648 C38.7245402,40.03936 38.5819802,39.70144 38.2968602,39.44272 C38.0117402,39.184 37.5761402,38.99656 36.9900602,38.8804 L36.9900602,38.8804 L36.1347002,38.70616 C35.8126202,38.63752 35.5776602,38.54116 35.4298202,38.41708 C35.2819802,38.293 35.2080602,38.13064 35.2080602,37.93 C35.2080602,37.67656 35.3070602,37.468 35.5050602,37.30432 C35.7030602,37.14064 35.9657402,37.0588 36.2931002,37.0588 C36.6099002,37.0588 36.8765402,37.15384 37.0930202,37.34392 C37.3095002,37.534 37.4362202,37.78216 37.4731802,38.0884 L37.4731802,38.0884 L38.3839802,37.88248 C38.3364602,37.56568 38.2163402,37.28584 38.0236202,37.04296 C37.8309002,36.80008 37.5853802,36.61132 37.2870602,36.47668 C36.9887402,36.34204 36.6574202,36.27472 36.2931002,36.27472 C35.8918202,36.27472 35.5354202,36.34864 35.2239002,36.49648 C34.9123802,36.64432 34.6695002,36.85156 34.4952602,37.1182 C34.3210202,37.38484 34.2339002,37.6924 34.2339002,38.04088 C34.2339002,38.44744 34.3645802,38.77348 34.6259402,39.019 C34.8873002,39.26452 35.2951802,39.44536 35.8495802,39.56152 L35.8495802,39.56152 L36.6970202,39.74368 C37.0666202,39.82288 37.3359002,39.92848 37.5048602,40.06048 C37.6738202,40.19248 37.7583002,40.36672 37.7583002,40.5832 C37.7583002,40.85248 37.6434602,41.07292 37.4137802,41.24452 C37.1841002,41.41612 36.8765402,41.50192 36.4911002,41.50192 C36.2059802,41.50192 35.9472602,41.44648 35.7149402,41.3356 C35.4826202,41.22472 35.2951802,41.06896 35.1526202,40.86832 C35.0100602,40.66768 34.9282202,40.44064 34.9071002,40.1872 L34.9071002,40.1872 L33.9804602,40.36144 C34.0227002,40.74688 34.1560202,41.0848 34.3804202,41.3752 C34.6048202,41.6656 34.8978602,41.89 35.2595402,42.0484 C35.6212202,42.2068 36.0238202,42.286 36.4673402,42.286 Z M44.1457801,42.088 L44.1457801,41.26432 L41.1282601,41.26432 L41.1282601,39.57736 L43.7497801,39.57736 L43.7497801,38.82496 L41.1282601,38.82496 L41.1282601,37.2964 L44.0665801,37.2964 L44.0665801,36.47272 L40.1778601,36.47272 L40.1778601,42.088 L44.1457801,42.088 Z M46.5891,42.088 L46.5891,37.70032 L46.60494,37.70032 L49.2027,42.088 L50.41446,42.088 L50.41446,36.47272 L49.45614,36.47272 L49.45614,40.87624 L49.4403,40.87624 L46.85046,36.47272 L45.6387,36.47272 L45.6387,42.088 L46.5891,42.088 Z M54.59226,42.088 L54.59226,37.336 L56.37426,37.336 L56.37426,36.47272 L51.82026,36.47272 L51.82026,37.336 L53.61018,37.336 L53.61018,42.088 L54.59226,42.088 Z M58.7700599,42.088 L58.7700599,36.47272 L57.7879799,36.47272 L57.7879799,42.088 L58.7700599,42.088 Z M64.5080998,42.088 L64.5080998,41.26432 L61.4905798,41.26432 L61.4905798,39.57736 L64.1120998,39.57736 L64.1120998,38.82496 L61.4905798,38.82496 L61.4905798,37.2964 L64.4288998,37.2964 L64.4288998,36.47272 L60.5401798,36.47272 L60.5401798,42.088 L64.5080998,42.088 Z M69.5966997,42.088 L69.5966997,41.23264 L66.9830997,41.23264 L66.9830997,36.47272 L66.0010197,36.47272 L66.0010197,42.088 L69.5966997,42.088 Z M20.9936404,53.176 L20.9936404,51.1168 L22.4746804,51.1168 C22.8865204,51.1168 23.2521604,51.04288 23.5716004,50.89504 C23.8910404,50.7472 24.1392004,50.53864 24.3160804,50.26936 C24.4929604,50.00008 24.5814004,49.6912 24.5814004,49.34272 C24.5814004,48.99424 24.4929604,48.68536 24.3160804,48.41608 C24.1392004,48.1468 23.8923604,47.93692 23.5755604,47.78644 C23.2587604,47.63596 22.8944404,47.56072 22.4826004,47.56072 L22.4826004,47.56072 L20.0194804,47.56072 L20.0194804,53.176 L20.9936404,53.176 Z M22.3796404,50.33272 L20.9936404,50.33272 L20.9936404,48.3448 L22.3796404,48.3448 C22.7439604,48.3448 23.0383204,48.4372 23.2627204,48.622 C23.4871204,48.8068 23.5993204,49.04704 23.5993204,49.34272 C23.5993204,49.63312 23.4858004,49.87072 23.2587604,50.05552 C23.0317204,50.24032 22.7386804,50.33272 22.3796404,50.33272 L22.3796404,50.33272 Z M27.0326403,53.176 L27.0326403,50.92672 L28.4107203,50.92672 L29.5987203,53.176 L30.6916803,53.176 L29.3611203,50.74456 C29.7888003,50.67064 30.1293603,50.4964 30.3828003,50.22184 C30.6362403,49.94728 30.7629603,49.61464 30.7629603,49.22392 C30.7629603,48.89656 30.6771603,48.60748 30.5055603,48.35668 C30.3339603,48.10588 30.0910803,47.91052 29.7769203,47.7706 C29.4627603,47.63068 29.1024003,47.56072 28.6958403,47.56072 L28.6958403,47.56072 L26.0505603,47.56072 L26.0505603,53.176 L27.0326403,53.176 Z M28.6087203,50.17432 L27.0326403,50.17432 L27.0326403,48.3448 L28.6087203,48.3448 C28.9572003,48.3448 29.2383603,48.4306 29.4522003,48.6022 C29.6660403,48.7738 29.7729603,48.99424 29.7729603,49.26352 C29.7729603,49.53808 29.6660403,49.75852 29.4522003,49.92484 C29.2383603,50.09116 28.9572003,50.17432 28.6087203,50.17432 L28.6087203,50.17432 Z M33.2934002,53.176 L33.2934002,47.56072 L32.3113202,47.56072 L32.3113202,53.176 L33.2934002,53.176 Z M36.0139202,53.176 L36.0139202,48.78832 L36.0297602,48.78832 L38.6275202,53.176 L39.8392802,53.176 L39.8392802,47.56072 L38.8809602,47.56072 L38.8809602,51.96424 L38.8651202,51.96424 L36.2752802,47.56072 L35.0635202,47.56072 L35.0635202,53.176 L36.0139202,53.176 Z M44.0170801,53.176 L44.0170801,48.424 L45.7990801,48.424 L45.7990801,47.56072 L41.2450801,47.56072 L41.2450801,48.424 L43.0350001,48.424 L43.0350001,53.176 L44.0170801,53.176 Z M47.14152,53.176 L47.58504,51.9484 L50.03232,51.9484 L50.46792,53.176 L51.50544,53.176 L49.41456,47.56072 L48.21072,47.56072 L46.104,53.176 L47.14152,53.176 Z M49.81056,51.18016 L47.79888,51.18016 L48.80472,48.41608 L48.82056,48.41608 L49.81056,51.18016 Z M53.8299599,53.176 L53.8299599,48.78832 L53.8457999,48.78832 L56.4435599,53.176 L57.6553199,53.176 L57.6553199,47.56072 L56.6969999,47.56072 L56.6969999,51.96424 L56.6811599,51.96424 L54.0913199,47.56072 L52.8795599,47.56072 L52.8795599,53.176 L53.8299599,53.176 Z M60.4075198,53.176 L60.4075198,47.56072 L59.4254398,47.56072 L59.4254398,53.176 L60.4075198,53.176 Z M66.1455598,53.176 L66.1455598,52.35232 L63.1280398,52.35232 L63.1280398,50.66536 L65.7495598,50.66536 L65.7495598,49.91296 L63.1280398,49.91296 L63.1280398,48.3844 L66.0663598,48.3844 L66.0663598,47.56072 L62.1776398,47.56072 L62.1776398,53.176 L66.1455598,53.176 Z M68.6205597,53.176 L68.6205597,50.92672 L69.9986397,50.92672 L71.1866397,53.176 L72.2795997,53.176 L70.9490397,50.74456 C71.3767197,50.67064 71.7172797,50.4964 71.9707197,50.22184 C72.2241597,49.94728 72.3508797,49.61464 72.3508797,49.22392 C72.3508797,48.89656 72.2650797,48.60748 72.0934797,48.35668 C71.9218797,48.10588 71.6789997,47.91052 71.3648397,47.7706 C71.0506797,47.63068 70.6903197,47.56072 70.2837597,47.56072 L70.2837597,47.56072 L67.6384797,47.56072 L67.6384797,53.176 L68.6205597,53.176 Z M70.1966397,50.17432 L68.6205597,50.17432 L68.6205597,48.3448 L70.1966397,48.3448 C70.5451197,48.3448 70.8262797,48.4306 71.0401197,48.6022 C71.2539597,48.7738 71.3608797,48.99424 71.3608797,49.26352 C71.3608797,49.53808 71.2539597,49.75852 71.0401197,49.92484 C70.8262797,50.09116 70.5451197,50.17432 70.1966397,50.17432 L70.1966397,50.17432 Z" id="ESSENTIELPRINTANIER" fill="#000000" fill-rule="nonzero"></path>
        </g>
    </g>
</svg>