<?xml version="1.0" encoding="UTF-8"?>
<svg width="100px" height="100px" viewBox="0 0 100 100" version="1.1" xmlns="http://www.w3.org/2000/svg" xmlns:xlink="http://www.w3.org/1999/xlink">
    <title>ELEMENT / DESKTOP / MESSAGE / BRANDED FORTUNE / TWO LINES</title>
    <g id="Page-1" stroke="none" stroke-width="1" fill="none" fill-rule="evenodd">
        <g id="Desktop-Home" transform="translate(-1208.000000, -1343.000000)">
            <g id="ELEMENT-/-DESKTOP-/-MESSAGE-/-BRANDED-FORTUNE-/-TWO-LINES" transform="translate(1208.000000, 1343.000000)">
                <g id="SHAPE-/-SPARKLE-/-GREEN" fill="#FFFFFF">
                    <path d="M51.1925205,0 L48.8551803,0 C36.6437703,21.4913958 21.455829,36.6443595 0,48.8527725 L0,51.0707457 C21.4844495,63.2982792 36.6819309,78.4799235 48.893341,100 L51.1543599,100 C63.3657699,78.4799235 78.5155505,63.250478 100,51.0325048 L100,48.8910134 C78.544171,36.6826004 63.4039305,21.4818356 51.1925205,0" id="Path"></path>
                </g>
                <path d="M30.9548367,47.1388889 C31.5148367,47.1388889 32.0115033,47.0422222 32.4448367,46.8488889 C32.87817,46.6555556 33.21317,46.3855556 33.4498367,46.0388889 C33.6865033,45.6922222 33.8048367,45.2888889 33.8048367,44.8288889 C33.8048367,44.3022222 33.6248367,43.8755556 33.2648367,43.5488889 C32.9048367,43.2222222 32.3548367,42.9855556 31.6148367,42.8388889 L31.6148367,42.8388889 L30.5348367,42.6188889 C30.12817,42.5322222 29.8315033,42.4105556 29.6448367,42.2538889 C29.45817,42.0972222 29.3648367,41.8922222 29.3648367,41.6388889 C29.3648367,41.3188889 29.4898367,41.0555556 29.7398367,40.8488889 C29.9898367,40.6422222 30.3215033,40.5388889 30.7348367,40.5388889 C31.1348367,40.5388889 31.4715033,40.6588889 31.7448367,40.8988889 C32.01817,41.1388889 32.17817,41.4522222 32.2248367,41.8388889 L32.2248367,41.8388889 L33.3748367,41.5788889 C33.3148367,41.1788889 33.16317,40.8255556 32.9198367,40.5188889 C32.6765033,40.2122222 32.3665033,39.9738889 31.9898367,39.8038889 C31.61317,39.6338889 31.1948367,39.5488889 30.7348367,39.5488889 C30.22817,39.5488889 29.77817,39.6422222 29.3848367,39.8288889 C28.9915033,40.0155556 28.6848367,40.2772222 28.4648367,40.6138889 C28.2448367,40.9505556 28.1348367,41.3388889 28.1348367,41.7788889 C28.1348367,42.2922222 28.2998367,42.7038889 28.6298367,43.0138889 C28.9598367,43.3238889 29.4748367,43.5522222 30.1748367,43.6988889 L30.1748367,43.6988889 L31.2448367,43.9288889 C31.7115033,44.0288889 32.0515033,44.1622222 32.2648367,44.3288889 C32.47817,44.4955556 32.5848367,44.7155556 32.5848367,44.9888889 C32.5848367,45.3288889 32.4398367,45.6072222 32.1498367,45.8238889 C31.8598367,46.0405556 31.4715033,46.1488889 30.9848367,46.1488889 C30.6248367,46.1488889 30.29817,46.0788889 30.0048367,45.9388889 C29.7115033,45.7988889 29.4748367,45.6022222 29.2948367,45.3488889 C29.1148367,45.0955556 29.0115033,44.8088889 28.9848367,44.4888889 L28.9848367,44.4888889 L27.8148367,44.7088889 C27.86817,45.1955556 28.0365033,45.6222222 28.3198367,45.9888889 C28.60317,46.3555556 28.97317,46.6388889 29.4298367,46.8388889 C29.8865033,47.0388889 30.3948367,47.1388889 30.9548367,47.1388889 Z M36.8698366,46.8888889 L36.8698366,44.2888889 L38.7398366,44.2888889 C39.2598366,44.2888889 39.7215033,44.1955556 40.1248366,44.0088889 C40.52817,43.8222222 40.8415033,43.5588889 41.0648366,43.2188889 C41.28817,42.8788889 41.3998366,42.4888889 41.3998366,42.0488889 C41.3998366,41.6088889 41.28817,41.2188889 41.0648366,40.8788889 C40.8415033,40.5388889 40.5298366,40.2738889 40.1298366,40.0838889 C39.7298366,39.8938889 39.2698366,39.7988889 38.7498366,39.7988889 L38.7498366,39.7988889 L35.6398366,39.7988889 L35.6398366,46.8888889 L36.8698366,46.8888889 Z M38.6198366,43.2988889 L36.8698366,43.2988889 L36.8698366,40.7888889 L38.6198366,40.7888889 C39.0798366,40.7888889 39.4515033,40.9055556 39.7348366,41.1388889 C40.01817,41.3722222 40.1598366,41.6755556 40.1598366,42.0488889 C40.1598366,42.4155556 40.0165033,42.7155556 39.7298366,42.9488889 C39.44317,43.1822222 39.07317,43.2988889 38.6198366,43.2988889 L38.6198366,43.2988889 Z M44.4948366,46.8888889 L44.4948366,44.0488889 L46.2348366,44.0488889 L47.7348366,46.8888889 L49.1148366,46.8888889 L47.4348366,43.8188889 C47.9748366,43.7255556 48.4048366,43.5055556 48.7248366,43.1588889 C49.0448366,42.8122222 49.2048366,42.3922222 49.2048366,41.8988889 C49.2048366,41.4855556 49.0965033,41.1205556 48.8798366,40.8038889 C48.6631699,40.4872222 48.3565033,40.2405556 47.9598366,40.0638889 C47.5631699,39.8872222 47.1081699,39.7988889 46.5948366,39.7988889 L46.5948366,39.7988889 L43.2548366,39.7988889 L43.2548366,46.8888889 L44.4948366,46.8888889 Z M46.4848366,43.0988889 L44.4948366,43.0988889 L44.4948366,40.7888889 L46.4848366,40.7888889 C46.9248366,40.7888889 47.2798366,40.8972222 47.5498366,41.1138889 C47.8198366,41.3305556 47.9548366,41.6088889 47.9548366,41.9488889 C47.9548366,42.2955556 47.8198366,42.5738889 47.5498366,42.7838889 C47.2798366,42.9938889 46.9248366,43.0988889 46.4848366,43.0988889 L46.4848366,43.0988889 Z M52.3998366,46.8888889 L52.3998366,39.7988889 L51.1598366,39.7988889 L51.1598366,46.8888889 L52.3998366,46.8888889 Z M55.8348365,46.8888889 L55.8348365,41.3488889 L55.8548365,41.3488889 L59.1348365,46.8888889 L60.6648365,46.8888889 L60.6648365,39.7988889 L59.4548365,39.7988889 L59.4548365,45.3588889 L59.4348365,45.3588889 L56.1648365,39.7988889 L54.6348365,39.7988889 L54.6348365,46.8888889 L55.8348365,46.8888889 Z M66.5298365,47.1388889 C67.2698365,47.1388889 67.9231698,46.9788889 68.4898365,46.6588889 C69.0565032,46.3388889 69.4965032,45.8922222 69.8098365,45.3188889 C70.1231698,44.7455556 70.2798365,44.0888889 70.2798365,43.3488889 C70.2798365,43.1622222 70.2731698,43.0222222 70.2598365,42.9288889 L70.2598365,42.9288889 L65.4098365,42.9288889 L65.4098365,43.8188889 L69.0498365,43.8188889 C69.0365032,44.2455556 68.9198365,44.6305556 68.6998365,44.9738889 C68.4798365,45.3172222 68.1815032,45.5872222 67.8048365,45.7838889 C67.4281698,45.9805556 67.0131698,46.0788889 66.5598365,46.0788889 C66.0465032,46.0788889 65.5865032,45.9622222 65.1798365,45.7288889 C64.7731698,45.4955556 64.4565032,45.1722222 64.2298365,44.7588889 C64.0031698,44.3455556 63.8898365,43.8755556 63.8898365,43.3488889 C63.8898365,42.8222222 63.9931698,42.3538889 64.1998365,41.9438889 C64.4065032,41.5338889 64.6948365,41.2138889 65.0648365,40.9838889 C65.4348365,40.7538889 65.8565032,40.6388889 66.3298365,40.6388889 C66.7831698,40.6388889 67.1931698,40.7672222 67.5598365,41.0238889 C67.9265032,41.2805556 68.1765032,41.6088889 68.3098365,42.0088889 L68.3098365,42.0088889 L69.4698365,41.7288889 C69.3431698,41.3088889 69.1265032,40.9322222 68.8198365,40.5988889 C68.5131698,40.2655556 68.1431698,40.0072222 67.7098365,39.8238889 C67.2765032,39.6405556 66.8165032,39.5488889 66.3298365,39.5488889 C65.6165032,39.5488889 64.9815032,39.7105556 64.4248365,40.0338889 C63.8681698,40.3572222 63.4331698,40.8072222 63.1198365,41.3838889 C62.8065032,41.9605556 62.6498365,42.6155556 62.6498365,43.3488889 C62.6498365,44.0822222 62.8148365,44.7355556 63.1448365,45.3088889 C63.4748365,45.8822222 63.9331698,46.3305556 64.5198365,46.6538889 C65.1065032,46.9772222 65.7765032,47.1388889 66.5298365,47.1388889 Z M31.9048367,61.1388889 C32.4648367,61.1388889 32.9615033,61.0422222 33.3948367,60.8488889 C33.82817,60.6555556 34.16317,60.3855556 34.3998367,60.0388889 C34.6365033,59.6922222 34.7548367,59.2888889 34.7548367,58.8288889 C34.7548367,58.3022222 34.5748367,57.8755556 34.2148367,57.5488889 C33.8548367,57.2222222 33.3048367,56.9855556 32.5648367,56.8388889 L32.5648367,56.8388889 L31.4848367,56.6188889 C31.07817,56.5322222 30.7815033,56.4105556 30.5948367,56.2538889 C30.40817,56.0972222 30.3148367,55.8922222 30.3148367,55.6388889 C30.3148367,55.3188889 30.4398367,55.0555556 30.6898367,54.8488889 C30.9398367,54.6422222 31.2715033,54.5388889 31.6848367,54.5388889 C32.0848367,54.5388889 32.4215033,54.6588889 32.6948367,54.8988889 C32.96817,55.1388889 33.12817,55.4522222 33.1748367,55.8388889 L33.1748367,55.8388889 L34.3248367,55.5788889 C34.2648367,55.1788889 34.11317,54.8255556 33.8698367,54.5188889 C33.6265033,54.2122222 33.3165033,53.9738889 32.9398367,53.8038889 C32.56317,53.6338889 32.1448367,53.5488889 31.6848367,53.5488889 C31.17817,53.5488889 30.72817,53.6422222 30.3348367,53.8288889 C29.9415033,54.0155556 29.6348367,54.2772222 29.4148367,54.6138889 C29.1948367,54.9505556 29.0848367,55.3388889 29.0848367,55.7788889 C29.0848367,56.2922222 29.2498367,56.7038889 29.5798367,57.0138889 C29.9098367,57.3238889 30.4248367,57.5522222 31.1248367,57.6988889 L31.1248367,57.6988889 L32.1948367,57.9288889 C32.6615033,58.0288889 33.0015033,58.1622222 33.2148367,58.3288889 C33.42817,58.4955556 33.5348367,58.7155556 33.5348367,58.9888889 C33.5348367,59.3288889 33.3898367,59.6072222 33.0998367,59.8238889 C32.8098367,60.0405556 32.4215033,60.1488889 31.9348367,60.1488889 C31.5748367,60.1488889 31.24817,60.0788889 30.9548367,59.9388889 C30.6615033,59.7988889 30.4248367,59.6022222 30.2448367,59.3488889 C30.0648367,59.0955556 29.9615033,58.8088889 29.9348367,58.4888889 L29.9348367,58.4888889 L28.7648367,58.7088889 C28.81817,59.1955556 28.9865033,59.6222222 29.2698367,59.9888889 C29.55317,60.3555556 29.92317,60.6388889 30.3798367,60.8388889 C30.8365033,61.0388889 31.3448367,61.1388889 31.9048367,61.1388889 Z M39.2898366,60.8888889 L39.2898366,54.8888889 L41.5398366,54.8888889 L41.5398366,53.7988889 L35.7898366,53.7988889 L35.7898366,54.8888889 L38.0498366,54.8888889 L38.0498366,60.8888889 L39.2898366,60.8888889 Z M43.2348366,60.8888889 L43.7948366,59.3388889 L46.8848366,59.3388889 L47.4348366,60.8888889 L48.7448366,60.8888889 L46.1048366,53.7988889 L44.5848366,53.7988889 L41.9248366,60.8888889 L43.2348366,60.8888889 Z M46.6048366,58.3688889 L44.0648366,58.3688889 L45.3348366,54.8788889 L45.3548366,54.8788889 L46.6048366,58.3688889 Z M51.7098366,60.8888889 L51.7098366,58.2888889 L53.5798366,58.2888889 C54.0998366,58.2888889 54.5615032,58.1955556 54.9648366,58.0088889 C55.3681699,57.8222222 55.6815032,57.5588889 55.9048366,57.2188889 C56.1281699,56.8788889 56.2398366,56.4888889 56.2398366,56.0488889 C56.2398366,55.6088889 56.1281699,55.2188889 55.9048366,54.8788889 C55.6815032,54.5388889 55.3698366,54.2738889 54.9698366,54.0838889 C54.5698366,53.8938889 54.1098366,53.7988889 53.5898366,53.7988889 L53.5898366,53.7988889 L50.4798366,53.7988889 L50.4798366,60.8888889 L51.7098366,60.8888889 Z M53.4598366,57.2988889 L51.7098366,57.2988889 L51.7098366,54.7888889 L53.4598366,54.7888889 C53.9198366,54.7888889 54.2915032,54.9055556 54.5748366,55.1388889 C54.8581699,55.3722222 54.9998366,55.6755556 54.9998366,56.0488889 C54.9998366,56.4155556 54.8565032,56.7155556 54.5698366,56.9488889 C54.2831699,57.1822222 53.9131699,57.2988889 53.4598366,57.2988889 L53.4598366,57.2988889 Z M62.6348365,60.8888889 L62.6348365,59.8088889 L59.3348365,59.8088889 L59.3348365,53.7988889 L58.0948365,53.7988889 L58.0948365,60.8888889 L62.6348365,60.8888889 Z M69.4298365,60.8888889 L69.4298365,59.8488889 L65.6198365,59.8488889 L65.6198365,57.7188889 L68.9298365,57.7188889 L68.9298365,56.7688889 L65.6198365,56.7688889 L65.6198365,54.8388889 L69.3298365,54.8388889 L69.3298365,53.7988889 L64.4198365,53.7988889 L64.4198365,60.8888889 L69.4298365,60.8888889 Z" id="SPRINGSTAPLE" fill="#000000" fill-rule="nonzero"></path>
            </g>
        </g>
    </g>
</svg>