<?xml version="1.0" encoding="UTF-8"?>
<svg width="66px" height="12px" viewBox="0 0 66 12" version="1.1" xmlns="http://www.w3.org/2000/svg" xmlns:xlink="http://www.w3.org/1999/xlink">
    <title>Group</title>
    <g id="Page-1" stroke="none" stroke-width="1" fill="none" fill-rule="evenodd">
        <g id="Group" fill="#000000">
            <polygon id="Star" points="6 9 2.47328849 10.854102 3.14683045 6.92705098 0.293660902 4.14589803 4.23664424 3.57294902 6 0 7.76335576 3.57294902 11.7063391 4.14589803 8.85316955 6.92705098 9.52671151 10.854102"></polygon>
            <polygon id="Star-Copy" points="20 9 16.4732885 10.854102 17.1468305 6.92705098 14.2936609 4.14589803 18.2366442 3.57294902 20 0 21.7633558 3.57294902 25.7063391 4.14589803 22.8531695 6.92705098 23.5267115 10.854102"></polygon>
            <polygon id="Star-Copy-2" points="34 9 30.4732885 10.854102 31.1468305 6.92705098 28.2936609 4.14589803 32.2366442 3.57294902 34 0 35.7633558 3.57294902 39.7063391 4.14589803 36.8531695 6.92705098 37.5267115 10.854102"></polygon>
            <polygon id="Star-Copy-3" points="47 9 43.4732885 10.854102 44.1468305 6.92705098 41.2936609 4.14589803 45.2366442 3.57294902 47 0 48.7633558 3.57294902 52.7063391 4.14589803 49.8531695 6.92705098 50.5267115 10.854102"></polygon>
            <polygon id="Star-Copy-5" points="60 9 56.4732885 10.854102 57.1468305 6.92705098 54.2936609 4.14589803 58.2366442 3.57294902 60 0 61.7633558 3.57294902 65.7063391 4.14589803 62.8531695 6.92705098 63.5267115 10.854102"></polygon>
        </g>
    </g>
</svg>