<svg id="Layer_1" data-name="Layer 1" xmlns="http://www.w3.org/2000/svg" viewBox="0 0 86.4 86.4"><g id="Layer_2-2" data-name="Layer 2-2"><g id="Layer_1-2-2" data-name="Layer 1-2-2"><path d="M43.2,0A43.2,43.2,0,1,0,86.4,43.2,43.2,43.2,0,0,0,43.2,0Zm0,84.16a41,41,0,1,1,41-41A41,41,0,0,1,43.2,84.16Z"/></g></g><path d="M63.15,29H53.94c-3.37,0-6.18,3.72-7.36,8.66H39.71v.06C38.59,32.25,35.82,29,32.42,29H23.26c-4.39,0-7.85,6.31-7.85,14.23s3.46,14.23,7.85,14.23h9.16c3.59,0,6.43-3.72,7.41-9.28h6.74c1,5.61,4,9.28,7.41,9.28h9.16c4.39,0,7.85-6.31,7.85-14.23S67.55,29,63.15,29ZM23.26,55.57c-3.28,0-6.11-5.69-6.11-12.35s2.78-12.34,6.11-12.34h5.26c-2.41,2.47-4,7-4,12.34s1.62,9.9,4,12.35Zm9.16.06c-3.37,0-6.13-5.69-6.13-12.43s2.78-12.56,6.13-12.56c2.41,0,4.57,3.22,5.5,6.93h-5.5c-1.68,0-2.91,2.48-2.91,5.26s1.3,5.25,2.91,5.25H38C37.17,52.48,35,55.63,32.42,55.63Zm0-8.72c-.81,0-1.73-1.86-1.73-4s.92-4,1.73-4h14a30.43,30.43,0,0,0-.32,4.26,28,28,0,0,0,.25,3.78Zm21.52,8.66c-3.37,0-6.13-5.69-6.13-12.35s2.78-12.34,6.13-12.34H59.2c-2.41,2.47-4,7-4,12.34s1.62,9.9,4,12.35Zm9.21,0C59.78,55.57,57,50,57,43.22s2.78-12.34,6.11-12.34,6.13,5.61,6.13,12.34S66.43,55.57,63.15,55.57Z"/></svg>