<?xml version="1.0" encoding="iso-8859-1"?>
<!-- Generator: Adobe Illustrator 16.0.0, SVG Export Plug-In . SVG Version: 6.00 Build 0)  -->
<!DOCTYPE svg PUBLIC "-//W3C//DTD SVG 1.1//EN" "http://www.w3.org/Graphics/SVG/1.1/DTD/svg11.dtd">
<svg version="1.1" id="Capa_1" xmlns="http://www.w3.org/2000/svg" xmlns:xlink="http://www.w3.org/1999/xlink" x="0px" y="0px"
	 width="945.9px" height="945.9px" viewBox="0 0 945.9 945.9" style="enable-background:new 0 0 945.9 945.9;" xml:space="preserve"
	>
<g>
	<g>
		<path d="M458.1,477.75h120.2v-85.3c-25.5,34.6-65.899,63.6-117.1,84.1C460.2,476.95,459.1,477.35,458.1,477.75z"/>
		<path d="M289.2,811.95h53.3v-61.5c0-15.2,12.3-27.5,27.5-27.5s27.5,12.3,27.5,27.5v61.5h51.7h7.3v-126c0-15.2,12.3-27.5,27.5-27.5
			s27.5,12.3,27.5,27.5v126H545h25.5v-61.5c0-15.2,12.3-27.5,27.5-27.5s27.5,12.3,27.5,27.5v61.5h59v-126
			c0-15.2,12.3-27.5,27.5-27.5s27.5,12.3,27.5,27.5v126h59v-61.5c0-15.2,12.3-27.5,27.5-27.5s27.5,12.3,27.5,27.5v61.5h52.4
			c22.1,0,40-17.9,40-40v-221.8c0-22.101-17.9-40-40-40H309.2h-20h-20c-74.5-2.9-144.2-21.7-198.1-53.7
			c-29.8-17.7-53.4-38.7-70.1-62.2c-0.3-0.4-0.6-0.8-0.9-1.2v175.8v71.2C0.1,734.95,129.5,811.95,289.2,811.95z"/>
		<path d="M276.8,477.55c4.101,0.101,8.2,0.2,12.4,0.2l0,0l0,0c119.1,0,221.399-42.8,265.6-104c15.101-20.8,23.4-43.8,23.4-67.9
			c0-95-129.4-171.9-289.101-171.9c-159.7,0-289.1,77-289.1,171.9c0,24.1,8.4,47.1,23.4,67.9C66.3,432.75,163,474.65,276.8,477.55z
			 M289.2,229.15c71.1,0,128.8,34.3,128.8,76.6c0,6.9-1.5,13.6-4.4,19.9c-1.6,3.6-3.6,7-6,10.3
			C387.9,363.25,342.3,382.35,289.2,382.35c-4.2,0-8.3-0.1-12.4-0.399c-47.7-2.7-87.8-20.9-105.9-46c-6.7-9.3-10.4-19.5-10.4-30.3
			C160.4,263.45,218,229.15,289.2,229.15z"/>
	</g>
</g>
<g>
</g>
<g>
</g>
<g>
</g>
<g>
</g>
<g>
</g>
<g>
</g>
<g>
</g>
<g>
</g>
<g>
</g>
<g>
</g>
<g>
</g>
<g>
</g>
<g>
</g>
<g>
</g>
<g>
</g>
</svg>
