<?xml version="1.0" encoding="utf-8"?>
<!-- Generator: Adobe Illustrator 26.0.1, SVG Export Plug-In . SVG Version: 6.00 Build 0)  -->
<svg version="1.1" id="Layer_1" xmlns="http://www.w3.org/2000/svg" xmlns:xlink="http://www.w3.org/1999/xlink" x="0px" y="0px"
	 viewBox="0 0 100 100" style="enable-background:new 0 0 100 100;" xml:space="preserve">
<g>
	<g>
		<path d="M50,100C22.43,100,0,77.57,0,50C0,22.43,22.43,0,50,0c27.57,0,50,22.43,50,50C100,77.57,77.57,100,50,100z M50,0.61
			C22.76,0.61,0.61,22.76,0.61,50c0,27.24,22.16,49.39,49.39,49.39c27.24,0,49.39-22.16,49.39-49.39C99.39,22.76,77.24,0.61,50,0.61
			z"/>
	</g>
	<g>
		<path d="M20.22,26.71l-5.1-4.55l0.75-0.85l6.22,1.72l0.01-0.01l-4.32-3.85l0.54-0.61l5.1,4.55l-0.75,0.85l-6.23-1.71l-0.01,0.01
			l4.32,3.85L20.22,26.71z"/>
		<path d="M24.14,22.38l-2.47-6.79l0.78-0.63l6.1,3.86l-0.65,0.52l-1.45-0.94l-2.27,1.83l0.61,1.62L24.14,22.38z M23.91,19.55
			l1.93-1.56l-3.29-2.13l-0.01,0.01L23.91,19.55z"/>
		<path d="M29.32,18.26l-3.21-6.03l1.04-0.55l4.72,4.18l0.01,0l-0.84-6.24l1.04-0.55l3.21,6.03l-0.71,0.38l-2.65-4.97l-0.02,0.01
			l0.77,5.97l-0.75,0.4l-4.51-3.96l-0.02,0.01l2.64,4.96L29.32,18.26z"/>
		<path d="M36.68,14.64L34.6,8.13l3.89-1.24l0.22,0.68l-3.14,1l0.68,2.13l2.77-0.88l0.21,0.66l-2.77,0.88l0.75,2.35l3.23-1.03
			l0.22,0.68L36.68,14.64z"/>
		<path d="M40.74,6.33l2.15-0.32c1.06-0.16,1.91,0.01,2.56,0.51c0.65,0.5,1.05,1.29,1.21,2.38c0.16,1.08,0.01,1.95-0.46,2.62
			c-0.47,0.67-1.24,1.08-2.3,1.24l-2.15,0.32L40.74,6.33z M45.54,11.08c0.35-0.52,0.46-1.21,0.34-2.07
			c-0.14-0.86-0.45-1.49-0.94-1.89c-0.49-0.4-1.14-0.53-1.94-0.41l-1.35,0.2l0.8,5.34l1.35-0.2C44.61,11.93,45.19,11.61,45.54,11.08
			z"/>
		<path d="M52.29,12.07c-0.46-0.35-0.79-0.81-1-1.38c-0.21-0.57-0.28-1.22-0.2-1.94c0.08-0.72,0.28-1.34,0.6-1.86
			c0.32-0.52,0.75-0.9,1.27-1.15c0.52-0.25,1.1-0.34,1.75-0.27c0.65,0.07,1.2,0.28,1.66,0.62c0.46,0.35,0.79,0.81,1,1.38
			c0.21,0.57,0.28,1.22,0.2,1.94c-0.08,0.73-0.28,1.35-0.6,1.86c-0.32,0.52-0.75,0.9-1.27,1.14c-0.52,0.25-1.1,0.34-1.75,0.27
			C53.3,12.63,52.75,12.42,52.29,12.07z M55.35,11.75c0.39-0.2,0.71-0.51,0.95-0.92c0.24-0.41,0.4-0.91,0.46-1.49
			c0.06-0.58,0.01-1.1-0.14-1.56c-0.15-0.46-0.4-0.83-0.74-1.11c-0.34-0.28-0.76-0.44-1.24-0.49c-0.49-0.05-0.93,0.02-1.32,0.23
			c-0.39,0.2-0.71,0.51-0.96,0.93c-0.25,0.42-0.4,0.91-0.46,1.49c-0.06,0.58-0.01,1.09,0.14,1.55c0.16,0.45,0.41,0.82,0.75,1.1
			s0.76,0.44,1.24,0.49C54.52,12.02,54.96,11.95,55.35,11.75z"/>
		<path d="M58.4,13.13l1.94-6.55l1.09,0.32l1.1,6.36l0.02,0.01l1.64-5.55l0.78,0.23l-1.94,6.55l-1.09-0.32l-1.11-6.36l-0.02-0.01
			l-1.64,5.55L58.4,13.13z"/>
		<path d="M64.39,15.06l2.92-6.18L71,10.63l-0.31,0.65l-2.98-1.41l-0.96,2.02l2.63,1.24l-0.29,0.62l-2.63-1.24l-1.06,2.23l3.07,1.45
			l-0.31,0.65L64.39,15.06z"/>
		<path d="M72.55,19.41c-0.19-0.54-0.22-1.11-0.09-1.7c0.14-0.59,0.43-1.17,0.89-1.73c0.46-0.56,0.96-0.97,1.51-1.23
			c0.55-0.26,1.12-0.35,1.69-0.27c0.57,0.08,1.11,0.32,1.62,0.73c0.51,0.41,0.86,0.89,1.05,1.43c0.19,0.54,0.22,1.11,0.09,1.7
			c-0.14,0.6-0.43,1.17-0.89,1.74c-0.46,0.57-0.97,0.98-1.52,1.23c-0.55,0.26-1.11,0.35-1.68,0.27c-0.57-0.08-1.11-0.32-1.62-0.73
			C73.09,20.43,72.74,19.95,72.55,19.41z M75.28,20.81c0.44,0.05,0.87-0.04,1.3-0.25c0.43-0.21,0.83-0.55,1.19-1
			c0.37-0.45,0.61-0.91,0.73-1.38c0.12-0.47,0.12-0.91-0.02-1.33c-0.14-0.42-0.39-0.78-0.78-1.09c-0.38-0.31-0.79-0.49-1.23-0.53
			c-0.44-0.04-0.87,0.04-1.31,0.25c-0.43,0.21-0.84,0.55-1.2,1c-0.37,0.45-0.61,0.91-0.72,1.38c-0.12,0.47-0.11,0.91,0.03,1.33
			s0.39,0.78,0.78,1.09C74.44,20.58,74.85,20.76,75.28,20.81z"/>
		<path d="M77.06,23.66l5.1-4.54l2.51,2.82l-0.54,0.48l-1.98-2.22l-1.77,1.57l1.6,1.8l-0.51,0.45l-1.6-1.8l-2.29,2.04L77.06,23.66z"
			/>
	</g>
	<g>
		<path d="M27.41,43.52h-0.12c-1.91-3.55-2.64-4.32-4.52-4.32h-1.91v17.89c0,1.09,0.41,1.44,1.94,2.41v0.18h-6.34v-0.18
			c1.53-0.97,1.94-1.32,1.94-2.41V39.2h-1.91c-1.91,0-2.61,0.76-4.52,4.32h-0.12l0.56-4.85h14.45L27.41,43.52z"/>
		<path d="M29.05,59.49c1.47-0.97,1.88-1.32,1.88-2.41V41.25c0-1.09-0.41-1.44-1.88-2.41v-0.18h6.23v0.18
			c-1.47,0.97-1.88,1.32-1.88,2.41v15.83c0,1.09,0.41,1.44,1.88,2.41v0.18h-6.23V59.49z"/>
		<path d="M58.77,59.49v0.18h-6.23v-0.18c1.47-0.97,1.82-1.32,1.76-2.41l-0.79-17.03h-0.03l-5.55,16.59l-0.97,3.23h-0.24
			C44.32,53.44,42,46.98,39.65,40.7h-0.03l-0.5,15.48c-0.06,1.2,0.09,1.97,1.7,3.41v0.18l-2.17-0.09h-2.09v-0.18
			c1.7-1.35,1.88-2.11,1.94-3.32l0.73-15.16c0.06-0.79,0.03-1.09-2.53-2.17v-0.18H42c0.21,1.32,0.5,2.41,1.06,4.14
			c1.73,4.99,3.82,10.46,4.67,13.13c1.94-5.64,5.26-15.86,5.7-17.27h4.35v0.18c-1.47,0.97-1.82,1.32-1.76,2.41l0.76,15.83
			C56.83,58.17,57.3,58.52,58.77,59.49z"/>
		<path d="M73.69,54.59l-0.56,5.08H60.23v-0.18c1.47-0.97,1.88-1.32,1.88-2.41V41.25c0-1.09-0.41-1.44-1.88-2.41v-0.18h12.04
			l0.56,4.9h-0.09c-2.29-4.32-3.11-4.38-4.46-4.38h-3c-0.38,0-0.7,0.47-0.7,0.94v8.08h2.61c1.91,0,2.85-0.97,3.44-2.61h0.09v5.67
			h-0.09c-0.68-1.85-1.76-2.58-3.44-2.58h-2.61v9.58c0,0.53,0.32,0.88,3.02,0.88h1.64c1.26,0,2.11-0.23,4.32-4.55H73.69z"/>
		<path d="M78.09,40.23c0,1.15-0.56,2.97-2.44,3.88l-0.09-0.26c0.76-0.38,1.53-1.26,1.76-2.17c0.03-0.09,0.03-0.18,0.03-0.26
			c0-0.23-0.06-0.44-0.21-0.44c-0.15,0-0.35,0.26-0.71,0.26c-0.53,0-1.03-0.65-1.03-1.35c0-0.85,0.62-1.56,1.32-1.56
			C77.35,38.32,78.09,38.87,78.09,40.23z"/>
		<path d="M80.76,59.26c-0.32,0-0.76,0.12-1.15,0.47l-0.35-5.2h0.18c1.59,4.38,2.94,4.96,4.38,4.96c0.94,0,2.06-0.62,2.06-2.53
			c0-1.73-1.09-2.61-2.03-3.14l-1.73-0.97c-0.88-0.5-2.91-1.67-2.91-4.23c0-2.61,2.26-3.7,3.94-3.7c1.15,0,1.79,0.53,2.56,0.53
			c0.38,0,0.85-0.15,1.23-0.5l0.23,4.76h-0.15c-1.09-3.5-2.47-4.38-3.76-4.38c-0.97,0-1.97,0.65-1.97,2.47c0,1.62,1,2.44,1.85,2.91
			l1.85,1.06c1.23,0.71,3,2.09,3,4.23c0,2.47-2.29,3.91-4.17,3.91C82.58,59.9,81.7,59.26,80.76,59.26z"/>
	</g>
	<g>
		<path d="M17.58,70.89l1.59,2.17c0.37,0.51,0.53,0.99,0.48,1.47c-0.05,0.47-0.3,0.88-0.76,1.21c-0.3,0.22-0.61,0.33-0.94,0.34
			s-0.62-0.1-0.88-0.31l-0.01,0.01c0.17,0.37,0.2,0.73,0.09,1.08c-0.1,0.35-0.33,0.65-0.67,0.91c-0.47,0.35-0.96,0.47-1.46,0.35
			c-0.5-0.11-0.96-0.45-1.36-1.01l-1.59-2.17L17.58,70.89z M15.1,77.29c0.33,0.09,0.65,0.01,0.97-0.22
			c0.31-0.23,0.47-0.51,0.48-0.85c0.02-0.34-0.12-0.7-0.4-1.08l-1.06-1.44l-1.97,1.45l1.06,1.44C14.47,76.97,14.77,77.21,15.1,77.29
			z M17.54,75.32c0.29,0.07,0.58,0,0.86-0.21c0.29-0.21,0.44-0.46,0.47-0.76c0.02-0.3-0.08-0.61-0.32-0.93l-1.07-1.45l-1.81,1.32
			l1.06,1.45C16.98,75.06,17.25,75.26,17.54,75.32z"/>
		<path d="M16.37,80.44l4.87-4.8l2.86,2.91l-0.51,0.5l-2.31-2.35l-1.59,1.57l2.04,2.07l-0.49,0.48l-2.04-2.07l-1.76,1.73l2.38,2.42
			l-0.51,0.5L16.37,80.44z"/>
		<path d="M21.62,85.24c-0.19-0.4-0.27-0.82-0.24-1.24c0.04-0.43,0.18-0.84,0.45-1.22l0.74,0.36c-0.21,0.29-0.33,0.59-0.37,0.91
			c-0.04,0.32,0.01,0.63,0.14,0.92c0.13,0.29,0.34,0.54,0.62,0.76c0.36,0.28,0.73,0.41,1.09,0.39c0.36-0.02,0.66-0.17,0.88-0.46
			c0.17-0.23,0.24-0.47,0.2-0.74c-0.04-0.27-0.19-0.59-0.45-0.96l-0.65-0.9c-0.33-0.47-0.52-0.89-0.54-1.28
			c-0.03-0.38,0.1-0.75,0.37-1.11c0.23-0.3,0.5-0.51,0.82-0.64c0.32-0.13,0.65-0.17,1.01-0.11c0.36,0.06,0.71,0.22,1.05,0.48
			c0.49,0.37,0.77,0.82,0.87,1.36c0.09,0.53-0.03,1.05-0.35,1.56l-0.72-0.32c0.24-0.36,0.35-0.73,0.31-1.11
			c-0.04-0.37-0.22-0.68-0.54-0.92c-0.31-0.24-0.63-0.34-0.96-0.31c-0.33,0.03-0.59,0.18-0.79,0.45c-0.17,0.23-0.24,0.46-0.22,0.71
			c0.03,0.25,0.16,0.54,0.4,0.87l0.64,0.89c0.36,0.49,0.57,0.94,0.61,1.36c0.04,0.41-0.08,0.81-0.36,1.18
			c-0.23,0.31-0.52,0.53-0.86,0.66c-0.34,0.13-0.7,0.16-1.09,0.08c-0.39-0.07-0.78-0.26-1.16-0.55
			C22.11,85.99,21.81,85.64,21.62,85.24z"/>
		<path d="M27.21,89.19l3.03-5.31l-1.73-0.99l0.36-0.62l4.17,2.38l-0.36,0.62l-1.73-0.99l-3.03,5.31L27.21,89.19z"/>
		<path d="M33.98,92.41L36.33,86l0.75,0.28l-2.36,6.41L33.98,92.41z"/>
		<path d="M36.84,93.45l1.62-6.64l1.1,0.27l1.4,6.3l0.02,0l1.38-5.62l0.79,0.19l-1.63,6.64l-1.1-0.27l-1.41-6.3l-0.02,0l-1.38,5.62
			L36.84,93.45z"/>
		<path d="M45.74,95.13l-1.74-7l0.85,0.07l1.45,6.09l0.02,0l2.41-5.77l0.84,0.07l-2.85,6.62L45.74,95.13z"/>
		<path d="M50.89,95.35l-0.42-6.82l4.07-0.25L54.59,89l-3.29,0.2l0.14,2.23l2.9-0.18l0.04,0.69l-2.9,0.18l0.15,2.47l3.39-0.21
			l0.04,0.72L50.89,95.35z"/>
		<path d="M57.08,94.84l-1.42-6.68l1.11-0.23l4,5.07l0.02,0l-1.2-5.66l0.8-0.17l1.42,6.68l-1.11,0.23l-4.01-5.06l-0.02,0l1.2,5.66
			L57.08,94.84z"/>
		<path d="M65.53,92.59l-2.15-5.73l-1.87,0.7l-0.25-0.67l4.49-1.68l0.25,0.67l-1.87,0.7l2.15,5.73L65.53,92.59z"/>
		<path d="M69.66,90.85l-3.02-6.13l0.72-0.36l3.02,6.13L69.66,90.85z"/>
		<path d="M73.38,88.59c-0.57,0.02-1.13-0.12-1.65-0.43c-0.53-0.31-0.99-0.76-1.39-1.37c-0.4-0.6-0.64-1.21-0.72-1.81
			c-0.08-0.61,0-1.17,0.25-1.69c0.24-0.52,0.64-0.96,1.18-1.32c0.54-0.36,1.1-0.55,1.68-0.57c0.57-0.02,1.12,0.12,1.65,0.43
			c0.53,0.31,0.99,0.77,1.39,1.37c0.4,0.61,0.64,1.22,0.72,1.82c0.08,0.6-0.01,1.17-0.25,1.69s-0.64,0.96-1.18,1.32
			C74.52,88.38,73.96,88.57,73.38,88.59z M75.54,86.41c0.18-0.4,0.23-0.84,0.15-1.32c-0.07-0.47-0.27-0.95-0.59-1.44
			c-0.32-0.49-0.69-0.86-1.1-1.12c-0.41-0.26-0.84-0.39-1.28-0.38c-0.44,0-0.86,0.14-1.27,0.41c-0.41,0.27-0.7,0.61-0.88,1.01
			c-0.17,0.41-0.22,0.85-0.15,1.33c0.07,0.48,0.27,0.96,0.59,1.45c0.32,0.49,0.68,0.85,1.1,1.11c0.41,0.25,0.84,0.38,1.27,0.37
			c0.44,0,0.86-0.14,1.27-0.41C75.07,87.15,75.36,86.81,75.54,86.41z"/>
		<path d="M79.4,84.58l-4.7-4.96l0.82-0.78l6.05,2.24l0.01-0.01l-3.98-4.2l0.59-0.56l4.7,4.96l-0.82,0.78l-6.06-2.23L76,79.83
			l3.98,4.2L79.4,84.58z"/>
		<path d="M85.03,78.65c-0.4,0.19-0.82,0.27-1.24,0.23c-0.43-0.04-0.84-0.19-1.22-0.45l0.36-0.74c0.28,0.21,0.59,0.34,0.91,0.38
			c0.32,0.04,0.63-0.01,0.92-0.14c0.29-0.13,0.55-0.33,0.76-0.61c0.28-0.36,0.41-0.73,0.4-1.09c-0.02-0.36-0.17-0.66-0.45-0.88
			c-0.22-0.17-0.47-0.24-0.74-0.21c-0.27,0.04-0.59,0.18-0.96,0.44l-0.9,0.64c-0.47,0.33-0.9,0.51-1.28,0.53
			c-0.38,0.03-0.75-0.1-1.11-0.38c-0.3-0.23-0.51-0.5-0.64-0.82c-0.13-0.32-0.16-0.65-0.1-1.01c0.06-0.36,0.22-0.7,0.48-1.04
			c0.38-0.49,0.83-0.77,1.36-0.86c0.53-0.09,1.05,0.04,1.56,0.36l-0.32,0.72c-0.36-0.25-0.73-0.35-1.1-0.32
			c-0.37,0.04-0.68,0.21-0.93,0.53c-0.24,0.31-0.35,0.63-0.32,0.96c0.03,0.33,0.18,0.59,0.44,0.8c0.22,0.17,0.46,0.25,0.71,0.22
			c0.25-0.03,0.54-0.16,0.87-0.39l0.89-0.63c0.49-0.36,0.95-0.56,1.36-0.6c0.41-0.04,0.8,0.09,1.17,0.37
			c0.31,0.24,0.52,0.53,0.65,0.87c0.13,0.34,0.15,0.71,0.08,1.1c-0.08,0.39-0.26,0.77-0.56,1.15
			C85.79,78.16,85.43,78.45,85.03,78.65z"/>
	</g>
</g>
</svg>
