<?xml version="1.0" encoding="UTF-8"?>
<svg width="126px" height="33px" viewBox="0 0 126 33" version="1.1" xmlns="http://www.w3.org/2000/svg" xmlns:xlink="http://www.w3.org/1999/xlink">
    <title>VOGUE_LOGO</title>
    <g id="Page-1" stroke="none" stroke-width="1" fill="none" fill-rule="evenodd">
        <g id="Artboard" transform="translate(-70.000000, -284.000000)" fill="#000000" fill-rule="nonzero">
            <g id="Group" transform="translate(70.000000, 284.000000)">
                <g id="VOGUE_LOGO" transform="translate(0.000000, -0.000000)">
                    <path d="M36.6474695,0.145585146 C29.2794311,0.198409771 23.2525952,8.36993324 23.2525952,15.4973926 C23.2525952,22.9978322 27.670514,32.1471975 36.6474695,32.1175753 C45.6244251,32.0878089 50.283737,22.2377281 50.283737,15.4973926 C50.283737,8.05212686 44.015521,0.0932797574 36.6474695,0.145585146 Z M36.6474695,0.425407993 C42.8142329,0.425407993 44.4779253,7.22157847 44.4779253,15.4973926 C44.4779253,26.4171245 42.47106,31.8043981 36.6474695,31.7941488 C30.823879,31.7838703 28.9293377,27.3746285 28.9293377,15.4973926 C28.9293377,8.05722716 30.4807061,0.425407993 36.6474695,0.425407993 Z" id="path3064"></path>
                    <path d="M52.7543253,15.6927909 C52.7214488,7.58314593 59.2200316,0.399554438 64.7211538,0.0431429296 C66.7082329,-0.0974599433 69.2624701,0.811371651 70.7536616,1.45878842 C71.8364821,1.92891059 74.0468877,1.24842585 74.4394049,0 L74.6534648,0 L74.6534648,11.0468744 L74.4394049,11.0468744 C74.4394049,10.5759416 72.39108,0.320878966 64.7211538,0.320878966 C59.0558989,0.320878966 58.5086072,10.2701816 58.5086072,15.6927909 C58.5086072,21.1154003 58.6736417,31.8503189 65.2847438,31.8503189 C68.4873427,31.8503189 70.8579338,30.4508899 71.4724836,27.6197858 L71.4724836,19.0114187 L68.7843054,19.0114187 L68.7843054,18.6447289 L79.2041522,18.6447289 L79.2041522,19.0114187 L76.6341266,19.0114187 L76.6341266,31.5967934 L76.4248503,31.5967934 C76.4248503,31.5967934 76.0070558,29.7808927 73.8869113,29.7869459 C71.1771547,29.7946829 68.6216236,32.1460087 65.5064627,32.1176471 C57.2680192,32.0416965 52.7874521,23.8024365 52.7543253,15.6927909 L52.7543253,15.6927909 Z" id="path3060"></path>
                    <path d="M3.23432104,1.23627896 L0,1.23627896 L0,0.871972318 L11.3300389,0.871972318 L11.3300389,1.23627896 L8.48761389,1.23627896 L16.5832145,23.2662329 C19.1147208,15.4565499 21.0758555,9.68363639 23.7150101,1.23627896 L20.9035036,1.23627896 L20.9035036,0.871972318 L26.8858131,0.871972318 L26.8858131,1.23627896 L24.161525,1.23627896 L14.3221839,31.9723183 L3.23432104,1.23627896 Z" id="path3058"></path>
                    <path d="M80.7378222,24.4395122 L80.6865763,1.21978907 L77.6055363,1.21978907 L77.6055363,0.871972318 L88.9567149,0.871972318 L88.9567149,1.21978907 L85.8774614,1.21978907 L85.9458545,26.6789748 C86.6275164,29.5942711 87.8394758,31.8063206 91.9800544,31.8392539 C96.1206329,31.8721871 98.9355202,29.389611 99.9816279,25.9968834 L99.9816279,1.21978907 L96.4570043,1.21978907 L96.4569913,0.882218562 L125.305129,0.882218562 L125.36515,12.0286232 L125.087901,12.0286232 C124.552844,4.83180459 121.776189,2.11192563 116.920085,1.31844096 C115.24909,1.04539948 113.496075,1.24780877 111.279944,1.23058042 L111.279944,15.4563315 C113.20975,15.6054256 115.265376,15.4834422 116.650659,14.293523 C117.910357,13.211469 118.266431,10.7114598 118.359039,9.6958141 L118.602946,9.6958141 L118.602946,22.0820237 L118.338984,22.0820237 C118.262741,22.0820237 118.161409,18.9737442 116.650659,17.4990755 C115.129998,16.0147472 113.193594,15.6497973 111.279944,16.0034381 L111.279944,31.1996363 C113.983016,31.1996363 116.137665,31.4286234 118.008819,30.9155836 C123.696698,29.3560576 125.699031,24.5569939 125.683697,19.7437242 L126,19.7437242 L126,31.5594027 L103.372217,31.5594027 L103.372217,31.1996363 L105.930718,31.1996363 L105.930718,1.21978907 L100.402861,1.21978907 L100.402861,25.9968834 C99.7763313,28.367588 97.4863952,32.2896113 91.6178253,32.2629758 C86.1613742,32.2379476 80.749597,29.7777729 80.7378222,24.4395122 L80.7378222,24.4395122 Z" id="path3054"></path>
                </g>
            </g>
        </g>
    </g>
</svg>